<svg width="33" height="33" viewBox="0 0 33 33" fill="none" xmlns="http://www.w3.org/2000/svg">
<g opacity="0.6">
<path fill-rule="evenodd" clip-rule="evenodd" d="M5.502 13.4814C5.502 12.6771 6.15403 12.025 6.95835 12.025H7.04557C7.84989 12.025 8.50192 12.6771 8.50192 13.4814V20.5686C8.50192 21.3729 7.84989 22.025 7.04557 22.025H6.95835C6.15403 22.025 5.502 21.3729 5.502 20.5686V13.4814ZM10.5344 26.0336V29.114C10.5344 29.9183 11.1864 30.5704 11.9907 30.5704H12.078C12.8823 30.5704 13.5344 29.9183 13.5344 29.114V26.0968H19.5317V29.114C19.5317 29.9183 20.1837 30.5704 20.988 30.5704H21.0753C21.8797 30.5704 22.5317 29.9183 22.5317 29.114V26.0143C23.0978 25.8146 23.5035 25.2749 23.5035 24.6405V13.0059H9.50355V24.6405C9.50355 25.2967 9.93765 25.8516 10.5344 26.0336ZM24.5089 13.525C24.5089 12.6966 25.1805 12.0251 26.0089 12.0251C26.8373 12.0251 27.5088 12.6966 27.5088 13.525V20.5251C27.5088 21.3535 26.8373 22.025 26.0089 22.025C25.1805 22.025 24.5089 21.3535 24.5089 20.5251V13.525Z" fill="#F6F6F6"/>
<path fill-rule="evenodd" clip-rule="evenodd" d="M23.505 1.95438C23.505 3.02 22.2158 4.5249 21.1802 4.5249C21.0425 4.5249 20.9082 4.50963 20.779 4.48064C22.4372 5.76072 23.5052 7.76813 23.5052 10.025V12.025H19.3052V10.3249C19.3052 8.77848 18.0516 7.52488 16.5052 7.52488C14.9588 7.52488 13.7052 8.77848 13.7052 10.3249V12.025H9.50521V10.025C9.50521 7.76796 10.5734 5.76042 12.2318 4.48034C12.102 4.50952 11.9671 4.5249 11.8287 4.5249C10.7924 4.5249 9.50521 3.01487 9.50521 1.95107C9.50521 0.887278 10.3453 0.0249023 11.3817 0.0249023C12.4181 0.0249023 13.7052 1.53494 13.7052 2.59873C13.7052 3.055 13.5507 3.47421 13.2924 3.80422C14.2546 3.30626 15.347 3.02499 16.5052 3.02499C17.6637 3.02499 18.7565 3.30642 19.7189 3.80465C19.46 3.47382 19.305 3.05324 19.305 2.59543C19.305 1.52981 20.5943 0.0249023 21.6299 0.0249023C22.6655 0.0249023 23.505 0.888758 23.505 1.95438ZM13.7048 6.7748C13.7048 7.18902 13.3914 7.5248 13.0048 7.5248C12.6182 7.5248 12.3048 7.18902 12.3048 6.7748C12.3048 6.36059 12.6182 6.0248 13.0048 6.0248C13.3914 6.0248 13.7048 6.36059 13.7048 6.7748ZM20.005 7.5248C20.3916 7.5248 20.705 7.18902 20.705 6.7748C20.705 6.36059 20.3916 6.0248 20.005 6.0248C19.6184 6.0248 19.305 6.36059 19.305 6.7748C19.305 7.18902 19.6184 7.5248 20.005 7.5248Z" fill="#F6F6F6"/>
<path fill-rule="evenodd" clip-rule="evenodd" d="M15.0457 10.2523C15.0457 9.42389 15.7172 8.75232 16.5457 8.75232C17.3741 8.75232 18.0457 9.42389 18.0457 10.2523V11.7523H15.0457V10.2523Z" fill="#F6F6F6"/>
</g>
</svg>
