<svg width="32" height="33" viewBox="0 0 32 33" fill="none" xmlns="http://www.w3.org/2000/svg">
<g opacity="0.6">
<path fill-rule="evenodd" clip-rule="evenodd" d="M20.4412 6.18176C22.366 4.14217 21.9654 2.0249 21.9654 2.0249C21.9654 2.0249 19.2717 2.03592 17.3342 4.28788C15.6113 6.29044 16.0499 8.00324 16.0499 8.00324C16.0499 8.00324 18.386 8.3596 20.4412 6.18176ZM27.2177 12.0536C27.2177 12.0536 25.5899 9.0249 21.4519 9.0249C19.9891 9.0249 18.7326 9.54587 17.7487 9.95379C17.1157 10.2163 16.5956 10.4319 16.206 10.4319C15.7203 10.4319 15.1344 10.1998 14.4536 9.92998C13.5093 9.55582 12.3823 9.10927 11.0867 9.10927C7.65683 9.10927 4 12.2682 4 18.2901C4 24.4107 8.32022 32.0249 11.7399 32.0249C12.2718 32.0249 12.9307 31.7793 13.6612 31.5069C14.5699 31.1682 15.5893 30.7881 16.6131 30.7881C17.5311 30.7881 18.3272 31.094 19.1129 31.396C19.8783 31.6901 20.6338 31.9804 21.4826 31.9804C25.2275 31.9804 28 23.9535 28 23.9535C28 23.9535 24.0338 22.3741 24.0338 17.7908C24.0338 13.7279 27.2177 12.0536 27.2177 12.0536Z" fill="#F6F6F6"/>
</g>
</svg>
