<svg width="100" height="100" viewBox="0 0 100 100" fill="none" xmlns="http://www.w3.org/2000/svg">
<path fill-rule="evenodd" clip-rule="evenodd" d="M46.834 3.10963C72.7322 1.35463 95.1428 20.9263 96.8907 46.8238C98.6398 72.72 79.0637 95.1369 53.1655 96.8907C27.2684 98.6445 4.85785 79.0728 3.10875 53.1765C1.36082 27.2791 20.9381 4.86346 46.834 3.10963Z" fill="#D9F3FA"/>
<mask id="mask0" mask-type="alpha" maskUnits="userSpaceOnUse" x="3" y="3" width="94" height="94">
<path fill-rule="evenodd" clip-rule="evenodd" d="M46.8336 3.10925C20.9389 4.86425 1.36162 27.2787 3.10837 53.1773C4.85747 79.0724 27.2681 98.6441 53.1651 96.8903C79.0633 95.1365 98.6394 72.7196 96.8915 46.8245C95.2152 22.0078 74.5678 3 50.0592 3C48.9915 3 47.9155 3.03642 46.8336 3.10925Z" fill="white"/>
</mask>
<g mask="url(#mask0)">
<path fill-rule="evenodd" clip-rule="evenodd" d="M86.9832 18.2959C86.9832 18.2959 87.3825 19.2227 87.4659 19.5305C87.5494 19.8371 87.5376 20.0673 87.8289 20.3175C88.1202 20.5701 88.381 20.7921 88.7381 21.0952C89.0964 21.3994 90.0573 22.2382 90.0573 22.2382L90.7186 22.943L91.1638 24.0449C91.1638 24.0449 91.6772 24.4384 91.985 24.6028C92.2939 24.7685 92.6768 25.2607 92.7191 24.8719C92.7614 24.483 92.8812 24.2222 92.4583 23.9121C92.0355 23.6044 91.8863 22.9818 91.5903 22.7785C91.2931 22.5777 90.8749 22.0479 90.8749 22.0479L90.4743 21.3219C90.4743 21.3219 89.4465 20.8802 89.0635 20.5043C88.6782 20.1284 88.5055 20.085 88.3105 19.6961C88.1155 19.3085 88.0134 19.3566 87.9922 19.0712C87.9711 18.7857 87.7537 18.404 87.4871 18.2289C87.2193 18.0562 87.2193 17.92 87.1159 18.0468C87.0125 18.1737 86.9832 18.2959 86.9832 18.2959Z" fill="#83B84D"/>
</g>
<mask id="mask1" mask-type="alpha" maskUnits="userSpaceOnUse" x="3" y="3" width="94" height="94">
<path fill-rule="evenodd" clip-rule="evenodd" d="M46.8336 3.10925C20.9389 4.86425 1.36162 27.2787 3.10837 53.1773C4.85747 79.0724 27.2681 98.6441 53.1651 96.8903C79.0633 95.1365 98.6394 72.7196 96.8915 46.8245C95.2152 22.0078 74.5678 3 50.0592 3C48.9915 3 47.9155 3.03642 46.8336 3.10925Z" fill="white"/>
</mask>
<g mask="url(#mask1)">
<path fill-rule="evenodd" clip-rule="evenodd" d="M82.0102 63.6136C82.0102 63.6136 83.226 64.8905 83.5173 65.5342C83.8098 66.178 83.71 66.6208 83.9308 67.133C84.1505 67.6464 84.4089 67.9201 84.1939 68.1421C83.979 68.3653 83.892 68.6789 84.0436 69.1594C84.1963 69.6386 84.2245 70.4269 84.2245 70.4269L83.0063 72.2359C83.0063 72.2359 81.1503 74.6041 81.3911 75.3336C81.6331 76.0596 82.0055 76.8889 81.9456 77.555C81.888 78.2222 82.0771 77.898 81.7177 79.0128C81.3594 80.1287 81.0329 80.9346 81.1926 81.3034C81.3524 81.6723 81.7518 82.2585 81.4546 82.5087C81.1562 82.7589 81.3547 82.968 81.1386 83.3274C80.9189 83.6881 79.8652 84.266 80.523 84.4082C81.1832 84.5515 82.4707 83.7057 82.8912 83.6681C83.3117 83.6293 84.1199 83.2029 84.4183 82.8963C84.7167 82.5909 86.1098 81.2036 86.7031 80.8053C87.2974 80.4071 88.6002 78.7449 88.6002 78.7449L90.1425 76.7526C90.1425 76.7526 91.477 75.787 91.7601 75.1503C92.0432 74.5137 92.661 72.6764 92.9042 72.3733C93.1485 72.0703 93.9391 71.5111 94.2187 70.9954C94.4959 70.4797 94.8013 69.5987 95.4157 69.1206C96.03 68.6425 96.541 66.8992 96.541 66.8992C96.541 66.8992 97.1448 65.6282 97.1977 65.1619C97.2505 64.6967 96.9275 63.892 97.1307 63.5314C97.3351 63.1696 97.6323 61.8175 97.6323 61.8175L97.5794 60.5124C97.5794 60.5124 98.1257 58.0667 98.6014 56.9519C99.0772 55.8383 99.7115 54.0703 99.856 53.4912C99.9993 52.9109 100.251 51.5189 100.383 50.8317C100.514 50.1421 100.231 49.3798 100.347 48.5281C100.466 47.6788 100.528 46.7226 100.568 46.2539C100.608 45.784 100.691 44.4566 100.459 44.6951C100.226 44.9312 99.9218 45.6419 99.8383 46.0424C99.7538 46.4418 99.7162 46.9892 99.5118 46.8142C99.3086 46.6392 98.7541 46.1963 98.7541 46.1963C98.7541 46.1963 99.0419 45.5256 98.8763 45.3846C98.7107 45.2448 97.8661 44.0407 97.5054 43.9491C97.146 43.8575 97.0085 43.1562 96.9099 42.8238C96.8112 42.4913 96.0582 41.5234 96.0582 41.5234C96.0582 41.5234 95.0597 39.7872 94.981 39.4441C94.9023 39.1 94.4548 38.522 94.3232 38.4198C94.194 38.3176 93.3518 36.7893 93.0769 36.471C92.8032 36.1515 91.9363 34.8675 91.9363 34.8675C91.9363 34.8675 90.9531 33.3427 91.121 33.5436C91.2878 33.7445 91.9668 34.5891 92.1195 34.5492C92.2734 34.5116 91.7836 33.4673 91.9292 33.5448C92.076 33.6235 92.3873 34.178 92.5412 34.3506C92.6928 34.5221 93.7934 35.6358 93.8533 35.9741C93.9144 36.3136 93.9414 36.5309 94.2762 36.8152C94.6122 37.0983 95.337 37.5717 95.4098 38.031C95.4838 38.4903 96.0171 39.4206 96.245 39.6662C96.4741 39.9117 96.7572 40.2899 97.173 40.7986C97.5888 41.3072 98.0528 42.3374 98.0528 42.3374C98.0528 42.3374 98.5227 43.8223 98.6284 44.2299C98.7341 44.6375 99.0713 45.3928 99.1864 44.8877C99.3027 44.3826 99.3203 43.9397 99.5059 43.646C99.6903 43.3512 99.6163 42.8978 99.735 42.3574C99.8524 41.8159 99.6997 40.9254 99.8701 40.8397C100.042 40.7563 99.9934 40.1537 99.9946 39.6861C99.9958 39.2174 100.261 38.589 100.34 38.3352C100.417 38.0815 98.0423 31.1825 98.1621 31.5854C98.2819 31.9907 98.1057 32.4582 97.9929 32.6673C97.8813 32.8776 97.9107 33.425 97.9401 33.6094C97.9683 33.7962 97.4984 33.6787 97.2341 33.4449C96.9698 33.2112 96.4153 32.5592 96.4153 32.5592C96.4153 32.5592 95.6236 31.5983 95.418 31.2952C95.2124 30.9933 95.0186 30.0501 95.3005 30.3003C95.5848 30.5493 95.8867 30.9475 96.2626 31.2447C96.6373 31.5431 97.1366 31.9108 97.2024 31.5936C97.2693 31.2788 97.3551 30.406 97.6393 30.1417C97.9224 29.8762 94.4607 17.0367 93.6771 16.3049C92.8936 15.5742 77.1282 6.17427 76.1203 5.6668C75.1136 5.1605 68.8021 2.74062 68.6552 2.80758C68.5084 2.87688 67.9175 4.22544 68.1983 4.42162C68.4802 4.61544 69.4352 5.03598 69.4352 5.03598C69.4352 5.03598 70.8284 5.3461 71.169 5.61276C71.5109 5.87942 71.559 6.0474 71.256 5.99336C70.9529 5.9405 70.3397 5.95108 70.6463 6.09439C70.9529 6.2377 71.6847 6.61948 71.7893 6.88379C71.8938 7.14692 71.9161 7.64617 71.9161 7.64617C71.9161 7.64617 72.1757 8.04322 72.3473 8.20298C72.5199 8.36156 72.5094 8.66111 72.6844 8.84084C72.8571 9.02174 73.415 9.32834 73.4338 9.4975C73.455 9.66548 72.5493 9.55036 72.6903 9.71482C72.8324 9.88045 73.9859 9.97208 73.7393 10.1612C73.4926 10.3515 72.359 10.0402 72.0606 9.75123C71.7623 9.4646 70.6122 9.34126 70.8942 9.23554C71.1749 9.13099 72.0348 9.51747 71.962 9.16623C71.8915 8.81617 71.9855 8.37096 71.552 8.31457C71.1185 8.25936 70.6651 8.17008 70.1917 8.17831C69.7195 8.18418 68.3498 8.27111 68.2241 8.1137C68.0984 7.95629 68.2241 7.84939 67.8341 7.73545C67.443 7.62032 66.8721 7.82707 66.5655 8.11957C66.2589 8.4109 66.1332 9.30719 66.1332 9.30719C66.1332 9.30719 66.3998 10.2881 66.5737 10.5806C66.7487 10.8731 67.0941 11.7529 67.0941 11.7529C67.0941 11.7529 66.3446 12.5317 66.2694 12.8524C66.1919 13.1743 65.9229 13.4398 66.2565 13.7593C66.5913 14.0777 67.1751 14.9563 67.3549 14.9587C67.5346 14.961 67.7284 15.519 68.0103 15.6893C68.2911 15.8632 68.526 15.9172 68.7739 15.6377C69.0206 15.3593 69.1474 14.6356 69.3459 14.7449C69.5433 14.8565 70.8601 15.9478 71.0668 16.171C71.2712 16.3942 71.6225 16.5469 71.3159 16.7102C71.0116 16.8746 70.5359 17.0367 70.8155 17.1577C71.0939 17.2799 71.2677 17.0919 71.5637 17.0121C71.8598 16.9334 72.2944 16.9275 72.2944 16.9275C72.2944 16.9275 72.6644 16.7125 72.5845 16.3507C72.5035 15.9877 72.2991 15.3346 72.0089 15.0456C71.7176 14.7543 71.8797 14.6509 71.747 14.2797C71.6143 13.9085 71.4604 13.6595 71.2501 13.6136C71.041 13.5678 70.1236 13.0052 70.0789 12.7338C70.0331 12.4636 69.669 12.278 69.8146 12.0302C69.9615 11.7811 70.355 11.538 69.9838 11.3195C69.6114 11.1021 69.1075 10.4243 69.4364 10.3398C69.7653 10.254 70.0883 10.375 70.234 10.4349C70.3808 10.4972 70.8554 11.7553 70.8554 11.7553C70.8554 11.7553 71.4662 12.8818 71.8233 13.0792C72.1816 13.2789 73.0098 13.488 73.0098 13.488C73.0098 13.488 73.6218 12.7914 73.9495 12.7937C74.2773 12.7949 75.076 12.7244 74.9128 13.031C74.7495 13.3388 74.0752 13.5573 74.0752 13.5573C74.0752 13.5573 73.3587 13.6653 73.5619 13.9708C73.7639 14.2774 74.0047 14.3925 74.3242 14.5005C74.6438 14.6098 75.0067 14.8776 74.8153 15.0198C74.6261 15.1607 74.2585 14.7167 74.0447 14.8858C73.8297 15.0538 74.161 15.5507 74.161 15.5507C74.161 15.5507 75.2781 16.2884 75.1477 16.5997C75.0185 16.9099 74.6273 17.254 74.6273 17.254C74.6273 17.254 74.1375 16.7701 73.899 16.9169C73.6594 17.0637 73.2682 17.7556 73.2682 17.7556C73.2682 17.7556 72.6679 17.5454 72.4013 17.5231C72.1346 17.5007 72.0677 17.8062 71.7188 17.8437C71.3699 17.8802 71.0927 17.5278 70.9447 17.5665C70.7967 17.6053 70.4149 17.2129 70.4149 16.9909C70.4149 16.7677 70.651 16.6526 70.4783 16.4506C70.3057 16.2462 70.0414 15.8174 69.8475 15.963C69.6525 16.1099 69.4223 16.1721 69.5386 16.4541C69.6537 16.7348 69.9932 17.4197 70.288 17.5935C70.5817 17.7674 70.9365 18.0705 70.8871 18.2784C70.8378 18.4875 70.1847 18.686 70.0014 18.7506C69.8193 18.8129 69.6243 18.9797 69.6878 19.3509C69.75 19.7244 69.8957 19.9723 69.5574 20.1509C69.2191 20.3294 69.4411 20.2554 69.1462 20.4269C68.8526 20.5984 68.7809 20.8956 68.7809 20.8956C68.7809 20.8956 69.0993 21.0049 68.8972 21.2715C68.6952 21.5394 68.5789 21.4419 68.4344 21.6357C68.2911 21.8307 67.8893 21.786 67.8893 21.786C67.8893 21.786 67.0271 21.5899 67.1387 21.7825C67.2503 21.9763 67.6039 22.5214 67.6039 22.5214C67.6039 22.5214 66.3822 22.4944 66.2812 22.4897C66.1802 22.4838 65.917 22.5202 66.0098 22.8186C66.1038 23.1193 65.9582 23.144 66.4151 23.2286C66.8721 23.3132 67.6109 23.4541 67.6109 23.4541C67.6109 23.4541 67.672 23.7842 67.9528 23.951C68.2335 24.1178 68.6024 24.2036 68.7234 24.5748C68.8455 24.9436 69.1791 25.5016 69.0476 25.9551C68.916 26.4097 68.5342 26.4637 68.5342 26.4637C68.5342 26.4637 67.9175 26.4014 67.5792 26.385C67.2409 26.3674 66.4656 26.4191 66.3294 26.4555C66.1943 26.4907 65.6093 26.6787 65.3884 26.5506C65.1664 26.4249 64.9303 26.439 64.72 26.6458C64.5109 26.8549 64.1574 26.9524 64.4029 27.1826C64.6496 27.414 64.7741 27.7747 64.8516 28.2046C64.928 28.6345 65.1558 28.8248 65.11 29.1385C65.063 29.4521 64.9468 29.3911 64.908 29.9126C64.8704 30.4342 64.9197 30.695 65.184 30.7725C65.446 30.8512 65.4448 31.2694 65.5646 31.5971C65.6856 31.9237 66.1167 31.8415 66.3693 31.7957C66.6207 31.7487 67.1646 31.8156 67.1646 31.8156C67.1646 31.8156 67.8048 32.4582 68.1008 32.2667C68.398 32.0764 68.9759 32.0142 68.9759 32.0142L70.2516 31.6735C70.2516 31.6735 70.4701 30.8806 70.7638 30.5681C71.0575 30.2556 70.9846 29.9114 70.9846 29.9114C70.9846 29.9114 70.6381 29.5144 70.7849 29.2665C70.9306 29.0187 70.8272 28.3691 71.1491 28.1682C71.4698 27.9661 71.6918 28.0989 71.9467 27.7101C72.1992 27.3212 72.0501 27.0017 72.0418 26.5882C72.0313 26.1759 72.0301 25.8763 72.4013 25.9269C72.7737 25.9774 73.1155 26.1313 73.4221 26.0772C73.731 26.022 74.0141 25.6884 74.2044 25.4957C74.3971 25.3031 74.3137 24.9671 74.6719 25.0928C75.0314 25.2197 75.3063 24.8391 75.5095 25.2385C75.7127 25.6355 75.614 25.8787 75.9829 26.0608C76.3529 26.2429 77.2492 26.4555 77.4101 26.6951C77.5711 26.9336 77.7849 27.0957 78.0879 27.1262C78.391 27.1568 78.7281 27.3764 78.7281 27.3764C78.7281 27.3764 79.3507 27.7183 79.5868 27.8346C79.8241 27.952 80.1718 28.342 80.1718 28.342C80.1718 28.342 80.4667 28.6498 80.3891 28.7873C80.3139 28.9235 80.0226 29.0339 80.1448 29.1702C80.2681 29.3065 80.6429 29.2783 80.7192 28.9893C80.7979 28.7003 80.8719 28.4348 80.7368 28.1811C80.6029 27.9274 80.1354 27.7007 80.1753 27.5186C80.2165 27.3377 80.22 27.266 80.4643 27.387C80.7063 27.5104 81.0834 27.8099 81.0822 27.5832C81.0787 27.3553 81.0634 27.0886 80.7862 27.0416C80.5089 26.9947 79.2802 26.7903 79.2779 26.6763C79.2755 26.5612 79.1416 26.3122 79.1416 26.3122C79.1416 26.3122 78.6212 26.513 78.3945 26.2511C78.1666 25.9903 77.5687 25.4993 77.3655 25.3289C77.1623 25.1586 76.7006 24.9695 76.4927 24.9213C76.2824 24.8708 75.9253 24.4832 76.0052 24.3727C76.0839 24.2611 75.8643 24.193 76.0111 23.9863C76.1579 23.7795 76.3682 23.3343 76.515 23.7196C76.6607 24.1049 76.7464 24.2729 76.9109 24.2024C77.0777 24.1331 77.3608 24.2365 77.4853 24.3821C77.611 24.5278 78.1232 24.8767 78.1232 24.8767C78.1232 24.8767 78.9642 25.2479 79.1076 25.2632C79.2509 25.2761 79.81 25.4687 80.0637 25.5686C80.3186 25.6684 80.7204 25.5803 80.886 25.9034C81.0517 26.2276 81.0058 26.4919 81.2267 26.7409C81.4487 26.99 81.3782 27.0698 81.767 27.4199C82.1535 27.7711 82.4343 27.9826 82.6892 28.1811C82.9441 28.3796 83.1297 28.6698 83.1297 28.6698C83.1297 28.6698 83.004 28.7508 83.3376 29.0516C83.6735 29.3511 84.0847 29.572 84.1528 29.2912C84.2209 29.0116 84.1011 28.7332 84.2397 28.6157C84.3795 28.4995 84.45 27.8686 84.2139 27.8252C83.9766 27.7817 83.9097 28.0354 83.7194 27.925C83.5279 27.8146 83.4057 27.3353 83.2636 27.2202C83.1214 27.1027 82.7115 26.9324 82.8219 26.7656C82.9335 26.5953 83.0698 26.7327 83.152 26.5389C83.233 26.3451 82.9053 26.3321 83.3023 26.0972C83.6982 25.8611 83.7147 25.8822 84.0048 25.9609C84.2949 26.042 84.5217 25.6555 84.5217 25.6555C84.5217 25.6555 84.9821 25.195 85.1478 25.5263C85.3146 25.8564 85.4332 26.0056 85.109 26.0185C84.7836 26.0314 84.4112 25.9985 84.3983 26.2922C84.3854 26.5859 84.4958 26.7574 84.7542 27.0499C85.0127 27.3424 85.4273 27.7876 85.4191 27.9403C85.4109 28.093 85.721 28.0707 86.0276 28.2704C86.3342 28.4701 86.2531 28.7532 86.5022 28.7814C86.7524 28.8084 87.1365 28.7356 87.1365 28.7356C87.1365 28.7356 87.5406 28.9799 87.6299 28.8871C87.718 28.7967 87.671 28.3185 87.9071 28.3573C88.142 28.3984 88.283 28.5793 88.5908 28.51C88.8962 28.4419 88.8539 28.2387 89.0371 27.9697C89.2216 27.7007 89.2298 27.4775 89.4741 27.6854C89.7185 27.8945 89.6327 28.2117 89.964 28.5053C90.2952 28.799 90.5008 29.8433 90.5008 29.8433C90.5008 29.8433 91.0094 30.8547 91.0071 31.1649C91.0024 31.4761 91.208 31.9472 91.0599 32.1751C90.9119 32.403 90.5431 32.7542 90.2588 32.5768C89.9757 32.4006 89.816 32.087 89.6586 32.356C89.5023 32.625 89.3801 32.8494 89.0242 32.9175C88.6659 32.9868 87.8871 33.1078 87.4995 33.1372C87.1118 33.1654 86.5774 33.0068 86.3001 32.9598C86.0253 32.914 85.8702 32.5674 85.472 32.6215C85.0726 32.6767 84.6626 32.8141 84.6767 33.1877C84.6908 33.5601 84.9222 33.8173 84.9821 34.2367C85.0432 34.6572 84.9551 34.9826 84.7519 35.0132C84.5487 35.0461 83.9766 34.6537 83.5514 34.6384C83.1273 34.6243 82.3708 34.4352 82.3708 34.4352C82.3708 34.4352 82.0349 33.5518 81.3665 33.5859C80.7016 33.62 79.2473 33.6047 78.8714 33.3498C78.4944 33.0961 78.2688 32.8952 78.4979 32.6391C78.7258 32.383 78.4944 31.677 78.4944 31.677C78.4944 31.677 77.8389 31.4162 77.9681 31.2259C78.0973 31.0356 78.4345 30.5164 78.1983 30.5035C77.9611 30.4917 77.9728 31.0004 77.7813 30.7713C77.5899 30.5423 77.1834 30.3942 77.1834 30.3942C77.1834 30.3942 75.6904 30.9933 75.4026 31.0239C75.1136 31.0533 74.2115 31.0697 73.684 31.2776C73.1554 31.4832 72.2051 31.8027 71.8245 32.2174C71.4439 32.6344 71.0011 32.9293 70.6169 33.0526C70.234 33.1771 68.7433 33.2053 68.4767 33.0831C68.2124 32.9598 68.1266 32.7202 67.9504 32.7718C67.7754 32.8224 67.7472 33.0949 67.7272 33.4179C67.7061 33.7421 67.8447 34.1028 67.1751 34.4575C66.5067 34.8099 65.9335 35.106 65.8336 35.4948C65.735 35.8824 65.6151 36.8163 65.6151 36.8163C65.6151 36.8163 65.9029 37.668 65.762 37.9393C65.621 38.2084 64.6789 39.1822 64.3159 39.3572C63.9506 39.5311 63.3504 39.4371 63.2822 39.8165C63.2129 40.1971 63.328 40.5143 63.0156 40.6834C62.7031 40.8561 62.0747 41.2379 62.0958 41.783C62.1158 42.328 62.0241 42.6757 62.0241 42.6757C62.0241 42.6757 61.29 43.2784 61.1772 43.5803C61.0633 43.8833 61.0715 44.4683 60.7614 44.6904C60.4501 44.9124 60.3502 45.0275 60.369 45.3341C60.389 45.6407 60.5041 46.0894 60.8177 46.1728C61.1326 46.2586 61.2465 46.389 61.1138 46.631C60.981 46.8741 60.8048 47.0456 60.8048 47.0456L61.3146 47.8797L61.2218 48.9768L60.8083 49.8626C60.8083 49.8626 61.2841 50.316 60.8401 50.7483C60.3937 51.1806 59.9755 51.1148 60.1787 51.3991C60.3819 51.681 60.3537 51.6023 60.5546 51.95C60.7543 52.2977 61.0127 52.6325 60.8694 52.6501C60.7261 52.6689 60.6321 53.0801 60.6321 53.0801L61.4568 53.8401L62.1827 53.7837C62.1827 53.7837 61.7258 54.2489 61.9372 54.3875C62.1487 54.5261 62.7489 55.0007 62.9451 55.3108C63.1401 55.6209 63.5771 55.6151 63.6417 56.045C63.7063 56.4738 64.1797 56.8227 64.1245 57.0917C64.0693 57.3607 64.5039 57.6602 64.5039 57.6602L65.7056 58.291C65.7056 58.291 66.374 58.6317 66.6301 58.9078C66.885 59.1838 68.2946 59.9133 68.2946 59.9133C68.2946 59.9133 69.7982 59.6502 70.1788 59.5303C70.5606 59.4094 72.1393 59.145 72.1393 59.145C72.1393 59.145 73.2142 59.5585 73.5031 59.3447C73.7933 59.1321 75.4801 58.3803 75.4801 58.3803C75.4801 58.3803 76.9591 57.6168 77.6533 57.5498C78.3464 57.484 79.2415 57.6861 79.2415 57.6861C79.2415 57.6861 79.3014 58.9136 79.9052 58.9559C80.5089 58.9982 81.5732 58.5624 81.5732 58.5624C81.5732 58.5624 82.3896 58.4473 82.567 58.9618C82.7432 59.4775 82.6292 60.53 82.6292 60.53C82.6292 60.53 82.4072 61.6166 82.1758 61.9702C81.9421 62.3214 81.8657 62.4835 81.8446 62.7114C81.8234 62.9417 82.0102 63.6136 82.0102 63.6136Z" fill="#83B84D"/>
</g>
<mask id="mask2" mask-type="alpha" maskUnits="userSpaceOnUse" x="3" y="3" width="94" height="94">
<path fill-rule="evenodd" clip-rule="evenodd" d="M46.8336 3.10925C20.9389 4.86425 1.36162 27.2787 3.10837 53.1773C4.85747 79.0724 27.2681 98.6441 53.1651 96.8903C79.0633 95.1365 98.6394 72.7196 96.8915 46.8245C95.2152 22.0078 74.5678 3 50.0592 3C48.9915 3 47.9155 3.03642 46.8336 3.10925Z" fill="white"/>
</mask>
<g mask="url(#mask2)">
<path fill-rule="evenodd" clip-rule="evenodd" d="M11.2714 50.2446C11.2714 50.2446 11.0306 49.5421 10.8438 49.2249C10.6558 48.9078 10.6406 48.5401 10.3821 48.412C10.1237 48.2864 10.0004 48.1019 9.71257 48.2112C9.42595 48.3192 9.13815 48.5894 8.93376 48.385C8.73054 48.1818 8.60954 47.7049 8.36991 47.3818C8.13145 47.0588 7.96347 46.1778 8.16316 45.89C8.36403 45.6022 8.14319 44.9948 8.38283 44.7376C8.62364 44.4803 8.73406 44.1138 8.78105 43.7344C8.82803 43.355 9.19571 42.9426 8.9549 42.5691C8.71526 42.1932 8.83978 41.8126 8.61542 41.6963C8.39223 41.5788 8.21368 41.4966 7.86949 41.3415C7.52414 41.1865 7.31739 41.2346 7.10712 40.9762C6.89686 40.7178 7.07071 40.6144 7.2845 40.4629C7.49947 40.3125 7.51474 39.8156 7.7344 39.3481C7.95642 38.8794 8.01985 38.7055 8.33584 38.2873C8.65301 37.8715 9.043 37.2348 9.043 37.2348C9.043 37.2348 9.30965 36.4912 8.90556 36.3737C8.50265 36.2574 8.48855 36.2621 8.09268 36.3068C7.69682 36.3526 7.6651 36.8506 7.51356 37.1784C7.36321 37.505 7.0989 37.7516 6.98848 38.0195C6.87806 38.2861 6.59496 38.2192 6.55267 37.9819C6.51156 37.7434 6.09807 37.8656 5.87253 37.6189C5.64817 37.3722 5.5495 36.8929 5.68928 36.1787C5.8279 35.4657 5.98765 34.7186 5.99235 34.3121C5.99822 33.908 6.47867 32.7603 6.93914 32.1307C7.39845 31.4999 7.79549 31.2297 7.79196 30.8327C7.78962 30.4356 8.02338 29.6286 8.34641 29.4113C8.66828 29.194 8.88442 29.1387 9.20158 29.0542C9.51875 28.9684 9.72079 28.6007 10.0474 28.6595C10.3739 28.7194 10.3034 29.1528 10.5948 29.3467C10.8873 29.5417 10.9072 29.537 11.1198 30.0339C11.3336 30.5308 11.3959 30.3064 11.4523 30.0033C11.5098 29.6979 11.5674 29.1869 11.8235 29.2715C12.0784 29.3549 12.116 29.6685 12.3826 29.7308C12.6516 29.7919 12.7162 29.4042 12.8983 29.5734C13.0792 29.7425 12.9629 30.4027 13.1826 30.5084C13.4011 30.6142 13.7006 30.2653 13.7711 30.5402C13.8416 30.815 14.0753 31.6573 13.7758 31.9052C13.4763 32.1518 13.1297 32.8062 13.1004 33.0517C13.071 33.2972 12.9054 34.1653 12.9946 34.3391C13.0851 34.5118 13.024 35.2719 13.3012 35.1062C13.5761 34.9418 14.0331 34.4942 14.1329 34.1394C14.2327 33.7859 14.362 33.0822 14.4454 32.7733C14.5276 32.4643 14.826 31.7019 14.8248 31.3589C14.8224 31.0171 14.9928 30.1314 15.3135 30.0292C15.6341 29.927 16.2074 29.2198 16.5187 29.1246C16.8276 29.0295 17.2059 28.7758 17.7356 28.6148C18.2654 28.4551 18.5321 28.1802 18.8211 28.2624C19.11 28.3458 19.2545 28.0604 19.3497 27.8877C19.4448 27.715 19.52 27.8877 19.7491 27.7009C19.9758 27.513 19.9053 27.4131 20.0075 27.1535C20.1085 26.8915 20.421 26.8622 20.3223 26.6178C20.2213 26.3735 20.4022 26.1961 20.7005 26.2079C20.9977 26.2196 21.3513 25.8942 21.4371 25.6792C21.5228 25.4643 21.5545 24.9415 21.8435 25.079C22.1313 25.2164 22.4403 24.9451 22.4403 24.9451C22.4403 24.9451 22.768 24.4 23.0346 24.3283C23.3001 24.2543 23.1274 24.5045 23.5198 24.4987C23.911 24.4928 24.059 24.2203 24.4912 24.1557C24.9235 24.0911 25.1773 24.1874 25.1773 24.1874C25.1773 24.1874 25.4768 24.1874 25.4322 23.8996C25.3875 23.6129 25.3922 23.1149 25.6847 22.9316C25.9772 22.7484 26.2086 22.551 26.8159 22.4829C27.4256 22.4159 27.6441 22.5275 28.0517 22.3584C28.4593 22.188 28.6849 22.1681 29.0302 22.0377C29.3756 21.9073 29.8584 21.771 29.8595 22.013C29.8619 22.255 29.7386 22.3654 29.3486 22.4382C28.9597 22.5123 28.4675 22.7108 28.4875 22.9845C28.5098 23.257 28.3677 23.5096 28.8904 23.2511C29.4132 22.9939 29.6587 22.9222 30.0158 22.8905C30.3717 22.8588 30.6102 22.8423 30.8862 22.8388C31.1623 22.8353 31.5605 22.8106 31.5523 22.5874C31.544 22.3642 30.979 22.2374 30.7253 22.0682C30.4704 21.8967 30.1896 21.5983 30.2249 21.2859C30.2578 20.9746 30.1544 20.8771 30.3893 20.7526C30.6243 20.6269 30.6959 20.4577 30.6936 20.2897C30.69 20.1206 31.0636 20.2568 31.2621 20.0242C31.4595 19.7928 31.5981 19.5132 31.3655 19.4157C31.1329 19.3182 30.3459 19.4451 29.9359 19.4439C29.5259 19.4416 28.8458 19.5414 28.6802 19.6331C28.5157 19.7259 28.4253 19.9549 28.0693 20.0348C27.7146 20.117 27.2001 20.3191 27.4244 20.1546C27.6488 19.989 27.8908 19.8856 28.1433 19.7212C28.3947 19.5555 28.8587 19.4334 29.3204 19.3159C29.7844 19.1973 30.3153 19.229 30.515 19.1162C30.7147 19.0023 30.9332 18.6428 31.3655 18.7168C31.7966 18.7908 32.8585 19.0821 33.4188 19.1973C33.9792 19.3135 34.4526 18.9694 34.9835 18.9059C35.5145 18.8425 36.4378 18.8883 36.7737 18.6557C37.1097 18.4243 37.0392 18.3585 37.2201 18.16C37.4022 17.9603 37.5843 17.4634 37.3987 17.4422C37.2119 17.4223 37.1226 17.1274 36.9793 17.1145C36.836 17.1028 36.2651 17.1274 36.4789 17.0546C36.6938 16.9818 37.4045 16.8878 37.2565 16.728C37.1085 16.5659 36.3614 16.2687 36.278 15.9668C36.1946 15.6638 36.0067 15.2479 36.1453 15.1809C36.2839 15.1152 36.4777 15.2491 36.5341 14.8708C36.5893 14.4914 36.5611 13.8676 36.668 13.6186C36.7761 13.3696 37.2201 12.5473 36.9699 12.6107C36.7209 12.6741 36.2357 13.1992 35.9597 13.3343C35.6836 13.4682 34.9248 13.6386 34.8613 13.4412C34.7979 13.245 34.5418 12.9197 34.7909 12.7059C35.0422 12.4921 35.1879 12.1373 35.4604 11.9458C35.733 11.7567 35.2854 11.7414 35.2184 11.5417C35.1503 11.3409 35.5427 11.1529 35.3148 10.9661C35.0845 10.7805 34.6675 10.8369 34.5594 10.6102C34.4526 10.3835 34.3492 10.2871 34.0661 10.4904C33.7842 10.6936 33.0194 11.7179 32.5249 11.7532C32.0304 11.7908 31.7285 12.001 31.6016 12.1267C31.4736 12.2501 31.6486 12.7305 31.4583 12.9408C31.268 13.1511 30.0381 14.0791 29.7797 14.1131C29.5201 14.1472 28.8575 14.2494 28.6672 14.3998C28.4758 14.5501 28.4135 14.8438 28.1516 15.1069C27.892 15.3689 27.4949 15.9198 27.0979 16.0913C26.702 16.2617 26.3672 16.062 26.4142 15.8176C26.4624 15.5721 26.7208 14.8791 27.0568 14.6723C27.3915 14.4656 27.9965 13.917 27.9718 13.6057C27.9448 13.2932 27.6288 13.4906 27.5196 13.2403C27.4103 12.989 27.1601 12.8245 27.368 12.6154C27.5771 12.4063 27.7122 12.27 27.5748 11.9552C27.4374 11.6392 27.0121 11.611 27.0415 11.4055C27.0685 11.1987 27.4033 11.113 27.6793 10.8416C27.9542 10.5703 27.7486 10.5327 28.1151 10.2249C28.4805 9.91477 29.5447 9.29805 30.0592 9.18998C30.5749 9.0819 31.6145 9.2123 31.833 8.97971C32.0503 8.74712 32.3287 8.71305 32.8374 8.62495C33.346 8.53802 33.3977 8.33597 33.9416 8.28781C34.4878 8.23965 34.4067 8.14684 34.6264 8.05874C34.8449 7.97181 35.1832 7.86844 35.4087 8.05287C35.6331 8.2373 36.3438 8.38648 36.6621 7.98356C36.9828 7.58064 36.7479 7.6382 37.1625 7.45377C37.5784 7.27052 38.2233 6.82413 38.033 6.67494C37.8427 6.52576 37.8121 6.59859 37.4562 6.84058C37.1015 7.08139 36.7491 7.11781 36.4178 7.20238C36.0877 7.28696 35.3289 7.72278 35.5004 7.45495C35.6707 7.18829 36.2522 7.14952 36.4519 6.90988C36.6504 6.67142 36.6645 6.34485 36.9088 6.16395C37.1543 5.98305 38.0377 5.6647 38.0353 5.47205C38.033 5.28175 37.7276 5.25121 37.3611 5.40979C36.9922 5.56955 36.5599 5.78452 36.3755 5.98892C36.1923 6.19332 35.9479 6.3754 35.6178 6.45645C35.2854 6.53633 34.7521 6.78184 34.543 6.7372C34.3316 6.69374 34.2693 6.27085 34.2846 6.11109C34.2998 5.95015 34.3092 5.54606 34.0461 5.4838C33.783 5.42271 33.4834 5.40862 33.5833 5.14548C33.6831 4.88235 33.6608 4.72612 34.0273 4.64976C34.395 4.57106 34.6628 4.43127 34.9906 4.17871C35.3195 3.92614 35.2325 3.74407 35.6484 3.57256C36.0642 3.3987 36.2122 3.22132 35.9421 2.48244C35.6719 1.74355 25.3687 3.54319 25.3687 3.54319L9.63974 19.2525C9.63974 19.2525 9.36486 21.0239 9.32258 21.3352C9.28029 21.6453 8.3241 22.5816 8.18431 22.8717C8.04452 23.163 8.34759 23.1301 8.21368 23.3569C8.07976 23.5859 7.35498 24.2767 7.14589 24.7207C6.9368 25.1659 6.76059 25.4631 6.6255 25.7051C6.48924 25.9471 5.79265 27.2522 5.7257 27.426C5.66109 27.5999 5.0714 28.8979 5.02206 29.0565C4.97155 29.2151 4.49111 30.0785 4.6121 30.1161C4.73309 30.1549 4.86583 29.8941 4.98682 29.7425C5.11016 29.591 5.47432 28.6724 5.56007 28.549C5.64464 28.4269 6.0041 27.4613 6.11217 27.2921C6.21906 27.1218 6.40584 26.6907 6.42933 26.861C6.45048 27.0302 6.13096 27.8231 6.0135 28.0803C5.8972 28.3388 5.32513 29.4054 5.33335 29.7261C5.34158 30.0468 5.23116 30.5801 5.10664 30.8233C4.98212 31.0653 4.82119 31.5457 4.79652 31.608C4.77303 31.669 4.6121 32.5853 4.46644 32.7357C4.32078 32.8872 4.13283 33.6472 4.01184 33.8C3.89202 33.9538 3.7675 34.7256 3.7675 34.7256C3.7675 34.7256 3.74518 35.8287 3.80744 36.0847C3.86853 36.342 3.90494 37.1244 3.90494 37.1244C3.90494 37.1244 4.01066 37.8538 4.06352 38.1005C4.11521 38.3472 4.16689 39.2259 4.38891 39.2705C4.6074 39.3163 5.09372 39.0509 5.17712 39.2447C5.25935 39.4373 5.35332 39.845 5.35332 39.845C5.35332 39.845 5.37682 40.5991 5.40266 40.7941C5.42968 40.9891 5.76916 42.1532 5.76916 42.1532C5.76916 42.1532 6.2872 42.9309 6.41406 43.0143C6.54093 43.0977 6.93092 43.1365 6.96381 43.3832C6.99553 43.6287 6.92035 43.7179 6.94384 44.0151C6.96734 44.3123 7.14589 45.0689 7.18818 45.3966C7.23047 45.7232 7.22342 45.9569 7.10947 46.1836C6.99553 46.4104 6.98613 46.7686 7.17173 46.9343C7.35733 47.0976 7.68624 47.1833 7.7391 47.5698C7.79079 47.9551 7.65688 48.0549 7.77787 48.2488C7.90003 48.4414 7.94115 48.4861 8.19371 48.7257C8.44626 48.9653 8.6671 48.9136 8.67298 49.2285C8.68002 49.5421 8.75285 49.9051 8.99366 49.9814C9.23212 50.0578 9.10408 49.7547 9.2239 49.5351C9.34255 49.3142 9.43417 48.9818 9.67263 48.9865C9.90992 48.9924 10.146 48.9477 10.2412 49.2578C10.3352 49.568 10.4456 50.2622 10.4926 50.6722C10.5395 51.0821 10.9742 51.6589 10.9742 51.6589L11.2714 50.2446Z" fill="#83B84D"/>
</g>
<mask id="mask3" mask-type="alpha" maskUnits="userSpaceOnUse" x="3" y="3" width="94" height="94">
<path fill-rule="evenodd" clip-rule="evenodd" d="M46.8336 3.10925C20.9389 4.86425 1.36162 27.2787 3.10837 53.1773C4.85747 79.0724 27.2681 98.6441 53.1651 96.8903C79.0633 95.1365 98.6394 72.7196 96.8915 46.8245C95.2152 22.0078 74.5678 3 50.0592 3C48.9915 3 47.9155 3.03642 46.8336 3.10925Z" fill="white"/>
</mask>
<g mask="url(#mask3)">
<path fill-rule="evenodd" clip-rule="evenodd" d="M28.3672 91.9877C28.3672 91.9877 27.6377 91.2277 27.6518 90.8318C27.6647 90.4359 27.9138 90.174 27.6048 90.0448C27.2935 89.9132 26.0178 89.4175 26.1752 89.2119C26.3315 89.004 26.5312 88.9053 26.3878 88.5917C26.2469 88.2792 26.0425 88.0901 26.5558 87.6848C27.0715 87.2783 26.7273 87.0622 26.7273 87.0622C26.7273 87.0622 27.5155 87.3218 28.0489 87.1491C28.5798 86.9764 29.0332 86.745 28.702 86.321C28.3707 85.8957 27.875 85.346 28.3014 85.4646C28.729 85.5832 29.7745 86.1459 30.0705 85.8828C30.3677 85.6185 30.8763 84.445 31.264 84.3404C31.6516 84.2359 32.2977 83.2526 32.2977 83.2526C32.7159 82.966 32.7112 82.7405 32.5972 82.3293C32.4821 81.9194 32.3 81.3179 32.636 81.1899C32.9731 81.0607 33.6697 80.7963 34.2477 80.5696C34.8232 80.3453 35.6949 80.014 36.1213 80.0727C36.5465 80.1338 36.9482 80.3688 37.3394 80.2266C37.7294 80.0833 37.9702 79.5159 38.3121 79.2422C38.6551 78.9697 38.6926 78.6983 38.9006 78.024C39.1085 77.3521 38.9276 77.1242 39.3928 77.0021C39.8568 76.8799 39.5044 76.3877 39.6371 75.9989C39.7687 75.6089 39.4738 74.6949 39.6253 74.2239C39.7757 73.7517 39.4268 73.1032 39.8462 73.2007C40.2679 73.2994 40.1974 73.8245 40.5134 73.3816C40.827 72.9376 41.2828 72.1329 42.111 71.6713C42.9403 71.2096 43.4043 70.5518 43.3397 69.612C43.2763 68.6734 43.0354 67.6514 42.1873 67.5516C41.3369 67.4517 40.2761 66.3804 39.6371 65.9857C38.9981 65.5922 37.3735 65.4994 36.9565 65.2492C36.5383 64.9978 35.6843 64.636 35.2602 64.7699C34.835 64.9038 34.6799 64.8134 34.5319 64.2836C34.3827 63.7538 34.0738 63.4719 33.524 63.3344C32.9731 63.1993 32.3846 62.7201 32.0263 62.7682C31.6692 62.8176 31.4824 62.9738 31.3168 63.244C31.1512 63.5141 30.5521 64.0298 30.5028 63.7068C30.4546 63.3838 30.5638 63.3767 30.8199 63.1747C31.076 62.9714 31.5882 62.3747 31.2416 62.2572C30.8951 62.1398 30.4476 62.3594 30.2526 61.9847C30.0576 61.6111 30.1034 61.6346 29.778 61.7145C29.4538 61.7944 29.4385 61.5054 29.7862 61.2399C30.1351 60.9744 30.3501 61.0038 29.7792 60.2473C29.2094 59.4931 29.5008 58.3044 28.9463 58.0929C28.393 57.8791 28.2098 56.9852 27.2007 56.4965C26.1905 56.0078 25.0933 55.982 24.7492 55.9573C24.4038 55.935 24.2675 55.693 24.0432 55.276C23.8188 54.8601 23.6226 54.395 23.1645 53.8417C22.7076 53.2884 21.8935 52.6752 21.5998 52.7057C21.305 52.7351 21.7467 52.6458 21.7866 52.2922C21.8266 51.9375 21.9628 51.7906 21.9182 51.3818C21.8735 50.973 21.6339 50.8121 21.5188 51.067C21.4037 51.3208 21.4577 51.7989 21.2662 51.7331C21.0748 51.6685 20.7482 51.2808 20.7235 50.9366C20.7 50.5936 20.4768 50.6042 19.9482 50.7381C19.4196 50.8732 18.8276 51.4077 18.5739 50.8368C18.3201 50.2647 18.2038 50.0074 17.6764 49.9616C17.1513 49.917 16.853 49.9193 16.6791 49.3731C16.5052 48.8257 16.3349 48.7364 15.9085 48.754C15.4797 48.774 15.1931 48.5543 15.071 48.7717C14.9488 48.989 14.9429 49.3249 14.9476 49.7243C14.9535 50.1273 14.4754 50.6148 14.4049 50.1002C14.3356 49.5834 14.4683 49.3226 14.6657 49.016C14.863 48.7106 14.4777 48.9373 14.5999 48.6213C14.7244 48.3041 15.5185 47.7931 15.1696 47.6075C14.8172 47.4208 14.6774 47.7602 14.3708 47.8742C14.0643 47.9881 13.0634 48.2947 12.637 48.0856C12.2118 47.8765 12.3034 48.317 12.1718 48.6683C12.0415 49.0195 11.4659 49.4659 11.2897 49.6644C11.1135 49.8641 10.5191 50.7134 10.6213 51.3278C10.7235 51.9387 10.5567 53.4881 10.3241 53.8981C10.0891 54.3092 9.70148 54.6663 9.47712 54.8272C9.25276 54.9917 9.62161 55.4005 9.39607 55.4522C9.17053 55.505 8.63017 55.9608 8.53502 56.6339C8.4387 57.3082 8.35177 57.9931 8.5503 58.0389C8.74882 58.0847 9.15173 58.3055 9.02957 58.5769C8.90975 58.8447 8.37644 58.8635 8.32123 59.2453C8.26485 59.6271 8.31888 60.0676 8.46807 60.3425C8.61725 60.6173 8.59024 60.864 8.54677 60.9932C8.50448 61.1248 8.76291 61.4984 9.2598 62.1468C9.75787 62.7929 10.2066 64.5608 10.4016 65.1493C10.5966 65.739 11.8793 67.1393 11.8664 67.5258C11.8535 67.9099 11.5246 67.9111 11.8453 68.4714C12.1648 69.0317 12.1155 68.6922 12.3762 68.9542C12.6358 69.2138 13.0705 70.1348 13.5591 70.385C14.0478 70.6364 15.7323 72.4113 15.9802 72.873C16.228 73.3323 16.981 75.3728 17.0174 75.9319C17.0526 76.4899 17.3322 77.3169 17.4908 77.721C17.6494 78.1274 17.8585 79.3926 17.9501 79.7755C18.0429 80.1585 18.2861 80.5919 18.5351 80.8833C18.7841 81.1746 18.9803 81.4436 19.2035 82.1014C19.4267 82.7581 19.6041 83.6285 19.8954 84.0785C20.1879 84.5272 20.8187 84.8596 20.8539 85.225C20.8868 85.5915 21.0889 86.1741 21.4342 86.3562C21.7807 86.5383 22.0392 86.7826 22.2729 87.0681C22.5055 87.3512 23.161 88.3285 23.5005 88.4918C23.84 88.6563 23.9657 88.9147 24.2147 89.3435C24.4625 89.7734 24.2112 90.2997 24.6094 90.5663C25.0088 90.8342 28.3672 91.9877 28.3672 91.9877Z" fill="#83B84D"/>
</g>
<mask id="mask4" mask-type="alpha" maskUnits="userSpaceOnUse" x="3" y="3" width="94" height="94">
<path fill-rule="evenodd" clip-rule="evenodd" d="M46.8336 3.10925C20.9389 4.86425 1.36162 27.2787 3.10837 53.1773C4.85747 79.0724 27.2681 98.6441 53.1651 96.8903C79.0633 95.1365 98.6394 72.7196 96.8915 46.8245C95.2152 22.0078 74.5678 3 50.0592 3C48.9915 3 47.9155 3.03642 46.8336 3.10925Z" fill="white"/>
</mask>
<g mask="url(#mask4)">
<path fill-rule="evenodd" clip-rule="evenodd" d="M34.9172 5.25498C35.0405 5.29022 34.8925 5.6579 35.1274 5.57332C35.3636 5.48875 35.5421 5.47935 35.4188 5.61209C35.2931 5.74483 35.1545 5.99034 35.1545 5.99034C35.1545 5.99034 35.5245 6.25817 35.9756 5.89049C36.4266 5.52281 36.019 5.73191 35.8487 5.64616C35.676 5.56275 35.6349 5.44881 35.8957 5.3889C36.1576 5.32899 36.3385 4.8685 36.5829 4.82504C36.826 4.78275 37.0598 4.65941 37.3817 4.55486C37.7035 4.45031 38.0254 4.25179 38.2885 4.26353C38.5505 4.27528 39.0908 4.08498 38.8723 4.04856C38.6538 4.01215 37.9067 4.21655 37.8656 4.06618C37.8269 3.917 37.6742 3.80892 38.0454 3.73609C38.4166 3.66444 38.5058 3.53874 38.7537 3.41892C39.0004 3.29793 39.4021 2.97371 39.2917 2.88444C39.1801 2.79516 39.0662 2.87739 38.7795 2.9373C38.4941 2.99838 37.9995 3.09823 37.7247 3.13817C37.4486 3.17811 37.0234 3.16871 36.9506 3.34609C36.8789 3.52465 37.1702 3.48236 37.1021 3.59513C37.0328 3.70908 36.7379 3.96751 36.5147 3.97456C36.2916 3.98278 36.066 3.93697 36.0179 4.14489C35.9697 4.35164 36.1201 4.58188 35.9403 4.57483C35.7606 4.56896 35.669 4.4139 35.5997 4.27176C35.5292 4.13079 35.4681 4.04974 35.2661 4.23652C35.0652 4.42447 35.0041 4.65001 34.7492 4.71462C34.4966 4.77805 34.1055 4.78628 34.324 4.92137C34.5425 5.05646 35.0065 4.83444 34.8725 5.01887C34.7398 5.20212 34.7093 5.1939 34.9172 5.25498Z" fill="#83B84D"/>
</g>
<mask id="mask5" mask-type="alpha" maskUnits="userSpaceOnUse" x="3" y="3" width="94" height="94">
<path fill-rule="evenodd" clip-rule="evenodd" d="M46.8336 3.10925C20.9389 4.86425 1.36162 27.2787 3.10837 53.1773C4.85747 79.0724 27.2681 98.6441 53.1651 96.8903C79.0633 95.1365 98.6394 72.7196 96.8915 46.8245C95.2152 22.0078 74.5678 3 50.0592 3C48.9915 3 47.9155 3.03642 46.8336 3.10925Z" fill="white"/>
</mask>
<g mask="url(#mask5)">
<path fill-rule="evenodd" clip-rule="evenodd" d="M48.9576 3.24965C48.6416 3.13923 48.1812 2.98886 47.9004 3.07814C47.6197 3.16742 46.5918 3.15215 46.3639 3.17564C46.1372 3.19796 45.5193 3.0617 45.1423 3.1451C44.7628 3.2285 44.5761 3.37769 44.3317 3.42938C44.0851 3.48106 43.2957 3.32483 43.3802 3.15567C43.466 2.98769 42.9139 2.73865 42.6284 2.73513C42.3442 2.73043 40.8629 2.92661 40.8629 2.92661C40.8629 2.92661 40.2321 3.09341 39.9431 3.1451C39.6541 3.19679 39.7094 3.54685 39.7094 3.54685C39.7094 3.54685 40.2145 3.74067 40.4729 3.52688C40.7325 3.31426 41.2693 3.21323 41.6899 3.23908C42.1092 3.26844 42.9609 3.14275 43.0243 3.47754C43.0901 3.81233 43.3004 3.88634 43.0372 4.01908C42.7753 4.15299 42.7847 4.47369 42.7847 4.47369C42.7847 4.47369 43.7667 4.87543 44.051 4.68161C44.3364 4.48778 45.127 3.82643 45.7766 4.06841C46.425 4.3104 47.1886 4.07546 47.1886 4.07546C47.1886 4.07546 47.6808 3.70426 48.2293 3.75242C48.7767 3.79941 49.7917 3.53862 48.9576 3.24965Z" fill="#83B84D"/>
</g>
<mask id="mask6" mask-type="alpha" maskUnits="userSpaceOnUse" x="3" y="3" width="94" height="94">
<path fill-rule="evenodd" clip-rule="evenodd" d="M46.8336 3.10925C20.9389 4.86425 1.36162 27.2787 3.10837 53.1773C4.85747 79.0724 27.2681 98.6441 53.1651 96.8903C79.0633 95.1365 98.6394 72.7196 96.8915 46.8245C95.2152 22.0078 74.5678 3 50.0592 3C48.9915 3 47.9155 3.03642 46.8336 3.10925Z" fill="white"/>
</mask>
<g mask="url(#mask6)">
<path fill-rule="evenodd" clip-rule="evenodd" d="M38.3118 4.5035C38.1415 4.57046 37.6493 4.77251 37.6857 4.95341C37.7233 5.13314 37.7855 5.24591 38.0451 5.09555C38.3059 4.94402 38.4633 5.02037 38.5773 5.11905C38.69 5.21772 38.9309 5.10143 39.1341 5.08498C39.3373 5.06736 39.544 5.16369 39.544 5.16369C39.544 5.16369 39.9728 5.00393 40.1525 4.94167C40.3346 4.87823 40.344 4.6198 40.1126 4.62332C39.88 4.62567 39.2668 4.92405 39.2269 4.75841C39.1869 4.59043 39.275 4.75959 39.4947 4.58103C39.7132 4.40365 39.5241 4.36489 39.2515 4.37899C38.979 4.39191 38.5644 4.40483 38.3118 4.5035Z" fill="#83B84D"/>
</g>
<mask id="mask7" mask-type="alpha" maskUnits="userSpaceOnUse" x="3" y="3" width="94" height="94">
<path fill-rule="evenodd" clip-rule="evenodd" d="M46.8336 3.10925C20.9389 4.86425 1.36162 27.2787 3.10837 53.1773C4.85747 79.0724 27.2681 98.6441 53.1651 96.8903C79.0633 95.1365 98.6394 72.7196 96.8915 46.8245C95.2152 22.0078 74.5678 3 50.0592 3C48.9915 3 47.9155 3.03642 46.8336 3.10925Z" fill="white"/>
</mask>
<g mask="url(#mask7)">
<path fill-rule="evenodd" clip-rule="evenodd" d="M40.793 4.69166C40.9622 4.936 41.1078 4.96419 41.4215 5.10633C41.7351 5.24729 42.0358 5.3166 42.3342 5.21793C42.6326 5.11925 42.8605 4.88431 42.7101 4.83263C42.5597 4.77976 42.091 4.76449 42.0734 4.63058C42.0546 4.49784 42.0311 4.28169 42.2179 4.22883C42.4059 4.17714 42.7195 3.91753 42.5069 3.88464C42.2954 3.85293 42.0206 3.90109 41.8432 4.06907C41.6646 4.23705 41.4779 4.44497 41.2535 4.43205C41.028 4.42031 40.7543 4.40269 40.7719 4.52603C40.7895 4.64937 40.6227 4.44732 40.793 4.69166Z" fill="#83B84D"/>
</g>
<mask id="mask8" mask-type="alpha" maskUnits="userSpaceOnUse" x="3" y="3" width="94" height="94">
<path fill-rule="evenodd" clip-rule="evenodd" d="M3.10837 53.1773C4.85747 79.0724 27.2681 98.6441 53.1651 96.8903C79.0633 95.1365 98.6394 72.7196 96.8915 46.8245C95.2152 22.0078 74.5678 3 50.0592 3C48.9915 3 47.9155 3.03642 46.8336 3.10925C20.9389 4.86425 1.36162 27.2787 3.10837 53.1773Z" fill="white"/>
</mask>
<g mask="url(#mask8)">
<path fill-rule="evenodd" clip-rule="evenodd" d="M13.7894 43.7289C12.8391 30.1951 17.8573 17.6 26.6768 8.32455C9.61458 16.7601 -1.50966 34.3794 -0.136456 53.9652C1.70662 80.2315 25.3283 100.082 52.6232 98.3031C65.8572 97.4397 77.5242 91.6531 85.8233 82.9251C80.0027 85.8019 73.4915 87.6133 66.5479 88.0656C39.253 89.8464 15.6313 69.994 13.7894 43.7289Z" fill="black" fill-opacity="0.08"/>
</g>
<mask id="mask9" mask-type="alpha" maskUnits="userSpaceOnUse" x="3" y="3" width="94" height="94">
<path fill-rule="evenodd" clip-rule="evenodd" d="M46.8336 3.10925C20.9389 4.86425 1.36162 27.2787 3.10837 53.1773C4.85747 79.0724 27.2681 98.6441 53.1651 96.8903C79.0633 95.1365 98.6394 72.7196 96.8915 46.8245C95.2152 22.0078 74.5678 3 50.0592 3C48.9915 3 47.9155 3.03642 46.8336 3.10925Z" fill="white"/>
</mask>
<g mask="url(#mask9)">
<path fill-rule="evenodd" clip-rule="evenodd" d="M82.9738 21.6926C83.1582 22.0086 83.5541 22.4315 83.3978 22.5678C83.2428 22.7041 83.1782 22.892 83.3133 23.0576C83.4484 23.2256 83.6997 23.4159 83.688 23.7601C83.6774 24.1031 83.8407 24.6223 83.8407 24.6223C83.8407 24.6223 84.502 25.1651 84.7992 25.2038C85.0953 25.2426 85.7249 24.9148 85.7249 24.9148L86.3439 24.0691C86.3439 24.0691 87.4247 24.0655 87.7782 24.0585C88.1318 24.0526 88.5124 23.9199 88.4807 23.5757C88.4502 23.228 88.1377 22.5349 87.7583 22.3646C87.3788 22.1954 85.4312 21.5517 85.4312 21.5517C85.4312 21.5517 84.9895 21.8324 84.9837 22.1167C84.9766 22.401 84.7699 22.3599 84.5866 22.1108C84.4022 21.8641 84.1285 21.9064 84.0897 21.6656C84.0498 21.4236 84.2142 21.0888 83.8724 21.2439C83.5306 21.399 83.3908 21.0712 83.1418 21.1441C82.8916 21.2192 82.9362 21.3261 82.9479 21.4471C82.9573 21.5693 82.7917 21.3778 82.9738 21.6926Z" fill="#83B84D"/>
</g>
<mask id="mask10" mask-type="alpha" maskUnits="userSpaceOnUse" x="3" y="3" width="94" height="94">
<path fill-rule="evenodd" clip-rule="evenodd" d="M46.8336 3.10925C20.9389 4.86425 1.36162 27.2787 3.10837 53.1773C4.85747 79.0724 27.2681 98.6441 53.1651 96.8903C79.0633 95.1365 98.6394 72.7196 96.8915 46.8245C95.2152 22.0078 74.5678 3 50.0592 3C48.9915 3 47.9155 3.03642 46.8336 3.10925Z" fill="white"/>
</mask>
<g mask="url(#mask10)">
<path fill-rule="evenodd" clip-rule="evenodd" d="M31.771 22.0598C31.6488 22.2125 31.6136 22.4051 31.8074 22.4779C32.0024 22.5508 32.0846 22.3887 32.2843 22.3393C32.484 22.2888 32.3372 22.1455 32.4053 21.9869C32.4735 21.8272 32.7942 21.5758 32.6226 21.5558C32.4488 21.5358 32.3924 21.631 32.1575 21.7285C31.9249 21.8272 31.8932 21.9059 31.771 22.0598Z" fill="#83B84D"/>
</g>
<mask id="mask11" mask-type="alpha" maskUnits="userSpaceOnUse" x="3" y="3" width="94" height="94">
<path fill-rule="evenodd" clip-rule="evenodd" d="M46.8336 3.10925C20.9389 4.86425 1.36162 27.2787 3.10837 53.1773C4.85747 79.0724 27.2681 98.6441 53.1651 96.8903C79.0633 95.1365 98.6394 72.7196 96.8915 46.8245C95.2152 22.0078 74.5678 3 50.0592 3C48.9915 3 47.9155 3.03642 46.8336 3.10925Z" fill="white"/>
</mask>
<g mask="url(#mask11)">
<path fill-rule="evenodd" clip-rule="evenodd" d="M34.6052 20.152C34.3984 20.3376 34.3632 20.5808 34.1753 20.6501C33.9873 20.7194 33.7101 20.7417 33.6807 20.979C33.6513 21.2151 34.0402 21.147 34.2634 21.2633C34.4854 21.3796 35.1679 21.5053 35.2759 21.6263C35.384 21.7461 35.4251 21.8036 35.3429 21.8964C35.2607 21.9904 35.0398 22.1149 35.2113 22.1349C35.3805 22.1549 35.4744 21.9622 35.6835 21.8777C35.8938 21.7942 35.9913 21.7426 36.1264 21.7426C36.2615 21.7437 36.2685 21.8483 36.1041 22.0092C35.9408 22.1702 35.9091 22.2359 36.0606 22.3405C36.2121 22.4439 36.3637 22.5754 36.6021 22.3276C36.8406 22.0785 37.0638 21.8765 36.9193 21.7214C36.776 21.5652 36.4894 21.4994 36.6456 21.4477C36.8007 21.3937 37.0873 21.2833 36.9534 21.1998C36.8195 21.1153 36.4999 21.0648 36.635 20.9755C36.7689 20.8874 37.1683 20.5972 37.0274 20.5256C36.8852 20.4551 36.6444 20.4997 36.4823 20.5103C36.3179 20.5197 35.7998 20.4586 35.8809 20.3071C35.9631 20.1555 36.1793 20.0005 36.1793 20.0005C36.1793 20.0005 35.8903 19.9206 35.6929 19.9758C35.4944 20.031 35.7258 19.7714 35.9666 19.6445C36.2074 19.5189 36.8277 19.2087 36.6855 19.0642C36.5422 18.9198 36.3837 18.8364 36.1393 19.0255C35.895 19.2146 35.3934 19.6187 35.2148 19.7115C35.0339 19.8043 34.8119 19.9664 34.6052 20.152Z" fill="#83B84D"/>
</g>
<mask id="mask12" mask-type="alpha" maskUnits="userSpaceOnUse" x="3" y="3" width="94" height="94">
<path fill-rule="evenodd" clip-rule="evenodd" d="M46.8336 3.10925C20.9389 4.86425 1.36162 27.2787 3.10837 53.1773C4.85747 79.0724 27.2681 98.6441 53.1651 96.8903C79.0633 95.1365 98.6394 72.7196 96.8915 46.8245C95.2152 22.0078 74.5678 3 50.0592 3C48.9915 3 47.9155 3.03642 46.8336 3.10925Z" fill="white"/>
</mask>
<g mask="url(#mask12)">
<path fill-rule="evenodd" clip-rule="evenodd" d="M34.2815 8.47267C34.0794 8.53845 33.9514 8.57604 33.6765 8.70526C33.4028 8.83565 32.9153 8.86267 32.9564 9.01655C32.9964 9.17161 32.8789 9.55339 33.0997 9.44414C33.3206 9.33607 33.4369 9.19746 33.6272 9.18688C33.8175 9.17749 33.8457 9.14107 33.9772 9.39716C34.11 9.65324 34.1851 9.61095 34.3954 9.32785C34.6057 9.04357 34.8277 8.80276 34.6644 8.65592C34.5023 8.50791 34.4271 8.42568 34.2815 8.47267Z" fill="#83B84D"/>
</g>
<mask id="mask13" mask-type="alpha" maskUnits="userSpaceOnUse" x="3" y="3" width="94" height="94">
<path fill-rule="evenodd" clip-rule="evenodd" d="M46.8336 3.10925C20.9389 4.86425 1.36162 27.2787 3.10837 53.1773C4.85747 79.0724 27.2681 98.6441 53.1651 96.8903C79.0633 95.1365 98.6394 72.7196 96.8915 46.8245C95.2152 22.0078 74.5678 3 50.0592 3C48.9915 3 47.9155 3.03642 46.8336 3.10925Z" fill="white"/>
</mask>
<g mask="url(#mask13)">
<path fill-rule="evenodd" clip-rule="evenodd" d="M31.9533 19.3089C32.0473 19.4592 32.1871 19.6061 32.3128 19.7435C32.4385 19.8821 32.7909 19.8539 32.8026 19.7153C32.812 19.5779 32.671 19.3723 32.5501 19.3347C32.4279 19.2971 32.2352 19.1503 32.1366 19.1714C32.0391 19.1914 31.884 19.1996 31.9533 19.3089Z" fill="#83B84D"/>
</g>
<mask id="mask14" mask-type="alpha" maskUnits="userSpaceOnUse" x="3" y="3" width="94" height="94">
<path fill-rule="evenodd" clip-rule="evenodd" d="M46.8336 3.10925C20.9389 4.86425 1.36162 27.2787 3.10837 53.1773C4.85747 79.0724 27.2681 98.6441 53.1651 96.8903C79.0633 95.1365 98.6394 72.7196 96.8915 46.8245C95.2152 22.0078 74.5678 3 50.0592 3C48.9915 3 47.9155 3.03642 46.8336 3.10925Z" fill="white"/>
</mask>
<g mask="url(#mask14)">
<path fill-rule="evenodd" clip-rule="evenodd" d="M30.5399 21.2028C30.5117 21.4025 30.7337 21.6457 30.8288 21.7161C30.9228 21.7878 31.3457 21.8007 31.3504 21.7067C31.3563 21.6139 31.1331 21.6586 31.0156 21.5517C30.8993 21.4448 30.5716 20.9867 30.5399 21.2028Z" fill="#83B84D"/>
</g>
<mask id="mask15" mask-type="alpha" maskUnits="userSpaceOnUse" x="3" y="3" width="94" height="94">
<path fill-rule="evenodd" clip-rule="evenodd" d="M46.8336 3.10925C20.9389 4.86425 1.36162 27.2787 3.10837 53.1773C4.85747 79.0724 27.2681 98.6441 53.1651 96.8903C79.0633 95.1365 98.6394 72.7196 96.8915 46.8245C95.2152 22.0078 74.5678 3 50.0592 3C48.9915 3 47.9155 3.03642 46.8336 3.10925Z" fill="white"/>
</mask>
<g mask="url(#mask15)">
<path fill-rule="evenodd" clip-rule="evenodd" d="M89.1213 29.0333C88.9686 29.0885 88.8547 29.1684 89.0074 29.3763C89.1589 29.5843 89.3915 29.8873 89.4432 29.5467C89.4937 29.2072 89.6593 29.0803 89.4808 29.0087C89.3022 28.9358 89.2212 28.9981 89.1213 29.0333Z" fill="#83B84D"/>
</g>
<mask id="mask16" mask-type="alpha" maskUnits="userSpaceOnUse" x="3" y="3" width="94" height="94">
<path fill-rule="evenodd" clip-rule="evenodd" d="M46.8336 3.10925C20.9389 4.86425 1.36162 27.2787 3.10837 53.1773C4.85747 79.0724 27.2681 98.6441 53.1651 96.8903C79.0633 95.1365 98.6394 72.7196 96.8915 46.8245C95.2152 22.0078 74.5678 3 50.0592 3C48.9915 3 47.9155 3.03642 46.8336 3.10925Z" fill="white"/>
</mask>
<g mask="url(#mask16)">
<path fill-rule="evenodd" clip-rule="evenodd" d="M38.3085 7.89804C38.0748 7.9791 37.6472 7.86045 37.6613 8.12946C37.6766 8.39847 37.612 8.49831 37.9761 8.40434C38.3391 8.31036 38.52 8.25868 38.6621 8.27865C38.8031 8.29862 38.9123 8.20816 38.7338 8.07072C38.5576 7.93328 38.5693 7.80759 38.3085 7.89804Z" fill="#83B84D"/>
</g>
<mask id="mask17" mask-type="alpha" maskUnits="userSpaceOnUse" x="3" y="3" width="94" height="94">
<path fill-rule="evenodd" clip-rule="evenodd" d="M46.8336 3.10925C20.9389 4.86425 1.36162 27.2787 3.10837 53.1773C4.85747 79.0724 27.2681 98.6441 53.1651 96.8903C79.0633 95.1365 98.6394 72.7196 96.8915 46.8245C95.2152 22.0078 74.5678 3 50.0592 3C48.9915 3 47.9155 3.03642 46.8336 3.10925Z" fill="white"/>
</mask>
<g mask="url(#mask17)">
<path fill-rule="evenodd" clip-rule="evenodd" d="M55.4526 11.6056C55.1624 11.6514 54.9792 11.5351 54.9157 11.4482C54.8523 11.3625 54.4341 11.5058 54.4341 11.5058C54.4341 11.5058 54.4247 11.9287 54.5598 11.9381C54.6961 11.9475 54.6209 12.2975 55.0367 12.5336C55.4514 12.7697 55.5418 13.1351 56.2055 13.0282C56.868 12.9225 57.231 12.6123 57.231 12.6123C57.231 12.6123 58.1708 12.4878 58.0427 12.1448C57.9147 11.8018 57.6563 11.6162 57.3743 11.3965C57.0924 11.178 57.1594 11.0171 56.8469 11.2097C56.5321 11.4024 56.2325 11.3977 55.9095 11.4588C55.5853 11.5187 55.7415 11.561 55.4526 11.6056Z" fill="#83B84D"/>
</g>
<mask id="mask18" mask-type="alpha" maskUnits="userSpaceOnUse" x="3" y="3" width="94" height="94">
<path fill-rule="evenodd" clip-rule="evenodd" d="M46.8336 3.10925C20.9389 4.86425 1.36162 27.2787 3.10837 53.1773C4.85747 79.0724 27.2681 98.6441 53.1651 96.8903C79.0633 95.1365 98.6394 72.7196 96.8915 46.8245C95.2152 22.0078 74.5678 3 50.0592 3C48.9915 3 47.9155 3.03642 46.8336 3.10925Z" fill="white"/>
</mask>
<g mask="url(#mask18)">
<path fill-rule="evenodd" clip-rule="evenodd" d="M75.4646 27.8829C75.5597 28.0086 75.8005 28.1402 75.8346 28.3457C75.8698 28.5489 75.9086 28.9354 76.1059 29.0505C76.3033 29.1657 76.5735 28.966 76.5735 28.966C76.5735 28.966 76.6205 28.6535 76.5652 28.3727C76.51 28.0908 76.4102 27.6656 76.2892 27.601C76.1694 27.534 75.9556 27.2638 75.8604 27.4295C75.7653 27.5974 75.7817 27.6609 75.6255 27.7067C75.4693 27.7537 75.3706 27.7584 75.4646 27.8829Z" fill="#83B84D"/>
</g>
<mask id="mask19" mask-type="alpha" maskUnits="userSpaceOnUse" x="3" y="3" width="94" height="94">
<path fill-rule="evenodd" clip-rule="evenodd" d="M46.8336 3.10925C20.9389 4.86425 1.36162 27.2787 3.10837 53.1773C4.85747 79.0724 27.2681 98.6441 53.1651 96.8903C79.0633 95.1365 98.6394 72.7196 96.8915 46.8245C95.2152 22.0078 74.5678 3 50.0592 3C48.9915 3 47.9155 3.03642 46.8336 3.10925Z" fill="white"/>
</mask>
<g mask="url(#mask19)">
<path fill-rule="evenodd" clip-rule="evenodd" d="M75.1966 26.4041C75.1637 26.6649 75.4867 26.9281 75.4867 26.9281C75.4867 26.9281 75.926 27.331 75.7534 26.8165C75.5795 26.3008 75.6688 26.134 75.4914 26.1716C75.314 26.208 75.2071 26.3207 75.1966 26.4041Z" fill="#83B84D"/>
</g>
<mask id="mask20" mask-type="alpha" maskUnits="userSpaceOnUse" x="3" y="3" width="94" height="94">
<path fill-rule="evenodd" clip-rule="evenodd" d="M46.8336 3.10925C20.9389 4.86425 1.36162 27.2787 3.10837 53.1773C4.85747 79.0724 27.2681 98.6441 53.1651 96.8903C79.0633 95.1365 98.6394 72.7196 96.8915 46.8245C95.2152 22.0078 74.5678 3 50.0592 3C48.9915 3 47.9155 3.03642 46.8336 3.10925Z" fill="white"/>
</mask>
<g mask="url(#mask20)">
<path fill-rule="evenodd" clip-rule="evenodd" d="M79.7618 29.4579C79.5104 29.5014 78.8655 29.4544 78.8115 29.5625C78.7586 29.6694 78.5883 29.9478 78.9383 29.9807C79.2896 30.0147 79.4211 30.1122 79.6713 30.2203C79.9204 30.3296 80.3033 30.6878 80.4255 30.5281C80.5488 30.3683 80.5618 30.2097 80.3809 29.9114C80.2 29.6118 80.2035 29.4685 80.0132 29.4485C79.8217 29.4297 80.0155 29.4156 79.7618 29.4579Z" fill="#83B84D"/>
</g>
<mask id="mask21" mask-type="alpha" maskUnits="userSpaceOnUse" x="3" y="3" width="94" height="94">
<path fill-rule="evenodd" clip-rule="evenodd" d="M46.8336 3.10925C20.9389 4.86425 1.36162 27.2787 3.10837 53.1773C4.85747 79.0724 27.2681 98.6441 53.1651 96.8903C79.0633 95.1365 98.6394 72.7196 96.8915 46.8245C95.2152 22.0078 74.5678 3 50.0592 3C48.9915 3 47.9155 3.03642 46.8336 3.10925Z" fill="white"/>
</mask>
<g mask="url(#mask21)">
<path fill-rule="evenodd" clip-rule="evenodd" d="M72.6862 28.921C72.5406 28.9233 72.3679 28.9515 72.4572 29.1007C72.5465 29.2499 72.6287 29.4778 72.7931 29.412C72.9552 29.3462 73.0657 29.2851 72.9329 29.1242C72.8002 28.9644 72.7967 28.9186 72.6862 28.921Z" fill="#83B84D"/>
</g>
<mask id="mask22" mask-type="alpha" maskUnits="userSpaceOnUse" x="3" y="3" width="94" height="94">
<path fill-rule="evenodd" clip-rule="evenodd" d="M46.8336 3.10925C20.9389 4.86425 1.36162 27.2787 3.10837 53.1773C4.85747 79.0724 27.2681 98.6441 53.1651 96.8903C79.0633 95.1365 98.6394 72.7196 96.8915 46.8245C95.2152 22.0078 74.5678 3 50.0592 3C48.9915 3 47.9155 3.03642 46.8336 3.10925Z" fill="white"/>
</mask>
<g mask="url(#mask22)">
<path fill-rule="evenodd" clip-rule="evenodd" d="M73.158 28.8889C73.2801 28.9394 73.4775 28.8513 73.353 28.7444C73.2296 28.6363 73.219 28.4319 73.1697 28.5776C73.1204 28.7221 73.0358 28.8395 73.158 28.8889Z" fill="#83B84D"/>
</g>
<mask id="mask23" mask-type="alpha" maskUnits="userSpaceOnUse" x="3" y="3" width="94" height="94">
<path fill-rule="evenodd" clip-rule="evenodd" d="M46.8336 3.10925C20.9389 4.86425 1.36162 27.2787 3.10837 53.1773C4.85747 79.0724 27.2681 98.6441 53.1651 96.8903C79.0633 95.1365 98.6394 72.7196 96.8915 46.8245C95.2152 22.0078 74.5678 3 50.0592 3C48.9915 3 47.9155 3.03642 46.8336 3.10925Z" fill="white"/>
</mask>
<g mask="url(#mask23)">
<path fill-rule="evenodd" clip-rule="evenodd" d="M72.1171 29.7263C71.9315 29.6794 71.7225 29.502 71.8517 29.6993C71.9832 29.8978 72.089 30.0365 72.1512 29.9284C72.2146 29.8191 72.1771 29.7416 72.1171 29.7263Z" fill="#83B84D"/>
</g>
<mask id="mask24" mask-type="alpha" maskUnits="userSpaceOnUse" x="3" y="3" width="94" height="94">
<path fill-rule="evenodd" clip-rule="evenodd" d="M46.8336 3.10925C20.9389 4.86425 1.36162 27.2787 3.10837 53.1773C4.85747 79.0724 27.2681 98.6441 53.1651 96.8903C79.0633 95.1365 98.6394 72.7196 96.8915 46.8245C95.2152 22.0078 74.5678 3 50.0592 3C48.9915 3 47.9155 3.03642 46.8336 3.10925Z" fill="white"/>
</mask>
<g mask="url(#mask24)">
<path fill-rule="evenodd" clip-rule="evenodd" d="M84.496 20.3276C84.422 20.4967 84.3374 20.5695 84.4561 20.8632C84.5735 21.1581 84.8296 21.6256 85.0399 21.4611C85.2513 21.2932 85.4487 21.4717 85.4593 21.1651C85.4722 20.8585 85.3512 20.7316 85.1867 20.5002C85.0234 20.2688 85.2196 19.7919 84.9624 19.8013C84.7051 19.8095 84.7685 20.0409 84.6804 20.1149C84.5923 20.1889 84.5712 20.1596 84.496 20.3276Z" fill="#83B84D"/>
</g>
<mask id="mask25" mask-type="alpha" maskUnits="userSpaceOnUse" x="3" y="3" width="94" height="94">
<path fill-rule="evenodd" clip-rule="evenodd" d="M46.8336 3.10925C20.9389 4.86425 1.36162 27.2787 3.10837 53.1773C4.85747 79.0724 27.2681 98.6441 53.1651 96.8903C79.0633 95.1365 98.6394 72.7196 96.8915 46.8245C95.2152 22.0078 74.5678 3 50.0592 3C48.9915 3 47.9155 3.03642 46.8336 3.10925Z" fill="white"/>
</mask>
<g mask="url(#mask25)">
<path fill-rule="evenodd" clip-rule="evenodd" d="M85.1226 30.41C85.3187 30.5557 85.4903 30.5733 85.6524 30.578C85.8133 30.5815 85.9672 30.773 86.0764 30.6919C86.1868 30.6109 86.3877 30.5933 86.4523 30.4535C86.5169 30.3137 86.5381 30.2831 86.1998 30.2808C85.8591 30.2796 85.7557 30.3008 85.4914 30.2291C85.2283 30.1563 85.1778 30.2138 85.1437 30.2702C85.1085 30.3266 84.9264 30.2632 85.1226 30.41Z" fill="#83B84D"/>
</g>
<mask id="mask26" mask-type="alpha" maskUnits="userSpaceOnUse" x="3" y="3" width="94" height="94">
<path fill-rule="evenodd" clip-rule="evenodd" d="M46.8336 3.10925C20.9389 4.86425 1.36162 27.2787 3.10837 53.1773C4.85747 79.0724 27.2681 98.6441 53.1651 96.8903C79.0633 95.1365 98.6394 72.7196 96.8915 46.8245C95.2152 22.0078 74.5678 3 50.0592 3C48.9915 3 47.9155 3.03642 46.8336 3.10925Z" fill="white"/>
</mask>
<g mask="url(#mask26)">
<path fill-rule="evenodd" clip-rule="evenodd" d="M18.8459 43.7022C18.9868 43.8561 19.2711 43.8725 19.5119 43.9218C19.7516 43.9712 20.225 43.8584 19.9195 43.5941C19.6153 43.3298 19.4133 43.2253 19.1901 43.237C18.9669 43.2487 18.712 43.5565 18.8459 43.7022Z" fill="#83B84D"/>
</g>
<mask id="mask27" mask-type="alpha" maskUnits="userSpaceOnUse" x="3" y="3" width="94" height="94">
<path fill-rule="evenodd" clip-rule="evenodd" d="M46.8336 3.10925C20.9389 4.86425 1.36162 27.2787 3.10837 53.1773C4.85747 79.0724 27.2681 98.6441 53.1651 96.8903C79.0633 95.1365 98.6394 72.7196 96.8915 46.8245C95.2152 22.0078 74.5678 3 50.0592 3C48.9915 3 47.9155 3.03642 46.8336 3.10925Z" fill="white"/>
</mask>
<g mask="url(#mask27)">
<path fill-rule="evenodd" clip-rule="evenodd" d="M18.177 43.0117C18.2263 42.7345 18.0936 42.3997 17.868 42.3468C17.6437 42.294 17.6531 42.0085 17.498 41.7489C17.3429 41.4881 16.6182 41.3542 16.3057 41.1968C15.9956 41.0382 15.9075 40.6823 15.7101 40.8021C15.5128 40.9231 15.5104 41.1075 15.6831 41.225C15.8546 41.3425 15.9122 41.4212 15.7806 41.5269C15.649 41.6326 15.5351 41.8323 15.6808 41.8687C15.8241 41.9051 16.0437 42.1718 15.8288 42.1882C15.6138 42.2035 14.9254 41.6878 14.7598 41.6831C14.593 41.6784 14.3839 41.8347 14.5495 42.0414C14.7163 42.2481 15.0464 42.4373 15.3695 42.4713C15.6937 42.5054 15.9885 42.4596 16.0061 42.6934C16.0238 42.9259 16.0414 43.3136 16.1824 43.202C16.3233 43.0892 16.3233 42.597 16.6041 42.6569C16.8848 42.7157 16.9424 42.9295 17.4322 42.9882C17.9221 43.0481 18.1499 43.1621 18.177 43.0117Z" fill="#83B84D"/>
</g>
<mask id="mask28" mask-type="alpha" maskUnits="userSpaceOnUse" x="3" y="3" width="94" height="94">
<path fill-rule="evenodd" clip-rule="evenodd" d="M46.8336 3.10925C20.9389 4.86425 1.36162 27.2787 3.10837 53.1773C4.85747 79.0724 27.2681 98.6441 53.1651 96.8903C79.0633 95.1365 98.6394 72.7196 96.8915 46.8245C95.2152 22.0078 74.5678 3 50.0592 3C48.9915 3 47.9155 3.03642 46.8336 3.10925Z" fill="white"/>
</mask>
<g mask="url(#mask28)">
<path fill-rule="evenodd" clip-rule="evenodd" d="M12.3817 41.2348C12.4498 41.4732 12.5344 41.6858 12.666 41.7739C12.7987 41.862 13.2275 42.0958 13.3532 41.9537C13.4789 41.8127 13.4471 41.734 13.2122 41.4497C12.9784 41.1643 12.9197 40.981 12.6953 41.0257C12.4698 41.0703 12.3136 40.9951 12.3817 41.2348Z" fill="#83B84D"/>
</g>
<mask id="mask29" mask-type="alpha" maskUnits="userSpaceOnUse" x="3" y="3" width="94" height="94">
<path fill-rule="evenodd" clip-rule="evenodd" d="M46.8336 3.10925C20.9389 4.86425 1.36162 27.2787 3.10837 53.1773C4.85747 79.0724 27.2681 98.6441 53.1651 96.8903C79.0633 95.1365 98.6394 72.7196 96.8915 46.8245C95.2152 22.0078 74.5678 3 50.0592 3C48.9915 3 47.9155 3.03642 46.8336 3.10925Z" fill="white"/>
</mask>
<g mask="url(#mask29)">
<path fill-rule="evenodd" clip-rule="evenodd" d="M11.6289 36.6494C11.8368 36.7305 12.0048 36.8949 11.9061 36.9866C11.8074 37.077 11.6865 37.1146 11.8462 37.2626C12.0036 37.4118 12.3772 37.9627 12.625 38.0755C12.8717 38.1906 13.1677 38.2071 13.1525 38.3751C13.1372 38.543 12.907 38.6723 13.1184 38.9272C13.3298 39.1821 13.7551 39.2996 13.6611 39.4417C13.5683 39.5827 13.2922 39.6155 13.3169 39.8399C13.3392 40.0643 13.7786 40.2546 13.9571 40.2663C14.1368 40.2793 14.3224 40.5412 14.5809 40.4919C14.8381 40.4449 15.1518 40.4402 14.9051 39.9961C14.6608 39.5521 14.3166 39.269 14.1639 39C14.01 38.7298 13.8068 38.2317 13.5131 37.9569C13.2182 37.682 12.9398 37.3989 12.8576 37.0923C12.7754 36.7857 12.1974 36.4591 11.9143 36.3816C11.6324 36.3052 11.0921 36.2888 10.8935 36.4145C10.6938 36.539 10.345 36.781 10.5987 36.8691C10.8536 36.9584 11.0016 36.9913 11.1837 36.8832C11.3658 36.7763 11.4222 36.5684 11.6289 36.6494Z" fill="#83B84D"/>
</g>
<mask id="mask30" mask-type="alpha" maskUnits="userSpaceOnUse" x="3" y="3" width="94" height="94">
<path fill-rule="evenodd" clip-rule="evenodd" d="M46.8336 3.10925C20.9389 4.86425 1.36162 27.2787 3.10837 53.1773C4.85747 79.0724 27.2681 98.6441 53.1651 96.8903C79.0633 95.1365 98.6394 72.7196 96.8915 46.8245C95.2152 22.0078 74.5678 3 50.0592 3C48.9915 3 47.9155 3.03642 46.8336 3.10925Z" fill="white"/>
</mask>
<g mask="url(#mask30)">
<path fill-rule="evenodd" clip-rule="evenodd" d="M35.412 9.46954C35.419 9.59993 35.7444 9.83604 36.0428 9.78905C36.3423 9.74324 36.6889 9.54237 36.6266 9.79963C36.5632 10.0569 36.488 10.3752 36.488 10.3752C36.488 10.3752 36.165 10.7805 36.2401 10.8686C36.3165 10.9591 36.4645 10.7077 36.5973 10.972C36.73 11.2363 37.0624 11.6122 37.2198 11.5863C37.3784 11.5605 37.342 11.1705 37.4066 11.0084C37.4724 10.8451 37.3185 10.3376 37.5029 10.481C37.6874 10.6254 37.8213 11.0777 37.9528 11.1059C38.0844 11.1317 38.5742 10.8757 38.5742 10.8757C38.5742 10.8757 38.8679 10.636 38.8597 10.4504C38.8515 10.2648 38.707 9.5083 38.882 9.45074C39.0582 9.39553 39.2567 9.41902 39.447 9.40258C39.6362 9.38731 39.7501 9.44604 39.7066 9.58583C39.6632 9.7221 39.5657 9.87598 39.6056 10.0158C39.6456 10.1556 39.7513 10.1873 40.0426 10.0639C40.3351 9.94059 41.1315 9.9124 41.2149 9.67628C41.2983 9.43899 41.061 9.24869 40.9224 9.14414C40.785 9.03842 40.9377 8.84107 40.8637 8.75532C40.7885 8.66722 40.4972 8.3571 40.6429 8.28896C40.7885 8.222 41.0317 8.07987 41.1938 7.96944C41.3559 7.85902 41.619 7.47607 41.4863 7.26815C41.3535 7.06023 41.1304 6.92983 41.2466 6.78535C41.3618 6.64086 41.0775 6.62676 41.2032 6.51516C41.3277 6.40474 41.3606 6.15453 41.4604 6.14278C41.5603 6.13104 41.7729 5.84441 41.6355 5.76571C41.5004 5.68583 41.2232 5.66938 41.1057 5.58833C40.9882 5.50845 40.8461 5.3992 40.7028 5.45558C40.5595 5.51197 40.0015 5.71284 39.9075 5.74691C39.8135 5.78098 39.2109 6.13104 39.225 5.9701C39.2391 5.80917 39.7595 5.6036 39.7595 5.6036C39.7595 5.6036 40.5982 5.38275 40.7263 5.28055C40.8555 5.17718 40.7509 5.15721 40.4866 5.15604C40.2223 5.15604 38.828 5.62944 38.828 5.62944C38.828 5.62944 38.0409 5.86673 37.9822 6.03001C37.9246 6.19447 37.7966 6.40827 37.9634 6.4905C38.129 6.5739 38.2994 6.81824 38.411 6.83821C38.5226 6.857 38.8738 6.90634 39.0077 6.94863C39.1404 6.98857 39.541 7.00501 39.4141 7.10017C39.2873 7.19649 39.0723 7.38797 39.0899 7.63348C39.1075 7.87782 39.2285 8.01526 39.0371 8.21378C38.8456 8.41113 38.6694 8.56149 38.3745 8.68014C38.0797 8.80113 37.7496 8.79761 37.5946 8.99848C37.4407 9.19936 36.8909 9.30038 36.8909 9.30038C36.8909 9.30038 36.5538 9.123 36.3799 9.08071C36.2073 9.03842 36.0205 9.00435 35.7808 9.12065C35.5412 9.23695 35.4014 9.25457 35.412 9.46954Z" fill="#83B84D"/>
</g>
<mask id="mask31" mask-type="alpha" maskUnits="userSpaceOnUse" x="3" y="3" width="94" height="94">
<path fill-rule="evenodd" clip-rule="evenodd" d="M46.8336 3.10925C20.9389 4.86425 1.36162 27.2787 3.10837 53.1773C4.85747 79.0724 27.2681 98.6441 53.1651 96.8903C79.0633 95.1365 98.6394 72.7196 96.8915 46.8245C95.2152 22.0078 74.5678 3 50.0592 3C48.9915 3 47.9155 3.03642 46.8336 3.10925Z" fill="white"/>
</mask>
<g mask="url(#mask31)">
<path fill-rule="evenodd" clip-rule="evenodd" d="M45.4471 9.12316C45.0889 9.22771 44.8469 9.12551 44.545 9.33343C44.2443 9.53901 44.0692 9.60831 44.0892 9.72226C44.1068 9.83621 44.0269 9.88907 43.8484 9.99127C43.6687 10.0923 43.4079 10.1675 43.4819 10.3566C43.5571 10.5445 43.6334 10.7454 43.5207 10.9075C43.4079 11.0673 43.2493 11.287 43.355 11.395C43.4596 11.5008 43.476 11.5642 43.4149 11.8273C43.3515 12.0905 43.4455 12.1739 43.4455 12.1739C43.4455 12.1739 43.4678 12.1656 43.4384 12.4452C43.4091 12.7248 43.4443 12.7506 43.4772 13.029C43.5101 13.3074 43.5066 13.6387 43.7673 13.6704C44.0293 13.7021 44.3347 13.7397 44.5896 14.0322C44.8434 14.3247 45.0125 14.5843 45.3261 14.3459C45.6398 14.1086 45.7091 13.782 45.9417 13.6281C46.1754 13.4731 46.4374 13.2334 46.4421 13.0655C46.4468 12.8987 46.5267 12.7354 46.7217 12.7036C46.9178 12.6708 47.3572 12.3454 47.4288 12.0987C47.4993 11.8508 47.6896 11.5924 47.8764 11.5971C48.0655 11.603 48.3451 11.4174 48.56 11.3304C48.7774 11.2435 49.1862 11.3997 49.1862 11.3997C49.1862 11.3997 49.9062 11.1848 50.1106 11.0591C50.315 10.9357 50.8836 10.5058 50.8836 10.5058C50.8836 10.5058 51.075 10.0676 51.404 10.1769C51.734 10.2885 52.3273 10.1017 52.7454 10.0524C53.1636 10.0042 53.3457 9.78922 53.516 9.71404C53.6887 9.63768 54.2361 9.52491 54.2361 9.52491C54.2361 9.52491 54.1386 9.17015 53.8696 9.21831C53.5983 9.26648 52.8982 9.31699 52.9193 9.18895C52.9428 9.05855 52.9181 9.20892 53.1789 9.16075C53.4397 9.11259 53.5196 9.04916 53.5372 8.8847C53.5548 8.71907 53.7087 8.50057 53.8144 8.75078C53.919 8.99982 53.9742 9.19012 54.1927 9.13139C54.4123 9.07265 54.8105 8.94108 54.6731 8.71554C54.5368 8.48882 54.2537 8.52289 54.2843 8.39485C54.316 8.26681 54.5192 8.24919 54.4981 8.07298C54.4781 7.89795 54.444 7.85096 54.6848 7.73467C54.9268 7.61837 55.0607 7.55729 55.0044 7.34232C54.9468 7.12852 54.7224 7.11208 54.8129 6.85364C54.9022 6.59638 54.9292 6.59168 54.6743 6.55644C54.4194 6.52238 54.4605 6.38376 54.6285 6.34265C54.7976 6.30153 55.022 6.12063 54.8904 6.09596C54.7588 6.07129 54.2937 5.83518 54.2937 5.83518C54.2937 5.83518 54.4276 5.47454 54.5157 5.32653C54.6038 5.18087 54.5956 5.21493 54.8563 4.99644C55.116 4.77795 55.5059 4.41026 55.15 4.41614C54.7929 4.42084 53.9049 4.72508 53.8978 4.61231C53.8908 4.49954 53.5877 4.04258 53.3011 3.99794C53.0133 3.95213 51.9889 3.78415 51.9889 3.78415C51.9889 3.78415 51.0692 3.91337 51.0163 3.98855C50.9646 4.06138 50.5617 4.14831 50.4959 4.00264C50.4301 3.85698 50.0261 3.86873 49.703 3.91807C49.3812 3.96858 48.1148 4.12246 48.1148 4.12246L47.0471 4.45608C47.0471 4.45608 45.5529 4.31864 45.5258 4.50189C45.4988 4.68632 45.6316 4.93183 45.6316 4.93183L44.8598 5.38644C44.8598 5.38644 45.0125 5.40759 45.3109 5.51683C45.6104 5.62725 45.9828 5.60141 46.0721 5.75177C46.1625 5.90331 46.4397 6.29331 46.186 6.65512C45.9311 7.0181 45.3755 7.58548 45.3755 7.58548C45.3755 7.58548 45.3273 7.784 45.5317 7.905C45.7349 8.02482 46.0415 8.04244 45.9499 8.18105C45.8583 8.31967 45.5717 8.1787 45.3015 8.17753C45.0313 8.17753 44.6331 8.18575 44.7094 8.45006C44.787 8.71319 44.8586 8.83771 45.204 8.74491C45.5482 8.65328 45.8207 8.61217 45.7138 8.75666C45.6045 8.90349 45.8054 9.01979 45.4471 9.12316Z" fill="#83B84D"/>
</g>
<mask id="mask32" mask-type="alpha" maskUnits="userSpaceOnUse" x="3" y="3" width="94" height="94">
<path fill-rule="evenodd" clip-rule="evenodd" d="M46.8336 3.10925C20.9389 4.86425 1.36162 27.2787 3.10837 53.1773C4.85747 79.0724 27.2681 98.6441 53.1651 96.8903C79.0633 95.1365 98.6394 72.7196 96.8915 46.8245C95.2152 22.0078 74.5678 3 50.0592 3C48.9915 3 47.9155 3.03642 46.8336 3.10925Z" fill="white"/>
</mask>
<g mask="url(#mask32)">
<path fill-rule="evenodd" clip-rule="evenodd" d="M59.5787 4.71001C59.4989 4.73821 59.0689 4.72881 59.1171 4.88387C59.1653 5.03893 59.5447 5.24568 59.5447 5.24568C59.5447 5.24568 59.937 5.40074 60.0909 5.39604C60.2436 5.38899 60.7217 5.61923 60.7217 5.61923C60.7217 5.61923 61.4277 5.84713 61.295 5.6439C61.1622 5.44068 61.161 5.2586 61.3748 5.35728C61.5886 5.45595 61.9716 5.34435 61.7683 5.27857C61.5651 5.21396 60.5807 4.96375 60.5807 4.96375L60.8615 4.6783C60.8615 4.6783 60.3388 4.39402 60.1532 4.49739C59.9676 4.60077 59.6586 4.68065 59.5787 4.71001Z" fill="#83B84D"/>
</g>
<mask id="mask33" mask-type="alpha" maskUnits="userSpaceOnUse" x="3" y="3" width="94" height="94">
<path fill-rule="evenodd" clip-rule="evenodd" d="M46.8336 3.10925C20.9389 4.86425 1.36162 27.2787 3.10837 53.1773C4.85747 79.0724 27.2681 98.6441 53.1651 96.8903C79.0633 95.1365 98.6394 72.7196 96.8915 46.8245C95.2152 22.0078 74.5678 3 50.0592 3C48.9915 3 47.9155 3.03642 46.8336 3.10925Z" fill="white"/>
</mask>
<g mask="url(#mask33)">
<path fill-rule="evenodd" clip-rule="evenodd" d="M62.7327 17.9736C62.587 18.0382 62.6316 18.212 62.5612 18.3765C62.4907 18.5398 62.0138 18.6772 62.0138 18.6772C62.0138 18.6772 61.8105 19.0614 61.995 19.1964C62.1782 19.3304 62.4731 19.4279 62.4731 19.4279C62.4731 19.4279 61.8939 19.8754 62.0513 20.155C62.2088 20.4358 62.2663 20.8445 62.5999 20.6942C62.9324 20.545 63.1532 20.3817 63.4046 20.3089C63.656 20.2384 64.0777 20.2408 64.0789 19.9847C64.0812 19.7286 64.0401 19.597 63.9109 19.2622C63.7828 18.9274 63.6325 18.9486 63.7922 18.7806C63.952 18.615 64.2821 18.4411 63.7605 18.2684C63.2378 18.0957 62.9371 17.8843 62.7327 17.9736Z" fill="#83B84D"/>
</g>
<mask id="mask34" mask-type="alpha" maskUnits="userSpaceOnUse" x="3" y="3" width="94" height="94">
<path fill-rule="evenodd" clip-rule="evenodd" d="M3.10837 53.1773C4.85747 79.0724 27.2681 98.6441 53.1651 96.8903C79.0633 95.1365 98.6394 72.7196 96.8915 46.8245C95.2152 22.0078 74.5678 3 50.0592 3C48.9915 3 47.9155 3.03642 46.8336 3.10925C20.9389 4.86425 1.36162 27.2787 3.10837 53.1773Z" fill="white"/>
</mask>
<g mask="url(#mask34)">
<path fill-rule="evenodd" clip-rule="evenodd" d="M65.6897 20.5191C65.658 20.7059 65.6698 20.6131 65.4748 20.8492C65.2798 21.0865 65.093 21.3567 65.1717 21.4695C65.2481 21.5811 65.4595 21.4859 65.752 21.3555C66.0445 21.224 66.3687 20.9949 66.6412 21.0102C66.9149 21.0254 67.9322 20.8704 67.9322 20.8704C67.9322 20.8704 68.509 20.5203 68.2458 20.3465C67.9815 20.1726 68.0884 20.1397 68.1319 19.8578C68.1742 19.5747 68.032 19.2258 67.7454 19.2434C67.4576 19.2634 67.2239 19.348 67.2239 19.348C67.2239 19.348 66.8397 18.6478 66.5602 18.4728C66.2818 18.2966 65.5958 17.7927 65.5958 17.7927C65.5958 17.7927 65.0554 17.3886 64.8369 17.3956C64.6208 17.4015 64.7136 17.089 64.7136 17.089C64.7136 17.089 65.0296 16.4981 64.7664 16.3736C64.5021 16.2479 63.7691 16.3842 63.7691 16.3842C63.7597 16.3349 63.627 16.2644 63.8619 16.0976C64.098 15.9308 64.0698 15.7933 63.8055 15.7734C63.5389 15.7522 63.1313 15.825 63.0467 15.9813C62.9633 16.1387 62.484 16.3689 62.6896 16.5416C62.8975 16.7166 63.2969 16.8647 63.3274 17.082C63.358 17.3016 63.2758 17.4438 63.4238 17.5742C63.5718 17.7046 63.8854 17.5307 63.9547 17.6329C64.024 17.7339 64.145 17.9477 64.145 17.9477L64.1168 18.1921C64.1168 18.1921 64.629 18.1909 64.8498 18.3095C65.073 18.4294 65.4654 18.8088 65.4654 18.8088C65.4654 18.8088 65.2434 19.0954 65.0319 19.1224C64.8216 19.1494 64.9227 19.4525 64.9227 19.4525C64.9227 19.4525 65.4172 19.7086 65.221 19.8425C65.0249 19.9788 64.8886 20.1949 64.8886 20.1949C64.8886 20.1949 65.2011 20.3829 65.4466 20.3888C65.6897 20.3935 65.7226 20.3324 65.6897 20.5191Z" fill="#83B84D"/>
</g>
<path d="M31.4165 67.7286C31.4165 67.7286 48.5822 36.5369 79.9243 18.4012" stroke="#9BEAFF" stroke-width="2.84326" stroke-miterlimit="10"/>
<path opacity="0.05" fill-rule="evenodd" clip-rule="evenodd" d="M79.1448 19.0891C82.5677 22.2385 84.2076 25.9783 82.8139 27.4448C81.4209 28.9058 77.5282 27.5508 74.1145 24.4138C70.7062 21.2775 69.0548 17.5418 70.4386 16.0683C71.8177 14.5886 75.7165 15.9389 79.1448 19.0891Z" fill="#010101"/>
<path fill-rule="evenodd" clip-rule="evenodd" d="M79.5129 18.8817C81.8677 21.2358 82.9483 23.9418 81.9215 24.9267C80.9007 25.9068 78.1728 24.8005 75.8272 22.4589C73.4824 20.1118 72.3957 17.4105 73.4072 16.418C74.424 15.4262 77.1581 16.5277 79.5129 18.8817Z" fill="#F4BE36"/>
<path d="M80.0663 9.95197L73.425 16.4112L81.9462 24.9096L88.5829 18.4442L80.0663 9.95197Z" fill="#F4BE36"/>
<path fill-rule="evenodd" clip-rule="evenodd" d="M77.2848 12.4752C77.4137 13.7748 78.5469 15.8555 80.3445 17.8814C82.1898 19.9587 84.1681 21.3432 85.4156 21.5473L88.5847 18.4649L79.9674 9.86935L77.2848 12.4752Z" fill="#D9A228"/>
<path fill-rule="evenodd" clip-rule="evenodd" d="M85.8859 12.6991C88.4531 15.2613 89.7895 18.0584 88.869 18.9458C87.9493 19.8277 85.1354 18.469 82.5782 15.9137C80.021 13.3585 78.6785 10.5662 79.589 9.67182C80.4941 8.7767 83.3194 10.1314 85.8859 12.6991Z" fill="#F4BE36"/>
<path fill-rule="evenodd" clip-rule="evenodd" d="M83.9615 14.5636C81.3943 12.0014 78.7327 10.4899 77.8605 11.3447C76.9883 12.1995 78.3567 14.9618 80.9132 17.5225C83.4758 20.0785 86.2583 21.4665 87.1405 20.6187C88.022 19.7763 86.528 17.1313 83.9615 14.5636Z" fill="#F4BE36"/>
<path fill-rule="evenodd" clip-rule="evenodd" d="M79.5827 9.67678L77.9101 11.3011L87.1901 20.5751L88.8627 18.9507L79.5827 9.67678Z" fill="#F4BE36"/>
<path fill-rule="evenodd" clip-rule="evenodd" d="M85.8771 12.6869C88.4443 15.2491 89.7753 18.0454 88.8602 18.9335C87.9405 19.8155 85.1266 18.4567 82.5694 15.9015C80.0122 13.3462 78.6751 10.5547 79.5856 9.66033C80.4953 8.77144 83.3153 10.1254 85.8771 12.6869Z" fill="#FFDB66"/>
<path fill-rule="evenodd" clip-rule="evenodd" d="M85.4583 13.1056C87.5053 15.1489 88.6503 17.3039 88.0198 17.9119C87.3893 18.5199 85.2214 17.3614 83.1797 15.3189C81.1381 13.2763 79.987 11.1261 80.6183 10.5126C81.2387 9.89765 83.4113 11.0624 85.4583 13.1056Z" fill="#3B2914"/>
<path fill-rule="evenodd" clip-rule="evenodd" d="M85.4582 13.1057C87.5052 15.1489 88.6502 17.304 88.0197 17.9119C87.3892 18.5199 85.2213 17.3614 83.1796 15.3189C81.138 13.2764 79.9869 11.1261 80.6181 10.5126C81.2386 9.89771 83.4112 11.0624 85.4582 13.1057Z" fill="#3B2914"/>
<path fill-rule="evenodd" clip-rule="evenodd" d="M87.9301 11.7978C87.732 11.4852 87.5999 11.4503 87.4529 11.2847C87.3151 11.1315 87.3371 11.0505 87.044 10.7921C86.7509 10.5337 86.2527 10.4544 85.9827 10.4679C85.7348 10.4788 85.6113 10.4619 85.516 10.4377C85.5015 10.4637 85.5108 10.4761 85.4863 10.4952C84.9933 10.6181 84.6162 10.7737 84.6263 10.8199C84.6748 10.8657 84.5721 10.8964 84.4481 11.0026C84.2797 11.1532 84.3177 11.0352 84.0115 11.2732C84.0239 11.3029 84.0814 11.2828 84.0147 11.3297C83.9121 11.3996 83.9021 11.3926 83.854 11.4644C83.8334 11.4952 83.8457 11.5249 83.7307 11.5651C83.4425 11.6713 83.2929 11.4045 82.7692 11.5121C82.1158 11.6467 81.4016 12.2264 81.4016 12.2264L81.4108 12.2389C81.3381 12.2905 81.2646 12.3476 81.1904 12.4103C80.3554 13.1526 81.7753 14.6175 82.3286 15.4153C83.3449 16.8698 84.7495 18.0471 85.5692 17.3362C85.5753 17.3315 85.5822 17.3212 85.5883 17.3164L85.5929 17.3227C85.5929 17.3227 86.4029 16.4425 86.6615 15.9125C86.9582 15.3037 86.8212 15.145 86.7821 14.9101C86.7704 14.8357 86.8941 14.8918 86.9066 14.9607C86.9135 14.9897 86.9553 14.8442 87.0533 14.768C87.1207 14.7157 87.1091 14.6805 87.1246 14.7274C87.2294 14.641 87.2537 14.5435 87.2988 14.4937C87.435 14.3388 87.4448 14.3065 87.5283 14.2564C87.5521 14.2428 87.5512 14.2091 87.5591 14.2718C87.69 14.1945 87.9328 13.4999 88.0521 13.1076C88.196 12.7354 88.1691 12.1719 87.9301 11.7978Z" fill="#B27F3D"/>
<path fill-rule="evenodd" clip-rule="evenodd" d="M86.2248 11.7773C86.3473 11.9228 86.3706 12.0324 86.3471 12.1243C86.3228 12.2218 86.2322 12.4445 86.0487 12.6657C85.8911 12.8569 85.8215 12.9258 85.6508 13.0536C85.48 13.1814 85.1961 13.4169 84.7227 12.9155C84.2971 12.4655 84.3108 12.1651 84.518 11.9303C84.6985 11.731 84.8516 11.612 85.0234 11.5571C85.2978 11.4715 85.8213 11.5262 85.915 11.5614C86.008 11.6021 86.1117 11.6443 86.2248 11.7773Z" fill="#EEC081"/>
<path fill-rule="evenodd" clip-rule="evenodd" d="M84.67 12.4997C84.4236 12.2197 84.4419 12.1662 84.4725 12.1424C84.5032 12.1186 84.6232 12.2413 84.7656 12.4008C84.9081 12.5602 85.0212 12.6932 84.9906 12.717C84.9592 12.7463 84.9156 12.7851 84.67 12.4997Z" fill="#010101"/>
<path fill-rule="evenodd" clip-rule="evenodd" d="M85.344 11.8584C85.5011 12.031 85.55 12.2337 85.3946 12.3692C85.2392 12.5047 84.9472 12.3584 84.8664 12.269C84.7856 12.1795 84.6788 11.8794 84.8342 11.7439C84.9896 11.6084 85.1924 11.6865 85.344 11.8584Z" fill="#010101"/>
<path fill-rule="evenodd" clip-rule="evenodd" d="M86.5295 12.1157C86.5295 12.1157 86.5295 12.1157 86.6072 12.1879C86.6849 12.2601 86.6129 12.3062 86.6561 12.3905C86.7086 12.4872 86.7709 12.2718 86.7423 12.2008C86.7129 12.1352 86.6561 12.1106 86.61 12.0875C86.5692 12.0651 86.5295 12.1157 86.5295 12.1157Z" fill="#996E35"/>
<path fill-rule="evenodd" clip-rule="evenodd" d="M85.8148 11.2958C85.8148 11.2958 85.785 11.3141 85.7195 11.2324C85.654 11.1506 85.5768 11.2352 85.516 11.1597C85.4459 11.0718 85.6607 11.062 85.7329 11.0942C85.8159 11.128 85.8928 11.2057 85.9029 11.2518C85.9209 11.3607 85.8187 11.3075 85.8148 11.2958Z" fill="#996E35"/>
<path fill-rule="evenodd" clip-rule="evenodd" d="M86.643 12.1648C86.7 12.2285 86.6972 12.3289 86.6291 12.3868C86.561 12.4446 86.4635 12.4369 86.4012 12.3724C86.3442 12.3086 86.347 12.2083 86.4151 12.1504C86.4832 12.0925 86.5807 12.1003 86.643 12.1648Z" fill="#010101"/>
<path fill-rule="evenodd" clip-rule="evenodd" d="M85.7828 11.2075C85.8397 11.2712 85.837 11.3716 85.7688 11.4295C85.7007 11.4874 85.6032 11.4796 85.5409 11.4151C85.4839 11.3514 85.4867 11.251 85.5548 11.1931C85.623 11.1352 85.7204 11.143 85.7828 11.2075Z" fill="#010101"/>
<path fill-rule="evenodd" clip-rule="evenodd" d="M85.4641 10.7384C85.4641 10.7384 85.6543 10.7084 85.7207 10.5831C85.794 10.4476 85.843 10.1688 85.8667 10.1161C85.8903 10.0633 85.9354 10.0135 85.9852 9.96992C86.1903 9.79083 86.4896 9.80376 86.6559 9.98883C86.7036 10.0401 86.7337 10.1002 86.7469 10.1636C86.8251 10.3926 86.7277 10.6648 86.7188 10.77C86.7099 10.8751 86.8492 11.0173 86.9484 11.0925C87.0237 11.1419 85.4641 10.7384 85.4641 10.7384Z" fill="#B27F3D"/>
<path fill-rule="evenodd" clip-rule="evenodd" d="M88.4261 12.8508C88.3686 12.8709 88.0901 12.8664 87.9599 12.9382C87.8296 13.0099 87.7916 13.1279 87.7916 13.1279C87.7916 13.1279 87.561 11.6521 87.6095 11.7371C87.6712 11.8463 87.7597 11.9199 87.8633 11.9229C87.9608 11.9306 88.2446 11.8967 88.459 12.0099C88.5158 12.0345 88.5704 12.0756 88.6182 12.1269C88.7844 12.3119 88.773 12.5959 88.587 12.7552C88.4944 12.8321 88.4836 12.8306 88.4261 12.8508Z" fill="#B27F3D"/>
<path fill-rule="evenodd" clip-rule="evenodd" d="M86.5582 12.1982C86.5686 12.2055 86.5655 12.2286 86.5583 12.2393C86.5454 12.2493 86.5285 12.247 86.5181 12.2397C86.5084 12.2266 86.5107 12.2093 86.5179 12.1986C86.5316 12.1828 86.5533 12.1917 86.5582 12.1982Z" fill="#989898"/>
<path fill-rule="evenodd" clip-rule="evenodd" d="M85.6877 11.2396C85.6982 11.2469 85.6951 11.2699 85.6878 11.2807C85.675 11.2907 85.6581 11.2884 85.6476 11.2811C85.6372 11.2738 85.6403 11.2507 85.6475 11.24C85.6611 11.2242 85.678 11.2265 85.6877 11.2396Z" fill="#989898"/>
<path fill-rule="evenodd" clip-rule="evenodd" d="M88.0145 17.9112C87.384 18.5192 85.2161 17.3607 83.1744 15.3182C81.1328 13.2757 79.9817 11.1254 80.613 10.5119L79.5854 9.66047C78.6756 10.5494 80.012 13.3464 82.5692 15.9016C85.1264 18.4569 87.9403 19.8156 88.86 18.9337" fill="#FFDB66"/>
<mask id="mask35" mask-type="alpha" maskUnits="userSpaceOnUse" x="27" y="65" width="8" height="7">
<path d="M29.4722 69.8251C31.157 70.8336 32.4134 71.9738 33.7151 71.0601C34.4663 70.5302 35.4204 69.3171 32.0138 66.7689C29.3369 64.7683 27.8289 64.9484 27.3608 65.7297C26.7927 66.6821 27.2108 68.4691 29.4722 69.8251Z" fill="#835C24"/>
</mask>
<g mask="url(#mask35)">
<path d="M29.4722 69.8251C31.157 70.8336 32.4134 71.9738 33.7151 71.0601C34.4663 70.5302 35.4204 69.3171 32.0138 66.7689C29.3369 64.7683 27.8289 64.9484 27.3608 65.7297C26.7927 66.6821 27.2108 68.4691 29.4722 69.8251Z" fill="#835C24"/>
<path fill-rule="evenodd" clip-rule="evenodd" d="M30.5327 68.5537C32.1062 69.7765 33.8746 70.2142 34.5002 69.5216C35.1327 68.8187 34.3346 67.2093 32.7012 65.9448C31.0731 64.6809 29.2733 64.2725 28.7001 65.0227C28.1283 65.7619 28.9585 67.3365 30.5327 68.5537Z" fill="#010101"/>
</g>
<path fill-rule="evenodd" clip-rule="evenodd" d="M32.3451 72.4347C32.772 72.7954 33.5271 72.5571 33.7192 72.3931C33.912 72.2235 33.7266 71.2577 33.2361 71.2018C32.9506 71.1684 32.168 71.4476 31.7758 71.1533C31.4582 70.914 31.9189 72.0686 32.3451 72.4347Z" fill="#D5C07B"/>
<path fill-rule="evenodd" clip-rule="evenodd" d="M30.3646 71.5033C31.1514 72.1539 32.0844 72.1359 32.4185 71.9744C32.8529 71.7595 31.4329 71.0559 30.6483 70.3889C29.8637 69.7218 29.6745 69.8247 29.347 70.1382C29.0202 70.4462 29.5731 70.8465 30.3646 71.5033Z" fill="#D5C07B"/>
<path fill-rule="evenodd" clip-rule="evenodd" d="M27.9628 69.2548C28.7428 69.9156 29.3515 70.5083 29.6736 70.194C30.0011 69.8805 29.3492 69.2036 28.3429 68.8365C27.2791 68.4504 27.6193 66.7223 26.927 67.4226C26.6148 67.7438 27.1836 68.5885 27.9628 69.2548Z" fill="#D5C07B"/>
<path fill-rule="evenodd" clip-rule="evenodd" d="M26.1826 67.4217C26.9029 68.1191 28.0235 68.4906 27.8468 68.181C27.246 67.1304 27.7193 66.792 27.1703 66.4035C26.3375 65.8082 26.4885 65.7449 26.3355 65.9031C26.1818 66.0668 25.4578 66.718 26.1826 67.4217Z" fill="#D5C07B"/>
<path fill-rule="evenodd" clip-rule="evenodd" d="M33.5779 72.2618C33.9221 72.6671 34.272 72.6702 34.8625 72.555C35.2337 72.4825 34.9052 71.9226 34.3659 71.4626C33.8267 71.0026 33.0365 71.0569 32.7993 71.2708C32.5574 71.4785 33.1391 71.7483 33.5779 72.2618Z" fill="#D5C07B"/>
<path fill-rule="evenodd" clip-rule="evenodd" d="M34.1635 71.2614C33.7807 71.8193 34.4992 72.4493 35.5098 71.9437C35.945 71.7233 36.0638 71.4148 35.1198 70.5524C34.1812 69.6907 36.1209 70.4765 34.026 69.6247C33.8447 69.5496 33.4808 70.0093 33.9399 70.615C34.2888 71.0658 34.3209 71.031 34.1635 71.2614Z" fill="#D5C07B"/>
<path fill-rule="evenodd" clip-rule="evenodd" d="M27.3661 65.1258C26.1297 64.2402 25.775 64.6732 25.8943 65.0814C26.0671 65.6592 25.3451 65.9356 26.6047 66.3317C28.0639 66.7887 27.1119 66.3451 27.4868 66.2452C27.7138 66.1866 27.979 65.5679 27.3661 65.1258Z" fill="#D5C07B"/>
<path fill-rule="evenodd" clip-rule="evenodd" d="M27.0866 63.5705C27.3904 63.8303 27.5873 63.7117 27.7701 63.7759C27.9583 63.8408 28.0767 63.6554 27.4836 63.1489C27.1744 62.8883 26.8284 62.6563 26.926 62.9831C26.9833 63.1645 26.7774 63.3099 27.0866 63.5705Z" fill="#D5C07B"/>
<path fill-rule="evenodd" clip-rule="evenodd" d="M33.7344 71.197C34.0828 71.491 34.3518 71.3654 34.4957 71.2339C34.6449 71.1032 34.6098 70.9192 34.2614 70.6253C33.9137 70.3258 33.4662 70.7965 33.6765 70.5397C34.1429 69.9709 33.3867 70.8976 33.7344 71.197Z" fill="#D5C07B"/>
<path fill-rule="evenodd" clip-rule="evenodd" d="M28.8618 63.9196C28.9403 63.9863 29.0054 63.9505 29.0383 63.9102C29.0704 63.8754 29.1226 63.8937 29.0442 63.827C28.9657 63.7603 28.8327 63.6525 28.8521 63.7504C28.8607 63.8075 28.7834 63.8529 28.8618 63.9196Z" fill="#D5C07B"/>
<path fill-rule="evenodd" clip-rule="evenodd" d="M36.1488 70.3907C36.5603 70.7437 36.8278 70.6291 36.9702 70.5086C37.1125 70.3881 37.0521 70.1895 36.6413 69.8311C36.2298 69.4781 35.8754 69.2673 36.0055 69.677C36.0714 69.9155 35.7373 70.0378 36.1488 70.3907Z" fill="#D5C07B"/>
<path fill-rule="evenodd" clip-rule="evenodd" d="M33.7569 69.6327C33.7615 69.6389 34.6712 70.8325 35.0501 70.7835C35.4743 70.7239 35.3843 70.6613 35.479 70.4895C35.5744 70.3122 35.439 69.941 35.3416 69.6925C35.2527 69.4621 35.0568 69.133 34.5401 69.0288C34.0771 68.9319 33.5589 69.3593 33.7569 69.6327Z" fill="#D5C07B"/>
<path fill-rule="evenodd" clip-rule="evenodd" d="M27.9932 64.1871C27.9932 64.1871 29.0782 64.4586 29.5342 65.0472C29.9909 65.6302 29.9167 65.4521 29.3158 65.6835C28.6682 65.9364 27.8467 65.4994 27.6533 64.9524C27.4923 64.4881 27.5513 64.457 27.6858 64.2738C27.8196 64.0962 27.9932 64.1871 27.9932 64.1871Z" fill="#D5C07B"/>
<path fill-rule="evenodd" clip-rule="evenodd" d="M26.16 63.9421C26.297 63.8208 26.7526 63.7712 27.4554 63.996C28.1581 64.2208 27.5251 64.7669 27.9957 65.3686C27.4251 65.7385 27.3336 65.127 26.8774 64.9806C26.4319 64.8358 26.2373 64.658 26.15 64.4557C26.0457 64.2176 26.023 64.0633 26.16 63.9421Z" fill="#D5C07B"/>
<path fill-rule="evenodd" clip-rule="evenodd" d="M25.0884 63.0502C24.8575 62.8172 24.6667 62.8918 24.6501 63.0127C24.6275 63.1384 24.8527 63.533 25.1331 63.6442C25.6777 63.8642 25.4275 63.5724 25.4257 63.4658C25.4215 63.3365 25.4247 63.3929 25.0884 63.0502Z" fill="#D5C07B"/>
<path fill-rule="evenodd" clip-rule="evenodd" d="M30.4732 66.5023C31.2595 67.4775 32.5773 67.6073 32.7652 67.3139C32.9539 67.015 31.8402 66.1126 30.7546 65.3652C29.619 64.5829 29.4655 64.5844 29.3881 64.8705C29.2909 65.2211 29.3119 65.0672 30.4732 66.5023Z" fill="#D5C07B"/>
<path fill-rule="evenodd" clip-rule="evenodd" d="M32.4065 67.9758C32.4165 67.9828 32.6703 68.9691 33.3022 69.1115C33.7376 69.2102 34.3558 69.1324 34.572 69.0724C35.078 68.9344 34.1473 68.1746 33.944 67.9005C33.7683 67.6637 33.1639 67.2004 32.6228 67.1545C32.1362 67.1103 32.1225 67.6907 32.4065 67.9758Z" fill="#D5C07B"/>
</svg>
