<svg width="100" height="100" viewBox="0 0 100 100" fill="none" xmlns="http://www.w3.org/2000/svg">
<mask id="mask0" mask-type="alpha" maskUnits="userSpaceOnUse" x="0" y="0" width="100" height="100">
<circle cx="50" cy="50" r="50" fill="white"/>
</mask>
<g mask="url(#mask0)">
<circle cx="50" cy="50" r="50" fill="#E9E9E9"/>
<mask id="mask1" mask-type="alpha" maskUnits="userSpaceOnUse" x="-2" y="16" width="106" height="93">
<rect x="-1.22217" y="16.6666" width="104.828" height="92.2222" fill="#FFFFFF"/>
</mask>
<g mask="url(#mask1)">
<path fill-rule="evenodd" clip-rule="evenodd" d="M41.768 53.6139L59.4853 55.1372L53.7901 78.762C53.7901 78.762 49.0609 84.8341 44.9898 83.6133C40.2394 82.1908 36.0357 73.449 36.0357 73.449L41.768 53.6139Z" fill="#DEA87F"/>
<path fill-rule="evenodd" clip-rule="evenodd" d="M56.2255 73.8364C55.2662 77.2812 52.7888 79.4786 46.3847 79.192C41.5302 78.9743 37.9618 76.5115 36.0959 72.7377C19.7033 73.9851 6.39954 82.1484 5.23994 100.519C24.0097 109.722 78.9536 107.461 84.0664 99.7383C84.3458 82.5624 72.0066 76.2621 56.2255 73.8364Z" fill="#EBB94A"/>
<path fill-rule="evenodd" clip-rule="evenodd" d="M56.338 23.1102C67.824 23.7313 71.6562 29.1027 68.9227 46.5227C68.8006 47.3136 69.6392 48.5025 69.5437 49.3518C69.1031 53.2424 68.4981 55.0258 67.6966 58.2794C65.7221 66.3047 64.7773 73.1836 52.612 71.2516C41.7895 69.5319 35.8023 59.6488 35.6112 46.0875C35.383 29.6335 45.3987 22.5211 56.338 23.1102Z" fill="#DEA87F"/>
<path fill-rule="evenodd" clip-rule="evenodd" d="M34.9795 49.649L38.5834 44.8296C38.5834 44.8296 42.9995 48.7998 42.3838 45.647C41.0781 38.9645 47.3677 36.3637 47.4049 34.8032C47.4367 33.2481 46.7308 33.1844 47.6862 30.6685C48.6416 28.1526 51.0142 28.5454 53.2381 30.0422C54.4961 30.8861 59.151 32.3033 61.8526 32.7279C63.9385 33.057 64.0288 31.0347 64.0288 31.0347C64.0288 31.0347 66.7676 31.5177 67.8079 33.2162C68.8482 34.9147 70.69 32.2131 71.6985 32.9402C72.8874 33.8054 71.9214 23.572 65.8546 20.5997C59.7879 17.6273 51.0566 16.4756 46.0037 18.1581C44.6714 18.5297 37.6386 21.3322 33.7427 30.4137C29.1038 41.2256 34.1727 57.5788 34.9529 59.617C35.7385 61.6764 37.9996 64.5744 38.265 61.4269C38.4879 58.7624 34.9795 49.649 34.9795 49.649Z" fill="#66462A"/>
<path fill-rule="evenodd" clip-rule="evenodd" d="M66.8898 58.7306C66.8898 58.7306 62.4578 56.8994 59.0608 56.6658C55.6639 56.4323 53.3179 58.6669 51.8264 59.7762C50.3349 60.8802 48.1693 57.7221 46.6832 56.2041C45.197 54.686 40.6429 49.2403 40.6429 49.2403C40.6429 49.2403 39.0559 55.599 39.0984 56.703C39.1355 57.807 41.6726 65.1635 44.4486 66.6869C47.2246 68.2102 49.13 71.4267 55.1809 71.6708C61.1256 71.9097 63.2911 69.8344 64.7667 67.7909C66.2369 65.7421 66.8898 58.7306 66.8898 58.7306Z" fill="#D49C7E"/>
<path fill-rule="evenodd" clip-rule="evenodd" d="M36.805 45.371C38.3496 44.7606 40.1808 46.5334 40.9026 49.3359C41.6192 52.1331 40.9504 54.8984 39.4058 55.5088C37.8613 56.1192 36.0301 54.3464 35.3082 51.5492C34.5917 48.7467 35.2605 45.9814 36.805 45.371Z" fill="#DEA87F"/>
<path fill-rule="evenodd" clip-rule="evenodd" d="M112.879 37.8339C110.182 38.7469 52.5879 37.5155 45.0562 34.7501C37.5298 31.9848 20.407 37.7331 20.9378 46.3423C21.4739 54.9567 16.7234 67.8227 54.6633 71.9468C91.5097 75.9489 110.214 78.8469 120.076 78.1304C127.39 65.8058 124.933 40.3923 112.879 37.8339Z" fill="#B27F3D"/>
<path fill-rule="evenodd" clip-rule="evenodd" d="M33.2627 60.2911C35.2107 59.9938 36.3412 61.0766 36.5217 62.4354C36.7021 63.7942 35.5344 64.5479 33.5865 64.8398C31.6385 65.1371 29.8976 64.3993 29.7171 63.0405C29.5314 61.6764 31.3148 60.583 33.2627 60.2911Z" fill="#382D23"/>
<path fill-rule="evenodd" clip-rule="evenodd" d="M30.2266 61.549C29.4198 61.5915 28.0132 62.3558 26.5695 62.4832C24.4889 62.6742 22.1216 62.3452 22.1216 62.3186C22.1216 62.3186 23.99 64.033 26.4581 64.2772C27.2914 64.3621 29.7011 64.4948 30.6087 64.0702C31.5164 63.6456 31.3359 63.3536 31.2191 62.6583C31.1236 62.1169 31.0333 61.5012 30.2266 61.549Z" fill="black"/>
<path fill-rule="evenodd" clip-rule="evenodd" d="M48.2887 41.9475C45.5446 39.1078 34.7327 40.3976 34.7698 48.7945C34.807 57.202 36.7549 64.0383 42.4502 63.1997C48.1507 62.3611 49.6103 57.5098 49.7324 53.9271C49.8545 50.3443 50.6188 44.3572 48.2887 41.9475Z" fill="#382D23"/>
<path fill-rule="evenodd" clip-rule="evenodd" d="M30.4386 40.7055C32.6308 40.7851 33.6498 42.2129 33.5702 43.7468C33.4906 45.2807 32.0575 45.8593 29.8601 45.7797C27.668 45.7 25.9111 44.5217 25.9854 42.9878C26.0704 41.4538 28.2465 40.6258 30.4386 40.7055Z" fill="#382D23"/>
<path fill-rule="evenodd" clip-rule="evenodd" d="M29.3135 47.234C31.6277 47.0429 32.875 48.4017 32.9811 50.0206C33.0873 51.6394 31.6542 52.425 29.34 52.6161C27.0258 52.8071 25.0354 51.7987 24.9293 50.1851C24.8178 48.5662 26.9993 47.4251 29.3135 47.234Z" fill="#382D23"/>
<path fill-rule="evenodd" clip-rule="evenodd" d="M30.4386 54.3145C32.6254 53.9801 33.8993 55.1956 34.101 56.7242C34.3026 58.2529 32.9863 59.0915 30.7995 59.4259C28.6127 59.7603 26.6542 58.9322 26.4525 57.4036C26.2508 55.875 28.2518 54.6489 30.4386 54.3145Z" fill="#382D23"/>
<path fill-rule="evenodd" clip-rule="evenodd" d="M34.9982 35.1588C37.116 35.3446 38.0289 36.7724 37.8803 38.2586C37.7317 39.7394 36.3145 40.2277 34.1967 40.042C32.0789 39.8562 30.4388 38.6301 30.5874 37.1492C30.7414 35.6684 32.8857 34.9731 34.9982 35.1588Z" fill="#382D23"/>
<path fill-rule="evenodd" clip-rule="evenodd" d="M26.2772 55.392C25.4757 55.3124 23.9789 55.8591 22.5352 55.7742C20.4546 55.6521 18.1722 54.9727 18.1722 54.9462C18.1722 54.9462 19.7646 56.926 22.1637 57.5364C22.9757 57.7434 25.3271 58.237 26.2878 57.9504C27.2432 57.6637 27.1105 57.3506 27.0946 56.6393C27.0839 56.0926 27.0786 55.4716 26.2772 55.392Z" fill="black"/>
<path fill-rule="evenodd" clip-rule="evenodd" d="M25.2584 48.9643C24.4622 48.8263 22.9336 49.2615 21.5058 49.0704C19.4411 48.7944 17.2172 47.9452 17.2225 47.924C17.2225 47.924 18.6662 50.0152 21.0122 50.8007C21.8031 51.0661 24.1119 51.7296 25.0886 51.5173C26.0652 51.2997 25.9484 50.9759 25.9856 50.27C26.0121 49.7233 26.0546 49.1023 25.2584 48.9643Z" fill="black"/>
<path fill-rule="evenodd" clip-rule="evenodd" d="M25.5503 40.9709C24.786 40.7214 23.889 40.5144 22.2914 40.3392C20.2214 40.1163 17.2756 40.0845 17.2862 40.0632C17.2862 40.0632 18.8944 41.0664 21.1024 42.181C21.8455 42.5579 24.0323 43.5451 25.0249 43.4761C26.0174 43.4018 25.9484 43.0621 26.0811 42.3668C26.1873 41.8254 26.3147 41.2203 25.5503 40.9709Z" fill="black"/>
<path fill-rule="evenodd" clip-rule="evenodd" d="M30.9005 36.7883C30.1574 36.4805 29.1065 35.3021 27.8007 34.7024C25.9165 33.8372 23.5811 33.3648 23.5705 33.386C23.5705 33.386 25.9271 32.3988 28.3262 32.988C29.1383 33.1843 31.4419 33.8531 32.1425 34.5537C32.8484 35.2544 32.5724 35.4667 32.2168 36.0771C31.9461 36.5548 31.6436 37.0962 30.9005 36.7883Z" fill="black"/>
</g>
</g>
</svg>
