<svg width="32" height="32" viewBox="0 0 32 32" fill="none" xmlns="http://www.w3.org/2000/svg">
<g opacity="0.6">
<path fill-rule="evenodd" clip-rule="evenodd" d="M7.00099 4C7.00099 1.79086 8.79185 0 11.001 0H22.001C24.2101 0 26.001 1.79086 26.001 4V28C26.001 30.2091 24.2101 32 22.001 32H11.001C8.79185 32 7.00099 30.2091 7.00099 28V4ZM9.00002 4.00098C9.00002 2.89641 9.89545 2.00098 11 2.00098H13C13.0005 2.82895 13.6719 3.5 14.5 3.5H18.5C19.3281 3.5 19.9995 2.82895 20 2.00098H22C23.1046 2.00098 24 2.89641 24 4.00098V27.999C24 29.1036 23.1046 29.999 22 29.999H11C9.89545 29.999 9.00002 29.1036 9.00002 27.999V4.00098Z" fill="#F6F6F6"/>
</g>
</svg>
