<svg width="187" height="63" viewBox="0 0 187 63" fill="none" xmlns="http://www.w3.org/2000/svg">
<mask id="mask0" mask-type="alpha" maskUnits="userSpaceOnUse" x="36" y="16" width="114" height="31">
<path fill-rule="evenodd" clip-rule="evenodd" d="M36.6281 16.0197H149.589V46.9804H36.6281V16.0197Z" fill="white"/>
</mask>
<g mask="url(#mask0)">
<path fill-rule="evenodd" clip-rule="evenodd" d="M115.345 42.6026H118.019V16.5105H115.345V42.6026ZM121.449 33.2207L121.33 33.0064L121.262 32.8822L126.097 24.6851L126.255 24.4143L126.312 24.324H123.271L123.096 24.6174L123.164 24.5046L123.096 24.6174L120.168 29.4691L118.797 31.7426C118.724 31.8668 118.662 31.9796 118.605 32.0811C118.6 32.0924 118.594 32.1037 118.583 32.115C118.56 32.1545 118.543 32.1883 118.526 32.2222C118.521 32.2391 118.509 32.2504 118.504 32.2673C118.492 32.2899 118.481 32.3068 118.476 32.335C118.47 32.3407 118.47 32.3463 118.464 32.3519C118.459 32.3689 118.453 32.3858 118.442 32.3971C118.43 32.4196 118.419 32.4478 118.408 32.4704C118.402 32.4817 118.397 32.4986 118.391 32.5155C118.385 32.5381 118.374 32.5607 118.368 32.5832C118.363 32.5945 118.363 32.6114 118.357 32.6227C118.351 32.6453 118.346 32.6622 118.346 32.6848C118.346 32.6961 118.34 32.713 118.34 32.7243C118.335 32.7468 118.335 32.7638 118.335 32.7863C118.335 32.7976 118.329 32.8089 118.335 32.8202V32.8822V32.9161C118.34 32.9387 118.34 32.9612 118.346 32.9838C118.346 32.9894 118.346 33.0007 118.351 33.012C118.357 33.0402 118.368 33.0684 118.374 33.0966L118.38 33.1079C118.419 33.2377 118.492 33.3843 118.594 33.5649C118.6 33.5761 118.605 33.5818 118.611 33.5931C118.639 33.6438 118.667 33.6946 118.701 33.751L123.779 42.6026H126.718L121.449 33.2207Z" fill="#C1C1C1"/>
<path fill-rule="evenodd" clip-rule="evenodd" d="M40.7747 16.8885V16.8997L36.8087 16.6459L36.6281 16.6346V42.6026H40.769V16.8997V16.8885H40.7747ZM57.9362 16.7023V16.7474V16.7023L57.9475 16.4428C57.9193 16.4258 57.8798 16.4033 57.8347 16.3807C57.8234 16.3751 57.8121 16.3694 57.8008 16.3638C57.8121 16.3694 57.8234 16.3751 57.8347 16.3807C57.8234 16.3751 57.8065 16.3694 57.7896 16.3638C57.7783 16.3581 57.767 16.3525 57.7557 16.3469C57.7501 16.3469 57.7444 16.3412 57.7388 16.3412C57.7219 16.3356 57.7049 16.3299 57.688 16.3187C57.6654 16.313 57.6485 16.3017 57.6203 16.2961C57.5865 16.2848 57.5582 16.2735 57.5244 16.2622H57.5131C57.4736 16.251 57.4285 16.2397 57.389 16.2227C57.3777 16.2227 57.3721 16.2171 57.3608 16.2171H57.3552H57.3439C57.3269 16.2115 57.3044 16.2058 57.2875 16.2002C57.2762 16.1945 57.2592 16.1945 57.248 16.1889L57.231 16.1776C57.2198 16.1776 57.2141 16.172 57.2028 16.172L57.1859 16.1663C57.1521 16.1607 57.1238 16.1494 57.09 16.1438L57.0562 16.1381C57.0167 16.1325 56.9828 16.1212 56.9377 16.1156L56.9095 16.1099L56.8813 16.1043C56.8474 16.0986 56.8136 16.093 56.7797 16.0874C56.7684 16.0874 56.7628 16.0874 56.7515 16.0817H56.7402C56.6951 16.0761 56.6556 16.0704 56.6105 16.0648L56.5766 16.0535H56.571H56.5597C56.5202 16.0479 56.4807 16.0422 56.4412 16.0422C56.4243 16.0422 56.4074 16.0366 56.3961 16.0366C56.351 16.0309 56.3058 16.0309 56.2663 16.0253H56.2381H56.2043H56.1986C56.1591 16.0253 56.1197 16.0197 56.0802 16.0197H56.0407H56.0125H56.0012H55.8827C55.7924 16.0197 55.7078 16.0197 55.6176 16.0253H55.5837L55.5329 16.0309C55.4709 16.0366 55.4145 16.0366 55.3524 16.0479C55.3186 16.0535 55.2847 16.0535 55.2509 16.0591C55.1606 16.0704 55.076 16.0817 54.9857 16.0986C54.9293 16.1099 54.8729 16.1212 54.8221 16.1325C54.7939 16.1381 54.76 16.1438 54.7318 16.1551C54.6698 16.172 54.6077 16.1889 54.5457 16.2058C54.5231 16.2115 54.5005 16.2171 54.478 16.2227C54.3933 16.2453 54.3144 16.2735 54.2297 16.3017C54.2072 16.3074 54.1846 16.3187 54.1564 16.3299C54.1 16.3525 54.0436 16.3694 53.9815 16.392C53.9477 16.4033 53.9195 16.4202 53.8856 16.4315C53.8348 16.4541 53.7897 16.471 53.7389 16.4935L53.6487 16.533C53.5753 16.5669 53.5076 16.6007 53.4343 16.6402C53.4174 16.6515 53.3948 16.6571 53.3779 16.6684C53.2932 16.7136 53.2086 16.7643 53.1296 16.8151L53.0563 16.8602C53.0732 16.849 53.0902 16.8377 53.1071 16.8264C53.0902 16.8377 53.0732 16.849 53.0563 16.8602C53.0394 16.8715 53.0225 16.8828 52.9999 16.8941C52.9548 16.9223 52.9153 16.9505 52.8701 16.9787C52.8476 16.9956 52.8194 17.0126 52.7968 17.0295C52.7178 17.0859 52.6388 17.1423 52.5655 17.2044C52.5486 17.2157 52.5316 17.2326 52.5204 17.2439C52.5316 17.2326 52.5429 17.2213 52.5598 17.21C52.5486 17.2213 52.5316 17.2326 52.5204 17.2439C52.4865 17.2664 52.4583 17.2946 52.4301 17.3228C52.4019 17.3454 52.368 17.3736 52.3398 17.3962C52.3285 17.4018 52.3229 17.4131 52.3116 17.4188L52.2665 17.4582C52.2044 17.509 52.148 17.5654 52.0916 17.6219L52.0465 17.6613C52.0126 17.7008 51.9731 17.7347 51.9393 17.7742L51.8434 17.8701L51.7813 17.9378C51.7305 17.9942 51.6854 18.045 51.6403 18.1014C51.6234 18.1239 51.6008 18.1465 51.5839 18.1691C51.55 18.2142 51.5162 18.2593 51.4767 18.3045C51.4541 18.3383 51.4259 18.3665 51.4033 18.4004C51.3977 18.406 51.392 18.4117 51.3864 18.4229C51.3751 18.4342 51.3695 18.4455 51.3582 18.4624L51.3243 18.5076C51.2905 18.5583 51.2567 18.6035 51.2228 18.6543L51.1946 18.6994C51.189 18.7107 51.1777 18.7219 51.172 18.7332C51.1269 18.8066 51.0818 18.8799 51.0366 18.9589C51.031 18.9702 51.0197 18.9815 51.0141 18.9927C50.9633 19.0774 50.9182 19.162 50.873 19.2523C50.8674 19.2579 50.8674 19.2635 50.8617 19.2748C50.8505 19.2974 50.8448 19.3143 50.8335 19.3369C50.7997 19.4046 50.7658 19.4779 50.732 19.5456C50.7207 19.5682 50.7094 19.5907 50.6981 19.619C50.6869 19.6415 50.6812 19.6641 50.6699 19.6867C50.6417 19.7544 50.6135 19.822 50.5853 19.8897C50.5853 19.8954 50.5797 19.8954 50.5797 19.901L50.5571 19.9574C50.5458 19.9913 50.5345 20.0251 50.5233 20.0646C50.512 20.1041 50.495 20.1436 50.4838 20.1887C50.4781 20.2 50.4781 20.2113 50.4725 20.217C50.4668 20.2339 50.4612 20.2564 50.4556 20.2734C50.433 20.3524 50.4104 20.4257 50.3879 20.5103C50.3822 20.5272 50.3766 20.5498 50.3709 20.5667L50.3653 20.5893L50.3709 20.5667C50.3653 20.5837 50.3653 20.6062 50.3596 20.6231C50.3653 20.6119 50.3653 20.6006 50.3653 20.5893C50.3427 20.6908 50.3145 20.798 50.2976 20.9052V20.9165V20.9334C50.2807 21.035 50.2637 21.1309 50.2525 21.2324C50.2468 21.2663 50.2468 21.3001 50.2412 21.334C50.2299 21.4073 50.2242 21.4863 50.2186 21.5596C50.2073 21.695 50.2017 21.8304 50.2017 21.9715V21.9884V46.9804L50.3822 46.9691L54.3482 46.7491V31.7426H57.4567V27.6017H54.3482V21.9884C54.3482 21.1196 55.0478 20.4201 55.8827 20.4201H57.7896L57.9419 16.7925L57.9362 16.7023L57.9475 16.4428L57.9362 16.7023ZM63.7639 31.2067V29.266C63.7639 28.3972 64.4635 27.6976 65.3323 27.6976H65.3549C65.3943 27.6976 65.4282 27.6976 65.4677 27.7033C65.4846 27.7033 65.5072 27.7089 65.5241 27.7089C65.5523 27.7146 65.5805 27.7146 65.6087 27.7202L65.6651 27.7315C65.6933 27.7371 65.7216 27.7428 65.7498 27.7541C65.7667 27.7597 65.7836 27.7597 65.8005 27.7653C65.84 27.7766 65.8852 27.7935 65.9246 27.8105C65.9359 27.8161 65.9472 27.8218 65.9585 27.8274C65.9867 27.8387 66.0149 27.8556 66.0431 27.8725C66.06 27.8838 66.0713 27.8894 66.0883 27.9007C66.1277 27.9233 66.1672 27.9515 66.2067 27.9741C66.2349 27.991 66.2575 28.0136 66.2857 28.0361C66.297 28.0418 66.3083 28.0531 66.3139 28.0587C66.3478 28.0869 66.3816 28.1151 66.4098 28.149L66.4324 28.1772C66.455 28.1997 66.4775 28.2279 66.5001 28.2505L66.5283 28.2844C66.5565 28.3238 66.5847 28.3577 66.6073 28.3972C66.6298 28.431 66.6524 28.4649 66.6693 28.5044C66.6693 28.51 66.675 28.51 66.675 28.5157C66.6975 28.5552 66.7145 28.6003 66.737 28.6454C66.7427 28.6567 66.7427 28.668 66.7483 28.6793C66.7596 28.7018 66.7652 28.7244 66.7765 28.747C66.7822 28.7582 66.7822 28.7695 66.7878 28.7808C66.7934 28.7977 66.7991 28.8147 66.8047 28.8259C66.816 28.8711 66.8273 28.9219 66.8386 28.9726L66.8555 29.0742C66.8611 29.1362 66.8668 29.2039 66.8668 29.266V31.2067H63.9388H63.7639ZM71.0133 29.2096C71.0133 29.1362 71.0133 29.0629 71.0077 28.9895V28.9726V28.9557C71.0077 28.9219 71.002 28.888 71.002 28.8542C70.9964 28.7977 70.9964 28.7357 70.9851 28.6793C70.9795 28.6341 70.9738 28.5946 70.9682 28.5495C70.9625 28.4931 70.9513 28.4367 70.9456 28.3803C70.94 28.3408 70.9343 28.3013 70.923 28.2674V28.2505C70.9118 28.1941 70.9005 28.1433 70.8948 28.0869L70.8723 27.9797L70.8666 27.9571L70.8497 27.8782C70.8441 27.85 70.8384 27.8274 70.8328 27.7992L70.8159 27.7371C70.8102 27.7146 70.8046 27.692 70.7989 27.6751C70.782 27.6243 70.7707 27.5735 70.7538 27.5227C70.7256 27.4325 70.6917 27.3366 70.6579 27.2463C70.641 27.2068 70.6297 27.1673 70.6128 27.1222C70.5902 27.0714 70.5733 27.0263 70.5507 26.9755C70.5394 26.9473 70.5281 26.9191 70.5112 26.8909L70.4887 26.8401C70.4774 26.8176 70.4661 26.795 70.4604 26.7781C70.4322 26.716 70.3984 26.654 70.3645 26.5919C70.3589 26.5806 70.3533 26.5693 70.3476 26.558C70.3025 26.4791 70.263 26.4057 70.2179 26.3267L70.1953 26.2929C70.1614 26.2365 70.1276 26.1857 70.0881 26.1293C70.0768 26.1124 70.0655 26.0898 70.0486 26.0729C70.0317 26.0447 70.0091 26.0165 69.9866 25.9883C69.9132 25.8811 69.8342 25.7795 69.7496 25.678C69.7383 25.661 69.7214 25.6441 69.7101 25.6272C69.6706 25.5764 69.6255 25.5313 69.586 25.4805C69.5747 25.4692 69.5691 25.4579 69.5578 25.4523L69.5465 25.4354C69.5296 25.4128 69.507 25.3959 69.4901 25.3733C69.4506 25.3338 69.4168 25.2943 69.3773 25.2549L69.3716 25.2492L69.3547 25.2323C69.3039 25.1815 69.2532 25.1307 69.2024 25.0856L69.1516 25.0405C69.1121 25.0066 69.0783 24.9728 69.0388 24.9446L68.9993 24.9107C68.988 24.8994 68.9767 24.8938 68.9654 24.8825C68.9203 24.8487 68.8752 24.8092 68.8357 24.7753C68.8131 24.7584 68.7962 24.7415 68.7736 24.7302C68.7567 24.7189 68.7454 24.7076 68.7285 24.6963C68.6777 24.6568 68.6213 24.6174 68.5705 24.5835L68.5141 24.544C68.4521 24.4989 68.3844 24.4594 68.3167 24.4199C68.311 24.4199 68.311 24.4143 68.3054 24.4143C68.2546 24.3861 68.2038 24.3522 68.1531 24.324C68.1305 24.3127 68.1136 24.3014 68.091 24.2901C68.0741 24.2845 68.0628 24.2732 68.0459 24.2676C68.0402 24.2676 68.0402 24.2619 68.0346 24.2619L67.9161 24.1886C67.8879 24.1717 67.8653 24.1604 67.8371 24.1491C67.8258 24.1435 67.8202 24.1378 67.8089 24.1378C67.7976 24.1322 67.792 24.1265 67.7807 24.1265L67.5945 24.0419C67.5833 24.0363 67.5663 24.0306 67.5551 24.025L67.5438 24.0194L67.5325 24.0137H67.5268C67.4591 23.9855 67.3914 23.9573 67.3181 23.9291L67.2504 23.9065C67.1884 23.884 67.1207 23.8614 67.0586 23.8388C67.0417 23.8332 67.0247 23.8275 67.0078 23.8219C66.9345 23.7993 66.8668 23.7768 66.7934 23.7598C66.7822 23.7598 66.7765 23.7542 66.7652 23.7542C66.7483 23.7486 66.7314 23.7429 66.7145 23.7429C66.7032 23.7373 66.6863 23.7373 66.675 23.7316C66.6242 23.7204 66.5678 23.7091 66.517 23.6921C66.5057 23.6921 66.4944 23.6865 66.4832 23.6865L66.4493 23.6809C66.3139 23.6527 66.1729 23.6301 66.0375 23.6132C65.919 23.5962 65.7949 23.585 65.6764 23.5793C65.6651 23.5793 65.6482 23.5737 65.6369 23.5737H65.6144H65.6087C65.5749 23.5737 65.541 23.5737 65.5072 23.568C65.4508 23.568 65.4 23.5624 65.3436 23.5624C65.2872 23.5624 65.2364 23.5624 65.18 23.568H65.1518H65.0897H65.0446C64.9938 23.568 64.9374 23.5737 64.8866 23.5793H64.881C64.8471 23.5793 64.8189 23.585 64.7851 23.585H64.7512C64.6948 23.5906 64.6384 23.5962 64.582 23.6075C64.5425 23.6132 64.503 23.6188 64.4635 23.6244C64.4071 23.6357 64.3507 23.6414 64.2942 23.6527L64.2209 23.6639L64.1758 23.6696C64.1363 23.6752 64.0968 23.6865 64.0573 23.6978L64.0234 23.7034C63.984 23.7091 63.9445 23.7204 63.8993 23.7316C63.8429 23.7486 63.7921 23.7598 63.7357 23.7768C63.7301 23.7768 63.7301 23.7768 63.7244 23.7824C63.6906 23.7937 63.6567 23.7993 63.6229 23.8106L63.606 23.8163C63.5665 23.8275 63.5214 23.8445 63.4819 23.8557L63.4537 23.867L63.3634 23.8952H63.3521L63.2731 23.9291L63.2224 23.9517L63.1829 23.9686C63.1547 23.9799 63.1208 23.9911 63.0926 24.0024C63.0813 24.0081 63.0644 24.0137 63.0531 24.0194C63.0193 24.0363 62.9854 24.0476 62.9516 24.0645C62.9403 24.0701 62.929 24.0758 62.9177 24.0758C62.8895 24.0871 62.8669 24.0983 62.8387 24.1096C62.7936 24.1322 62.7485 24.1548 62.709 24.1773C62.6977 24.183 62.6808 24.1942 62.6638 24.1999L62.5905 24.2394C62.5623 24.2563 62.5284 24.2732 62.5002 24.2901C62.472 24.3071 62.4495 24.3184 62.4213 24.3353C62.3987 24.3466 62.3761 24.3578 62.3536 24.3748C62.331 24.3917 62.3028 24.4086 62.2802 24.4255H62.2746L62.2576 24.4368L62.1787 24.4876C62.1617 24.4989 62.1392 24.5102 62.1223 24.5215C62.094 24.544 62.0602 24.5609 62.032 24.5835C62.0038 24.6061 61.9756 24.623 61.9417 24.6456L61.8966 24.6794C61.8909 24.6851 61.8797 24.6907 61.874 24.6963C61.8627 24.702 61.8571 24.7133 61.8458 24.7189C61.8007 24.7528 61.7612 24.7866 61.7217 24.8205C61.7104 24.8317 61.6935 24.843 61.6822 24.8487L61.6766 24.8543L61.6427 24.8825C61.5976 24.922 61.5525 24.9615 61.5073 25.001C61.496 25.0123 61.4904 25.0179 61.4791 25.0235L61.4678 25.0292C61.4114 25.08 61.355 25.1364 61.2986 25.1928L61.2817 25.2097L61.197 25.2943C61.1801 25.3113 61.1688 25.3282 61.1519 25.3451C61.135 25.362 61.1181 25.379 61.1068 25.3959C61.1011 25.4015 61.0955 25.4072 61.0955 25.4128C61.0447 25.4692 60.9939 25.5313 60.9432 25.5933L60.9375 25.599C60.9206 25.6159 60.9093 25.6328 60.8924 25.6498L60.8698 25.678C60.8303 25.7287 60.7908 25.7852 60.7514 25.8359C60.7232 25.8754 60.6893 25.9149 60.6611 25.96C60.599 26.0447 60.5426 26.1349 60.4862 26.2196L60.4693 26.2478L60.4467 26.2929C60.4298 26.3211 60.4129 26.355 60.3959 26.3832C60.3565 26.4509 60.3226 26.5186 60.2831 26.5806C60.2775 26.5975 60.2662 26.6145 60.2549 26.6314C60.2211 26.6934 60.1928 26.7555 60.1646 26.8176C60.1364 26.874 60.1082 26.9304 60.0857 26.9924C60.0292 27.1166 59.9785 27.2463 59.939 27.3761C59.9277 27.4099 59.9108 27.4494 59.8995 27.4889C59.8938 27.5002 59.8938 27.5115 59.8882 27.5284C59.8544 27.6412 59.8205 27.7541 59.7923 27.8669V27.8725C59.6795 28.3238 59.6231 28.7865 59.6231 29.2491V37.1359V37.1472C59.6231 37.2544 59.6287 37.3672 59.6343 37.4744L59.64 37.576C59.6456 37.6662 59.6569 37.7621 59.6682 37.8524C59.6738 37.875 59.6738 37.8975 59.6738 37.9257C59.6907 38.0386 59.7077 38.1458 59.7246 38.253L59.7415 38.3432C59.7584 38.4278 59.7754 38.5125 59.7979 38.5971C59.8036 38.6253 59.8149 38.6591 59.8205 38.6874C59.8544 38.8171 59.8938 38.9469 59.939 39.0766C59.9672 39.1612 59.9954 39.2459 60.0292 39.3305L60.0687 39.4264C60.1082 39.5279 60.1534 39.6295 60.1985 39.7254L60.2154 39.7592L60.3508 40.03L60.3677 40.0639C60.379 40.0865 60.3903 40.109 60.4072 40.1316C60.4411 40.188 60.4749 40.2501 60.5088 40.3065C60.5257 40.3403 60.5483 40.3685 60.5652 40.4024C60.6216 40.487 60.6724 40.5716 60.7288 40.6562C60.7344 40.6675 60.7457 40.6788 60.7514 40.6845C60.8021 40.7578 60.8585 40.8311 60.915 40.9045L60.977 40.9835C61.0222 41.0399 61.0673 41.0906 61.1124 41.1471C61.135 41.1696 61.1575 41.2035 61.1858 41.226C61.2365 41.2825 61.2929 41.3389 61.3437 41.3953L61.3945 41.4517C61.4678 41.525 61.5412 41.5927 61.6145 41.6548C61.6371 41.6717 61.6596 41.6887 61.6766 41.7056C61.733 41.7563 61.7894 41.8015 61.8515 41.8466C61.8797 41.8692 61.9079 41.8917 61.9361 41.9087C61.9925 41.9482 62.0489 41.9933 62.1053 42.0271C62.2125 42.1005 62.3253 42.1738 62.4438 42.2359C62.4551 42.2415 62.4664 42.2472 62.4777 42.2528C62.5567 42.2979 62.6413 42.3431 62.7259 42.3769L62.8218 42.4221C62.8839 42.4503 62.9516 42.4785 63.0136 42.5067C63.0475 42.518 63.0813 42.5349 63.1208 42.5462C63.1885 42.5744 63.2618 42.5969 63.3295 42.6195C63.3577 42.6251 63.386 42.6364 63.4142 42.6477C63.5101 42.6759 63.6116 42.7041 63.7132 42.7267C63.7414 42.7323 63.7752 42.738 63.8091 42.7493C63.8824 42.7662 63.9558 42.7775 64.0291 42.7887C64.0686 42.7944 64.1081 42.8 64.1476 42.8057C64.2209 42.817 64.2886 42.8226 64.3619 42.8282C64.4014 42.8339 64.4409 42.8339 64.4804 42.8395C64.5763 42.8452 64.6779 42.8508 64.7794 42.8508H64.8133C64.9599 42.8508 65.1066 42.8452 65.2533 42.8339C65.4056 42.8226 65.5523 42.8057 65.7046 42.7775L69.1629 42.2528L69.445 42.2133L69.366 40.1598L69.3265 39.0823L69.3209 38.9525L69.3152 38.8171L69.3096 38.7268H65.3041C65.2533 38.7268 65.1969 38.7212 65.1461 38.7156C65.1236 38.7156 65.101 38.7099 65.0784 38.7043C65.022 38.6986 64.9599 38.6817 64.9035 38.6648H64.8979C64.8584 38.6535 64.8245 38.6422 64.7907 38.6309C64.7738 38.6253 64.7512 38.6197 64.7343 38.6084C64.6835 38.5858 64.6327 38.5632 64.582 38.5407C64.5763 38.535 64.5707 38.535 64.565 38.5294C64.5199 38.5012 64.4748 38.4786 64.4353 38.4448C64.4184 38.4335 64.4071 38.4222 64.3902 38.4109C64.3563 38.3883 64.3281 38.3658 64.2999 38.3376C64.283 38.3207 64.2717 38.3094 64.2548 38.2981C64.2265 38.2699 64.1983 38.2417 64.1701 38.2078C64.1588 38.1965 64.1476 38.1853 64.1363 38.1683C64.0968 38.1232 64.0629 38.0837 64.0347 38.0329C64.0347 38.0329 64.0347 38.0273 64.0291 38.0273C64.0065 37.9878 63.984 37.954 63.9614 37.9145C63.9558 37.9032 63.9501 37.8863 63.9388 37.875C63.9219 37.8468 63.9106 37.8186 63.8993 37.7847C63.8937 37.7734 63.8881 37.7565 63.8824 37.7452C63.8655 37.7057 63.8542 37.6662 63.8373 37.6267C63.8373 37.6211 63.8316 37.6211 63.8316 37.6155C63.8204 37.5703 63.8091 37.5251 63.7978 37.4857L63.7921 37.4406C63.7865 37.4067 63.7809 37.3785 63.7752 37.3447L63.7696 37.2939C63.7639 37.2488 63.7639 37.2036 63.7639 37.1641V37.1529V35.3476H68.9429C70.0825 35.3532 71.0077 34.4336 71.0133 33.2997V33.2771V29.266C71.0133 29.2491 71.0133 29.2265 71.0133 29.2096ZM84.5756 29.5029C84.5756 29.4183 84.5699 29.3337 84.5699 29.2491C84.5699 29.2152 84.5643 29.1814 84.5643 29.1532V29.1419C84.5586 29.0798 84.553 29.0234 84.5474 28.9613V28.9557C84.5417 28.9162 84.5417 28.8824 84.5361 28.8429V28.8372C84.5304 28.7808 84.5248 28.7244 84.5135 28.668V28.6623V28.6454C84.5079 28.6116 84.5022 28.5777 84.4966 28.5439V28.5382C84.4853 28.4818 84.474 28.431 84.4627 28.3746V28.369C84.4571 28.3464 84.4515 28.3182 84.4458 28.2956L84.4402 28.2561C84.4289 28.1997 84.412 28.1377 84.395 28.0813V28.0756C84.3894 28.0418 84.3781 28.0136 84.3725 27.9797C84.3499 27.8951 84.3217 27.8105 84.2991 27.7315V27.7258C84.2935 27.7146 84.2879 27.6976 84.2822 27.6864C84.2596 27.6187 84.2371 27.551 84.2089 27.4889C84.2032 27.4776 84.1976 27.4607 84.1919 27.4438C84.1863 27.4268 84.1807 27.4099 84.1694 27.393C84.1637 27.3817 84.1581 27.3704 84.1525 27.3535C84.1299 27.2914 84.1017 27.235 84.0791 27.173L84.0565 27.1222C84.0058 27.0207 83.955 26.9191 83.9042 26.8176C83.8986 26.8063 83.8929 26.8006 83.8873 26.7893C83.8478 26.716 83.8027 26.637 83.7575 26.5637C83.7463 26.5468 83.735 26.5242 83.7237 26.5073C83.7181 26.5016 83.7181 26.496 83.7124 26.4903C83.7068 26.4791 83.6955 26.4678 83.6898 26.4509C83.6673 26.417 83.6504 26.3888 83.6278 26.355L83.6052 26.3155C83.5996 26.3042 83.5939 26.2985 83.5883 26.2873C83.577 26.2647 83.5601 26.2478 83.5488 26.2252C83.5319 26.2026 83.515 26.1744 83.498 26.1519C83.436 26.0672 83.3683 25.977 83.3006 25.898C83.2329 25.8134 83.1652 25.74 83.0919 25.661C83.0806 25.6498 83.0693 25.6385 83.058 25.6272L83.0298 25.599C82.9677 25.5369 82.9057 25.4749 82.8436 25.4128C82.8267 25.4015 82.8154 25.3846 82.7985 25.3677C82.7195 25.2943 82.6405 25.2266 82.5615 25.1589C82.5446 25.142 82.5221 25.1307 82.5051 25.1138C82.4374 25.0574 82.3697 25.0066 82.2964 24.9558C82.2738 24.9389 82.2569 24.9276 82.2343 24.9107C82.1441 24.8487 82.0594 24.7922 81.9635 24.7358C81.9523 24.7302 81.9466 24.7245 81.941 24.7189C81.8563 24.6681 81.7717 24.623 81.6871 24.5779C81.6645 24.5666 81.642 24.5553 81.6138 24.544C81.5235 24.4989 81.4332 24.4594 81.3373 24.4199C81.3317 24.4199 81.326 24.4143 81.3204 24.4143C81.2188 24.3748 81.1173 24.3353 81.0157 24.3014C81.0045 24.2958 80.9931 24.2958 80.9875 24.2901C80.9763 24.2845 80.9649 24.2845 80.9481 24.2789C80.8634 24.2507 80.7732 24.2281 80.6829 24.2055L80.6491 24.1999L80.6209 24.1942C80.5137 24.166 80.4065 24.1491 80.2993 24.1265L80.2542 24.1209C80.1357 24.104 80.0116 24.0871 79.8931 24.0814H79.8705C79.7915 24.0758 79.7126 24.0701 79.6392 24.0701H79.5546H79.532H79.5151C79.4361 24.0701 79.3515 24.0701 79.2669 24.0758H79.25H79.2218H79.2048C79.1202 24.0758 79.0356 24.0814 78.9566 24.0871H78.9397H78.9228H78.9171C78.8156 24.0927 78.714 24.0983 78.6181 24.104H78.6125H78.6068L78.4489 24.1153L78.6012 24.104H78.5899C78.5617 24.104 78.5391 24.1096 78.5109 24.1096C78.4489 24.1153 78.3812 24.1209 78.3191 24.1265H78.3135H78.3022C78.2909 24.1265 78.2796 24.1265 78.2683 24.1322L78.0596 24.1548C78.0201 24.1604 77.9863 24.1604 77.9468 24.166H77.9411H77.9298C77.8904 24.1717 77.8509 24.1773 77.8114 24.183C77.7437 24.1942 77.676 24.1999 77.6139 24.2112L77.5293 24.2281C77.5067 24.2337 77.4898 24.2337 77.4672 24.2394C77.4108 24.2507 77.3544 24.2619 77.3036 24.2732C77.2134 24.2901 77.1231 24.3127 77.0385 24.3353L77.0216 24.3409C77.0159 24.3409 77.0159 24.3409 77.0103 24.3466C76.9539 24.3635 76.9031 24.3748 76.8523 24.3917H76.8467V16.4428H74.1726V42.6026H76.8467V26.9642H79.3854H79.4079C79.4813 26.9642 79.549 26.9699 79.6223 26.9755C79.6505 26.9755 79.6787 26.9812 79.7069 26.9868C79.7577 26.9924 79.8141 26.9981 79.8649 27.0094C79.9552 27.0263 80.0398 27.0432 80.1244 27.0714C80.1413 27.0771 80.1526 27.0771 80.1695 27.0827C80.2429 27.1053 80.3106 27.1278 80.3783 27.156C80.4008 27.1673 80.4234 27.173 80.446 27.1843C80.4967 27.2068 80.5419 27.2294 80.587 27.252C80.6096 27.2632 80.6321 27.2745 80.6547 27.2858C80.7055 27.314 80.7506 27.3422 80.8014 27.3704C80.8183 27.3817 80.8352 27.3874 80.8465 27.3986C80.9086 27.4381 80.965 27.4833 81.027 27.5284L81.0722 27.5679C81.1173 27.6017 81.1568 27.6412 81.1963 27.6751L81.2527 27.7315C81.2922 27.771 81.326 27.8105 81.3655 27.85C81.3768 27.8669 81.3937 27.8782 81.405 27.8951C81.4502 27.9515 81.4952 28.0079 81.5404 28.07L81.5686 28.1095C81.6025 28.1602 81.6307 28.211 81.6589 28.2618L81.6927 28.3295C81.7153 28.3746 81.7379 28.4254 81.7604 28.4762C81.7717 28.4987 81.783 28.5157 81.7887 28.5382C81.7943 28.5439 81.7943 28.5552 81.7999 28.5608C81.8112 28.5946 81.8281 28.6285 81.8394 28.668C81.8507 28.7018 81.8619 28.7357 81.8733 28.7695C81.8901 28.8203 81.9015 28.8711 81.9127 28.9219C81.9184 28.9501 81.9297 28.9839 81.9353 29.0121C81.9466 29.0742 81.9579 29.1362 81.9635 29.1983C81.9691 29.2209 81.9691 29.2434 81.9748 29.266C81.9861 29.3506 81.9861 29.4409 81.9861 29.5255V42.5913H84.5924V29.5368C84.5756 29.5255 84.5756 29.5142 84.5756 29.5029ZM90.8941 38.9187C90.8772 38.8904 90.8602 38.8622 90.8433 38.834C90.8377 38.8171 90.8264 38.8058 90.8208 38.7889C90.7869 38.7212 90.7531 38.6591 90.7248 38.5914C90.7192 38.5745 90.7136 38.5632 90.7079 38.5463C90.6854 38.4899 90.6628 38.4335 90.6459 38.3714C90.6402 38.3489 90.6346 38.3319 90.6289 38.315C90.6064 38.2417 90.5895 38.1683 90.5725 38.095C90.5669 38.0781 90.5669 38.0668 90.5669 38.0499C90.5556 37.9878 90.5443 37.9257 90.5387 37.8637L90.533 37.7903C90.5274 37.717 90.5218 37.6437 90.5218 37.5703V37.5534V35.6127C90.5161 34.9301 90.7869 34.27 91.2721 33.7905C91.7573 33.3053 92.4117 33.0402 93.0999 33.0402H95.6725V37.5534C95.6725 37.8524 95.6217 38.1401 95.5314 38.4053C95.2155 39.3418 94.3862 40.0413 93.3651 40.1429C93.2748 40.1542 93.1902 40.1542 93.0999 40.1542C93.004 40.1542 92.9025 40.1485 92.8066 40.1372C92.7332 40.1316 92.6543 40.1203 92.5809 40.1034L92.564 40.0977C92.4963 40.0808 92.4286 40.0639 92.3609 40.0413H92.3496L92.3101 40.03C92.2311 40.0018 92.1522 39.9736 92.0732 39.9398C92.0112 39.9116 91.9548 39.8834 91.8927 39.8495C91.8757 39.8439 91.8645 39.8326 91.8475 39.8269C91.7855 39.7931 91.7235 39.7536 91.6613 39.7141C91.6501 39.7085 91.6444 39.7028 91.6331 39.6915C91.5824 39.6577 91.5259 39.6182 91.4808 39.5731C91.4696 39.5618 91.4582 39.5505 91.447 39.5449C91.3906 39.4997 91.3398 39.449 91.289 39.3982C91.2778 39.3925 91.2721 39.3756 91.2608 39.37C91.2157 39.3248 91.1762 39.2797 91.131 39.2289C91.1198 39.2177 91.1141 39.2064 91.1028 39.1951C91.0577 39.1387 91.0126 39.0823 90.9731 39.0202C90.9618 39.0089 90.9562 38.992 90.9449 38.9807C90.9279 38.9581 90.911 38.9412 90.8941 38.9187C90.8997 38.9187 90.8997 38.9187 90.8941 38.9187ZM98.2732 29.5086C98.2732 29.4578 98.2732 29.407 98.2676 29.3562C98.2676 29.3224 98.2619 29.2829 98.2619 29.2491L98.2563 29.1475L98.2507 29.0967C98.245 29.0572 98.245 29.0178 98.2394 28.9783C98.2337 28.9331 98.2281 28.888 98.2225 28.8429C98.2168 28.809 98.2112 28.7695 98.2055 28.7357V28.73C98.1999 28.7018 98.1999 28.6736 98.1942 28.6511C98.1886 28.6285 98.1886 28.6116 98.183 28.589C98.1773 28.5552 98.1717 28.5269 98.166 28.4931L98.1604 28.4762C98.1548 28.4536 98.1548 28.4367 98.1491 28.4141C98.1435 28.3859 98.1378 28.3577 98.1322 28.3295C98.1265 28.2956 98.1153 28.2618 98.1096 28.2223L98.0871 28.149C98.0814 28.1264 98.0758 28.1038 98.0701 28.0813L98.0419 27.991C98.0419 27.9854 98.0419 27.9854 98.0363 27.9797C98.025 27.9515 98.0194 27.9177 98.0081 27.8894C98.0024 27.8725 97.9968 27.8556 97.9911 27.8387C97.9799 27.8048 97.9686 27.771 97.9573 27.7371C97.9686 27.7597 97.9742 27.7879 97.9799 27.8105C97.9742 27.7879 97.9629 27.7597 97.9573 27.7371L97.9065 27.6017C97.8952 27.5679 97.884 27.534 97.867 27.5002V27.4945C97.8501 27.4607 97.8388 27.4212 97.8219 27.3874C97.8219 27.3817 97.8163 27.3704 97.8163 27.3648C97.7993 27.3253 97.7824 27.2914 97.7655 27.252C97.7598 27.2407 97.7542 27.2237 97.7429 27.2125L97.726 27.1786C97.6865 27.0996 97.647 27.015 97.6075 26.936L97.585 26.8909C97.5793 26.8853 97.5793 26.874 97.5737 26.8683C97.5229 26.7724 97.4665 26.6765 97.4101 26.5806C97.4044 26.5693 97.3931 26.5524 97.3819 26.5411C97.3311 26.4621 97.2803 26.3832 97.2239 26.3042C97.2183 26.2929 97.207 26.2816 97.2013 26.2703L97.1731 26.2308C97.1167 26.1519 97.0547 26.0729 96.9926 25.9995C96.987 25.9883 96.9757 25.9826 96.97 25.9713C96.9023 25.8867 96.829 25.8077 96.75 25.7287C96.6767 25.6554 96.6033 25.5821 96.53 25.5087C96.5187 25.5031 96.5131 25.4918 96.5018 25.4862C96.4792 25.4692 96.4623 25.4467 96.4397 25.4297C96.3607 25.3564 96.2761 25.2887 96.1915 25.221L96.1464 25.1872C96.1407 25.1815 96.1351 25.1815 96.1294 25.1759C96.0617 25.1195 95.9884 25.0687 95.9207 25.0179C95.8079 24.9446 95.7007 24.8712 95.5822 24.7979C95.5766 24.7979 95.5709 24.7922 95.5709 24.7922L95.554 24.781C95.3509 24.6625 95.1422 24.5609 94.9278 24.4763C94.9222 24.4707 94.9109 24.4707 94.9052 24.465C94.7811 24.4143 94.657 24.3691 94.5272 24.3296C94.5047 24.324 94.4765 24.3127 94.4483 24.3071C94.4201 24.3014 94.3918 24.2958 94.3693 24.2845C94.3072 24.2676 94.2452 24.2507 94.1775 24.2337C94.1718 24.2337 94.1662 24.2337 94.1662 24.2281C94.138 24.2224 94.1098 24.2168 94.0816 24.2055C94.0534 24.1999 94.0195 24.1942 93.9913 24.1886C93.901 24.1717 93.8164 24.1491 93.7261 24.1378V24.1322H93.7036C93.5682 24.1153 93.4328 24.0983 93.2974 24.0871H93.2692C93.2297 24.0871 93.1902 24.0814 93.1507 24.0814C93.0774 24.0758 93.0097 24.0758 92.9363 24.0701H92.8573H92.8066H92.7276C92.4286 24.0814 92.1352 24.1096 91.8419 24.1548L91.8193 24.1604C91.6726 24.183 91.5259 24.2055 91.3849 24.2337H91.3793L91.3623 24.2394C91.2382 24.2619 91.1141 24.2901 90.99 24.3184L90.9279 24.3296L90.9054 24.3353C90.7023 24.3804 90.5048 24.4312 90.3074 24.4876C90.3017 24.4876 90.3017 24.4876 90.2961 24.4932C90.2058 24.5158 90.1212 24.544 90.0366 24.5722H90.0253L90.0084 24.5779C89.9181 24.6061 89.8335 24.6343 89.7432 24.6625C89.7319 24.6681 89.7207 24.6681 89.7094 24.6738C89.6812 24.6851 89.653 24.6963 89.6191 24.702L89.5796 24.7133C89.5627 24.7189 89.5458 24.7245 89.5288 24.7302C89.4894 24.7415 89.4555 24.7584 89.416 24.7697C89.416 24.8148 89.4217 24.8599 89.4217 24.9051V24.922C89.4217 24.9446 89.4217 24.9615 89.4273 24.9841C89.4329 25.0292 89.4329 25.08 89.4329 25.1251C89.4386 25.2266 89.4442 25.3282 89.4499 25.4241L89.4668 25.7175V25.7231C89.4724 25.7682 89.4724 25.8077 89.4724 25.8529L89.4781 25.9206V25.9713C89.4781 25.9995 89.4837 26.0277 89.4837 26.0559V26.0898L89.4894 26.2026C89.4894 26.2252 89.4894 26.2478 89.495 26.2703V26.338C89.495 26.3606 89.495 26.3775 89.5006 26.4001L89.5063 26.4734C89.5063 26.496 89.5063 26.5186 89.5119 26.5411L89.5176 26.6257V26.6934C89.5176 26.7442 89.5232 26.795 89.5232 26.8514L89.6868 26.8401C89.7319 26.8401 89.7771 26.8345 89.8222 26.8345C89.8955 26.8288 89.9689 26.8232 90.0422 26.8176L90.313 26.795L90.4597 26.7837L91.3906 26.716C91.4357 26.716 91.4752 26.7104 91.5203 26.7047L91.8306 26.6822C91.8983 26.6765 91.966 26.6709 92.0393 26.6709C92.1183 26.6652 92.1917 26.6596 92.2706 26.654C92.3609 26.6483 92.4455 26.6427 92.5301 26.637C92.5866 26.637 92.643 26.6314 92.6937 26.6257C92.8348 26.6201 92.9702 26.6145 93.0999 26.6088H93.0661C93.2015 26.5919 93.3312 26.5863 93.4666 26.5863C93.5569 26.5863 93.6415 26.5919 93.7205 26.5975C93.7431 26.5975 93.76 26.6032 93.7826 26.6032C93.8615 26.6088 93.9405 26.6201 94.0195 26.637C94.0928 26.654 94.1662 26.6709 94.2339 26.6934C94.2508 26.6991 94.2677 26.7047 94.2903 26.7104C94.358 26.7329 94.4201 26.7555 94.4821 26.7837C94.4878 26.7837 94.4878 26.7837 94.4878 26.7893C94.5498 26.8176 94.6062 26.8514 94.6626 26.8853L94.7078 26.9135C94.7585 26.9473 94.815 26.9812 94.8601 27.0207L94.8657 27.0263C94.9165 27.0658 94.9616 27.1109 95.0068 27.1504C95.0181 27.1617 95.0293 27.173 95.0406 27.1899C95.0858 27.235 95.1252 27.2858 95.1704 27.3366C95.2099 27.3874 95.2437 27.4381 95.2776 27.4889C95.2889 27.5058 95.2945 27.5227 95.3058 27.534C95.334 27.5848 95.3622 27.6356 95.3904 27.692C95.396 27.6976 95.396 27.7033 95.4017 27.7146C95.4243 27.7597 95.4412 27.7992 95.4581 27.8443V27.85C95.4581 27.8556 95.4637 27.8612 95.4637 27.8725C95.5314 28.0418 95.5766 28.2279 95.6104 28.4198C95.6161 28.448 95.6217 28.4762 95.6217 28.5044C95.633 28.5777 95.6386 28.6511 95.6499 28.7244C95.6499 28.7526 95.6555 28.7808 95.6555 28.8147C95.6612 28.9162 95.6668 29.0178 95.6668 29.1193V31.2236C95.633 31.2123 95.5991 31.2067 95.5653 31.1954C95.5427 31.1897 95.5258 31.1841 95.5032 31.1785L95.4694 31.1728C95.458 31.1672 95.4412 31.1672 95.4298 31.1615C95.413 31.1559 95.396 31.1503 95.3791 31.1503C95.3622 31.1446 95.3452 31.139 95.3227 31.139C95.317 31.139 95.3114 31.1333 95.3058 31.1333C95.2888 31.1277 95.2663 31.1277 95.2494 31.122L95.2324 31.1164C95.2155 31.1108 95.1929 31.1051 95.176 31.1051C95.1591 31.0995 95.1365 31.0995 95.1196 31.0938C95.097 31.0882 95.0745 31.0826 95.0519 31.0769C95.0293 31.0713 95.0124 31.0713 94.9899 31.0656C94.9673 31.06 94.9447 31.06 94.9221 31.0544C94.8996 31.0487 94.877 31.0431 94.8488 31.0431C94.8262 31.0374 94.8037 31.0374 94.7868 31.0318L94.7078 31.0205C94.6908 31.0149 94.6682 31.0149 94.6514 31.0092L94.6175 31.0036C94.6006 30.9979 94.578 30.9979 94.5611 30.9923C94.5442 30.9923 94.5272 30.9867 94.5103 30.9867H94.499C94.4708 30.981 94.4426 30.981 94.4144 30.9754L94.3693 30.9697L94.3242 30.9641C94.3015 30.9584 94.279 30.9584 94.2508 30.9584L94.2169 30.9528C94.1718 30.9472 94.1267 30.9472 94.0816 30.9415H94.0703C94.0026 30.9359 93.9348 30.9302 93.8615 30.9302C93.8333 30.9302 93.8051 30.9302 93.7769 30.9246H93.7713C93.7261 30.9246 93.6754 30.919 93.6245 30.919H93.619H93.5513C93.4948 30.919 93.4441 30.9133 93.3877 30.9133H93.3369H93.3312H93.3256H93.2974H93.2635H93.1112H93.1056H93.0097C92.9476 30.9133 92.8856 30.9133 92.8291 30.919H92.8235H92.7953C92.7614 30.919 92.7276 30.9246 92.6937 30.9246L92.5471 30.9302C92.5301 30.9302 92.5132 30.9359 92.4963 30.9359C92.4681 30.9359 92.4455 30.9415 92.4173 30.9415C92.3891 30.9415 92.3665 30.9472 92.3383 30.9472C92.3214 30.9472 92.2988 30.9528 92.2819 30.9528L92.1917 30.9641L92.1578 30.9697C92.1296 30.9754 92.1014 30.981 92.0675 30.981C92.0506 30.981 92.0337 30.9867 92.0168 30.9867L91.8926 31.0092C91.8701 31.0149 91.8475 31.0205 91.8193 31.0261C91.7967 31.0318 91.7742 31.0374 91.7516 31.0374H91.746C91.7121 31.0431 91.6726 31.0544 91.6388 31.06C91.6049 31.0656 91.5711 31.0769 91.5372 31.0826C91.5147 31.0882 91.4977 31.0938 91.4752 31.0995H91.4695C91.4244 31.1108 91.3849 31.122 91.3398 31.1333C91.2777 31.1503 91.2213 31.1672 91.1592 31.1897C91.1254 31.201 91.0972 31.2123 91.0633 31.2236H91.0577C91.0126 31.2405 90.9731 31.2518 90.9279 31.2687C90.8941 31.28 90.8602 31.2913 90.832 31.3082C90.7925 31.3251 90.7474 31.3421 90.7079 31.359L90.612 31.3985L90.5612 31.4211L90.4935 31.4549H90.4879C90.4597 31.4718 90.4258 31.4831 90.3976 31.5L90.3412 31.5339L90.2792 31.5677C90.2792 31.5677 90.2735 31.5677 90.2735 31.5734C90.2453 31.5903 90.2228 31.6016 90.1945 31.6185L90.0874 31.6862C90.0761 31.6918 90.0648 31.6975 90.0591 31.7031C90.0366 31.7144 90.0197 31.7257 90.0027 31.737C89.9407 31.7765 89.8786 31.8216 89.8166 31.8611C89.7996 31.8724 89.7771 31.8893 89.7601 31.9006L89.7545 31.9062C89.715 31.9344 89.6755 31.9626 89.636 31.9965L89.5683 32.0473L89.5627 32.0529C89.5289 32.0811 89.4951 32.1093 89.4611 32.1375L89.4555 32.1432C89.4329 32.1601 89.4161 32.1827 89.3934 32.1996C89.3597 32.2278 89.3258 32.2616 89.2919 32.2955L89.2863 32.3011C89.2637 32.3181 89.2468 32.3406 89.2298 32.3575H89.2242L89.1396 32.4478C89.134 32.4535 89.134 32.4535 89.1283 32.4591L89.1227 32.4647L89.0719 32.5155C89.0324 32.5606 88.9985 32.6001 88.9591 32.6453C88.9534 32.6509 88.9534 32.6565 88.9478 32.6622C88.9421 32.6735 88.9365 32.6791 88.9252 32.6848C88.8801 32.7412 88.8349 32.8032 88.7899 32.8596L88.7673 32.8935L88.7617 32.9048C88.756 32.9104 88.7503 32.9217 88.7447 32.9273C88.7165 32.9668 88.6939 33.0007 88.6657 33.0402C88.6545 33.0627 88.6431 33.0797 88.6263 33.0966C88.6263 33.1022 88.6206 33.1022 88.6206 33.1022C88.598 33.1417 88.5698 33.1812 88.5472 33.2263V33.232C88.536 33.2546 88.5247 33.2771 88.5078 33.2997V33.3053C88.4852 33.3448 88.4626 33.3899 88.44 33.4351V33.4407C88.4288 33.4633 88.4175 33.4859 88.4062 33.5084V33.5141L88.4006 33.5253C88.378 33.5648 88.361 33.61 88.3442 33.6495C88.3442 33.6495 88.3442 33.6551 88.3385 33.6551C88.3273 33.6777 88.3216 33.6946 88.3103 33.7115C88.2821 33.7679 88.2596 33.83 88.2369 33.8864L88.2313 33.892L88.22 33.9146V33.9203C88.1918 33.9936 88.1636 34.0669 88.1411 34.1403C88.1354 34.1516 88.1354 34.1628 88.1298 34.1685L88.1242 34.1798C88.1185 34.2023 88.1129 34.2249 88.1016 34.2475C88.0903 34.2813 88.079 34.3208 88.0677 34.3547C88.0621 34.3716 88.0565 34.3941 88.0508 34.4167V34.4223V34.428C88.0452 34.4562 88.0339 34.49 88.0283 34.5239L88.0113 34.586L87.9943 34.6649V34.6706C87.9887 34.6931 87.9831 34.7213 87.9775 34.7439L87.9661 34.8003C87.9549 34.8511 87.9493 34.9019 87.9436 34.9527L87.9266 35.0711C87.9211 35.1275 87.9097 35.1783 87.9041 35.2347C87.8984 35.2742 87.8984 35.3081 87.8929 35.3476C87.8872 35.4096 87.8815 35.4717 87.8815 35.5337C87.8815 35.5619 87.8759 35.5958 87.8759 35.624C87.8702 35.7199 87.8702 35.8102 87.8702 35.9061V37.5478C87.8702 37.6493 87.8759 37.7509 87.8815 37.8524C87.8815 37.8863 87.8872 37.9145 87.8872 37.9483C87.8929 38.016 87.8984 38.0893 87.9097 38.157L87.9211 38.2642C87.9323 38.3319 87.9436 38.3996 87.9549 38.473C87.9605 38.5012 87.9661 38.535 87.9718 38.5632C87.9887 38.6591 88.0113 38.7551 88.0339 38.851L88.0395 38.8679C88.0621 38.9581 88.0903 39.0484 88.1185 39.133C88.1297 39.1612 88.1411 39.1951 88.1523 39.2233C88.1749 39.2854 88.1975 39.3531 88.22 39.4095C88.2313 39.4433 88.2482 39.4772 88.2595 39.511C88.2821 39.5731 88.3103 39.6351 88.3385 39.6915C88.3498 39.7198 88.3667 39.748 88.378 39.7762C88.4175 39.8608 88.4626 39.9454 88.5077 40.03C88.5077 40.0357 88.5134 40.0413 88.519 40.047C88.519 40.0526 88.5247 40.0526 88.5247 40.0582C88.5698 40.1429 88.6149 40.2162 88.6657 40.2952C88.6826 40.3234 88.6995 40.3516 88.7221 40.3798C88.7616 40.4419 88.8067 40.5039 88.8519 40.566C88.8688 40.5885 88.8857 40.6168 88.9026 40.6393C88.959 40.7183 89.0267 40.7973 89.0888 40.8763C89.1058 40.8988 89.1227 40.9158 89.1396 40.9383C89.1904 40.9947 89.2412 41.0568 89.2976 41.1132C89.3201 41.1414 89.3427 41.164 89.3709 41.1866C89.4273 41.243 89.4837 41.2994 89.5458 41.3558C89.5627 41.3727 89.5797 41.3896 89.5965 41.4009C89.6925 41.4912 89.794 41.5758 89.8956 41.6548C89.9576 41.6999 90.0197 41.7451 90.0761 41.7902C90.1043 41.8071 90.1268 41.8297 90.1551 41.8466L90.4089 42.0159C90.4146 42.0215 90.4202 42.0215 90.4259 42.0215C90.5105 42.0723 90.5951 42.123 90.6854 42.1682C90.7136 42.1851 90.7362 42.1964 90.7644 42.2077C90.8377 42.2472 90.9111 42.281 90.9844 42.3149C91.007 42.3261 91.0295 42.3374 91.0521 42.3487C91.148 42.3882 91.2439 42.4277 91.3454 42.4672C91.3624 42.4728 91.3793 42.4785 91.3962 42.4841L91.6501 42.5687C91.6783 42.5744 91.7065 42.5857 91.7347 42.5913C91.825 42.6139 91.9152 42.6364 92.0055 42.659C92.0168 42.6646 92.0337 42.6646 92.045 42.6703C92.1522 42.6928 92.2594 42.7098 92.3665 42.7267C92.3891 42.7267 92.4117 42.7323 92.4343 42.7323C92.5245 42.7436 92.6148 42.7549 92.705 42.7605C92.7276 42.7605 92.7558 42.7662 92.784 42.7662C93.9631 42.8452 95.1309 42.5123 96.09 41.824C96.7501 41.3558 97.2916 40.7352 97.6752 40.0188C98.0814 39.2515 98.2958 38.3996 98.2958 37.5308V29.6045C98.2732 29.5706 98.2732 29.5424 98.2732 29.5086ZM109.844 29.7004H109.906L110.036 29.6947L110.211 29.6891L110.312 29.6835L110.566 29.6778H110.572C110.899 29.6722 111.243 29.6665 111.615 29.6553C111.7 29.6553 111.79 29.6496 111.881 29.6496H111.937C112.061 29.644 112.185 29.644 112.315 29.6383V29.3055C112.315 29.2434 112.309 29.1757 112.309 29.1137V29.0742C112.304 29.029 112.304 28.9839 112.304 28.9388C112.298 28.8936 112.298 28.8485 112.292 28.809C112.287 28.7639 112.287 28.7244 112.281 28.6793V28.6623C112.276 28.6228 112.27 28.5834 112.264 28.5439C112.259 28.5044 112.253 28.4592 112.247 28.4198L112.225 28.2844C112.219 28.2449 112.208 28.2054 112.197 28.1602C112.191 28.1151 112.18 28.0756 112.168 28.0305C112.157 27.991 112.146 27.9515 112.134 27.912V27.9064C112.123 27.8669 112.112 27.8274 112.101 27.7879C112.089 27.7484 112.078 27.7089 112.067 27.6694C112.056 27.6356 112.044 27.5961 112.027 27.5622C112.027 27.5566 112.022 27.5566 112.022 27.551C112.01 27.5115 111.993 27.472 111.977 27.4325C111.965 27.3986 111.948 27.3591 111.931 27.3253L111.926 27.314C111.909 27.2745 111.892 27.235 111.875 27.1955C111.864 27.173 111.852 27.1504 111.847 27.1335C111.841 27.1222 111.841 27.1166 111.835 27.1053C111.79 27.0037 111.74 26.9022 111.689 26.8063C111.638 26.7104 111.582 26.6145 111.52 26.5186C111.508 26.5016 111.497 26.4847 111.491 26.4734L111.48 26.4565C111.424 26.3719 111.367 26.2929 111.311 26.2139L111.288 26.1801C111.221 26.0898 111.153 26.0052 111.08 25.9206C111.063 25.9036 111.046 25.8811 111.029 25.8641C110.967 25.7908 110.899 25.7175 110.831 25.6498L110.814 25.6328C110.73 25.5482 110.645 25.4636 110.555 25.3846C110.538 25.3677 110.521 25.3564 110.498 25.3395C110.425 25.2774 110.352 25.2154 110.278 25.1589C110.261 25.1477 110.25 25.1364 110.239 25.1251L110.233 25.1195C110.126 25.0405 110.025 24.9671 109.912 24.8938C109.833 24.843 109.748 24.7922 109.663 24.7415C109.647 24.7302 109.624 24.7189 109.607 24.7076C109.511 24.6512 109.41 24.6004 109.308 24.5553L109.269 24.5384C109.263 24.5384 109.263 24.5327 109.257 24.5327C109.19 24.5045 109.122 24.4763 109.054 24.4481C109.032 24.4368 109.009 24.4312 108.992 24.4199C108.97 24.4086 108.947 24.403 108.919 24.3917C108.812 24.3522 108.71 24.3127 108.603 24.2845H108.597C108.586 24.2789 108.575 24.2789 108.563 24.2732C108.468 24.245 108.372 24.2224 108.276 24.1999C108.247 24.1942 108.219 24.1886 108.197 24.183C108.09 24.1604 107.982 24.1378 107.881 24.1265C107.875 24.1265 107.869 24.1265 107.864 24.1209C107.853 24.1209 107.847 24.1209 107.836 24.1153C107.813 24.1096 107.785 24.1096 107.762 24.1096C107.683 24.0983 107.604 24.0871 107.52 24.0814L107.429 24.0758C107.311 24.0645 107.198 24.0645 107.08 24.0645C107.035 24.0645 106.984 24.0645 106.939 24.0701H106.82H106.809C106.764 24.0701 106.719 24.0758 106.679 24.0814H106.673C106.634 24.0814 106.589 24.0871 106.549 24.0927C106.504 24.0983 106.465 24.104 106.42 24.1096H106.414C106.374 24.1153 106.329 24.1209 106.29 24.1265C106.262 24.1322 106.233 24.1378 106.211 24.1435C106.194 24.1491 106.177 24.1491 106.16 24.1548L106.143 24.1604C106.109 24.166 106.075 24.1717 106.042 24.1773C105.996 24.1886 105.946 24.1999 105.901 24.2112H105.895C105.861 24.2168 105.827 24.2281 105.788 24.2337C105.748 24.245 105.714 24.2563 105.675 24.2676C105.664 24.2732 105.652 24.2732 105.641 24.2789C105.607 24.2901 105.573 24.2958 105.545 24.3071L105.523 24.3127L105.432 24.3409C105.415 24.3466 105.398 24.3522 105.387 24.3578C105.359 24.3691 105.331 24.3748 105.303 24.3861C105.291 24.3917 105.28 24.3917 105.269 24.3973C105.235 24.4086 105.207 24.4199 105.173 24.4368C105.156 24.4425 105.145 24.4481 105.128 24.4538C105.105 24.4594 105.083 24.4707 105.066 24.4763H105.06C105.015 24.4932 104.97 24.5158 104.925 24.5384C104.908 24.544 104.891 24.5497 104.879 24.5609C104.868 24.5666 104.851 24.5722 104.834 24.5835C104.778 24.6117 104.727 24.6399 104.671 24.6681C104.659 24.6738 104.648 24.6794 104.637 24.6851C104.631 24.6907 104.62 24.6963 104.609 24.702L104.49 24.7697C104.485 24.7697 104.485 24.7697 104.485 24.7753C104.456 24.7922 104.428 24.8092 104.4 24.8261H104.394H104.389C104.327 24.8656 104.265 24.9051 104.208 24.9446C104.174 24.9671 104.14 24.9897 104.107 25.0179C104.067 25.0461 104.022 25.08 103.977 25.1082L103.903 25.1646C103.864 25.1984 103.819 25.2323 103.779 25.2605C103.751 25.2831 103.729 25.3056 103.7 25.3282L103.588 25.4241C103.565 25.441 103.548 25.4636 103.525 25.4805C103.486 25.52 103.441 25.5595 103.401 25.599L103.356 25.6498C103.317 25.6949 103.272 25.74 103.232 25.7852C103.17 25.8529 103.108 25.9262 103.046 25.9995C103.023 26.0277 103.006 26.0559 102.984 26.0785L102.865 26.2308C102.86 26.2365 102.854 26.2478 102.849 26.2534C102.832 26.276 102.815 26.2985 102.803 26.3267C102.758 26.3944 102.713 26.4621 102.668 26.5298C102.657 26.5468 102.651 26.558 102.64 26.575C102.606 26.6257 102.578 26.6822 102.55 26.7329C102.538 26.7499 102.533 26.7668 102.521 26.7781C102.516 26.795 102.504 26.8063 102.493 26.8232C102.448 26.9078 102.403 26.9981 102.363 27.0884C102.358 27.094 102.358 27.094 102.358 27.0996C102.352 27.1222 102.341 27.1448 102.329 27.1617C102.301 27.2294 102.273 27.2914 102.245 27.3591C102.234 27.3874 102.222 27.4156 102.211 27.4438V27.4494C102.183 27.5171 102.16 27.5848 102.138 27.6581C102.132 27.6864 102.121 27.7089 102.115 27.7371C102.087 27.8274 102.059 27.912 102.042 28.0079C102.042 28.0136 102.036 28.0192 102.036 28.0305C101.935 28.4423 101.884 28.8711 101.884 29.2998V37.655V37.6944C101.884 37.7847 101.889 37.875 101.895 37.9596C101.895 37.9991 101.901 38.0329 101.906 38.0724C101.912 38.1401 101.918 38.2022 101.923 38.2699C101.929 38.3094 101.935 38.3489 101.94 38.3884C101.952 38.456 101.963 38.5237 101.974 38.5914C101.98 38.6253 101.985 38.6535 101.991 38.6874C102.014 38.7833 102.03 38.8792 102.059 38.9751C102.064 38.992 102.07 39.0089 102.07 39.0258C102.121 39.2007 102.177 39.3756 102.245 39.5505C102.256 39.5787 102.267 39.6069 102.279 39.6408C102.313 39.7141 102.341 39.7875 102.375 39.8608C102.386 39.8777 102.392 39.8946 102.397 39.9172C102.442 40.0075 102.487 40.0921 102.533 40.1824C102.533 40.188 102.538 40.1936 102.544 40.1993C102.55 40.2049 102.555 40.2162 102.561 40.2219C102.606 40.2952 102.651 40.3742 102.696 40.4475C102.758 40.5434 102.82 40.6393 102.888 40.7296C102.899 40.7465 102.911 40.7634 102.922 40.7747C102.995 40.8763 103.08 40.9778 103.164 41.0737C103.215 41.1301 103.266 41.1922 103.322 41.2486C103.345 41.2712 103.368 41.2937 103.39 41.3163C103.463 41.3896 103.537 41.463 103.61 41.5307C103.683 41.5984 103.762 41.6661 103.841 41.7281C103.864 41.7507 103.892 41.7676 103.915 41.7902C103.971 41.8353 104.033 41.8805 104.095 41.9256C104.214 42.0102 104.338 42.0948 104.468 42.1682C104.541 42.2133 104.62 42.2528 104.693 42.2923C104.722 42.3092 104.75 42.3205 104.778 42.3374C104.851 42.3713 104.919 42.4051 104.992 42.439C105.015 42.4503 105.043 42.4615 105.066 42.4728C105.162 42.5123 105.252 42.5518 105.353 42.5857C105.376 42.5913 105.398 42.6026 105.421 42.6082C105.5 42.6364 105.573 42.659 105.652 42.6816C105.686 42.6872 105.714 42.6985 105.748 42.7041C105.833 42.7267 105.918 42.7493 106.002 42.7662L106.059 42.7775C106.16 42.8 106.267 42.817 106.369 42.8339C106.397 42.8395 106.425 42.8395 106.453 42.8452C106.566 42.8621 106.679 42.8734 106.792 42.879C106.899 42.8847 107.006 42.8903 107.119 42.8903C107.204 42.8903 107.288 42.8903 107.373 42.8847L107.458 42.879C107.514 42.8734 107.57 42.8734 107.627 42.8677C107.661 42.8621 107.689 42.8621 107.723 42.8564C107.774 42.8508 107.824 42.8452 107.875 42.8395C107.909 42.8339 107.943 42.8282 107.977 42.8226C108.022 42.817 108.073 42.8057 108.118 42.8L108.225 42.7775L108.36 42.7493C108.394 42.738 108.428 42.7323 108.467 42.7211L108.603 42.6872C108.637 42.6759 108.671 42.6646 108.704 42.6534C108.75 42.6421 108.789 42.6251 108.834 42.6082C108.868 42.5969 108.902 42.5857 108.936 42.5687C108.975 42.5518 109.02 42.5349 109.06 42.5236C109.094 42.5123 109.128 42.4954 109.161 42.4841C109.201 42.4672 109.246 42.4503 109.286 42.4277L109.381 42.3826L109.506 42.3205C109.539 42.3036 109.568 42.2867 109.601 42.2697C109.641 42.2472 109.68 42.2246 109.72 42.202L109.81 42.1513C109.85 42.1287 109.889 42.1061 109.929 42.0779C109.957 42.061 109.985 42.0384 110.019 42.0215C110.058 41.9989 110.092 41.9707 110.132 41.9425C110.16 41.92 110.188 41.903 110.216 41.8805C110.256 41.8523 110.29 41.824 110.324 41.7958C110.352 41.7733 110.38 41.7563 110.403 41.7338C110.442 41.7056 110.476 41.6774 110.51 41.6435C110.532 41.621 110.56 41.5984 110.583 41.5815C110.617 41.5476 110.656 41.5194 110.69 41.4856C110.713 41.463 110.735 41.4404 110.764 41.4179C110.797 41.384 110.831 41.3502 110.865 41.3163C110.888 41.2937 110.91 41.2712 110.933 41.2486C110.967 41.2148 111.001 41.1753 111.034 41.1414C111.057 41.1189 111.074 41.0963 111.096 41.0737C111.13 41.0342 111.164 40.9947 111.198 40.9552C111.215 40.9327 111.237 40.9101 111.254 40.8876C111.288 40.8481 111.322 40.8029 111.356 40.7578C111.373 40.7352 111.384 40.7183 111.401 40.7014C111.435 40.6506 111.469 40.5998 111.508 40.5491C111.52 40.5321 111.531 40.5209 111.536 40.5039C111.582 40.4362 111.621 40.3685 111.661 40.3008C111.751 40.1485 111.835 39.9905 111.909 39.8269C111.937 39.7649 111.965 39.7028 111.993 39.6408C111.999 39.6182 112.01 39.6013 112.016 39.5787C112.039 39.5223 112.061 39.4715 112.078 39.4151L112.106 39.3418C112.123 39.291 112.14 39.2346 112.157 39.1838L112.18 39.0992C112.197 39.0484 112.208 38.9976 112.219 38.9469C112.225 38.9187 112.236 38.8904 112.242 38.8566C112.253 38.8058 112.264 38.7551 112.276 38.7043C112.281 38.6761 112.287 38.6422 112.293 38.6084C112.304 38.5576 112.309 38.5068 112.321 38.456L112.332 38.3601C112.338 38.3263 112.338 38.2924 112.343 38.2585C112.343 38.2473 112.349 38.2303 112.349 38.2191C112.355 38.1457 112.36 38.0668 112.366 37.9934C112.366 37.9765 112.371 37.9596 112.371 37.9427C112.371 37.9314 112.377 37.92 112.377 37.9145C112.315 37.9145 111.835 37.8918 111.17 37.8468C110.95 37.8298 110.707 37.8186 110.459 37.8016C110.228 37.7847 109.985 37.7678 109.737 37.7508C109.737 37.8072 109.731 37.8636 109.726 37.92C109.72 37.9483 109.72 37.9822 109.72 38.0104C109.697 38.1853 109.658 38.3545 109.601 38.5181C109.252 39.5279 108.27 40.2275 107.136 40.2275C107.057 40.2275 106.984 40.2218 106.905 40.2162L106.848 40.2106C106.775 40.2049 106.702 40.1936 106.628 40.1767L106.611 40.1711C106.544 40.1598 106.476 40.1429 106.408 40.1202L106.363 40.109H106.358C106.29 40.0865 106.222 40.0638 106.155 40.0356L106.132 40.0244C106.07 39.9962 106.013 39.968 105.951 39.9398C105.94 39.9341 105.923 39.9228 105.906 39.9172C105.844 39.8834 105.782 39.8439 105.72 39.8044C105.709 39.7987 105.703 39.7931 105.697 39.7875C105.63 39.7423 105.568 39.6971 105.511 39.6464C105.455 39.6013 105.398 39.5505 105.348 39.4997C105.342 39.4941 105.331 39.4828 105.325 39.4772C105.28 39.432 105.235 39.3813 105.19 39.3304C105.184 39.3192 105.173 39.3136 105.167 39.3022C105.122 39.2458 105.077 39.1838 105.037 39.1274C105.032 39.1161 105.026 39.1048 105.015 39.0992L104.964 39.0258V39.0201C104.947 38.9919 104.93 38.9637 104.913 38.9299L104.891 38.8961C104.857 38.8284 104.823 38.7607 104.795 38.693C104.789 38.6817 104.784 38.6704 104.784 38.6534C104.755 38.5802 104.727 38.5012 104.705 38.4222C104.682 38.3489 104.665 38.2699 104.648 38.1965C104.648 38.1909 104.648 38.1796 104.643 38.1739C104.631 38.1006 104.62 38.0273 104.609 37.954C104.609 37.937 104.603 37.92 104.603 37.9032C104.597 37.8186 104.592 37.7396 104.592 37.655V29.3055C104.592 28.5439 104.93 27.8161 105.517 27.3253C106.03 26.8909 106.702 26.6822 107.373 26.7442C107.396 26.7442 107.418 26.7499 107.446 26.7499C107.503 26.7555 107.559 26.7668 107.616 26.7781C107.638 26.7837 107.666 26.7893 107.689 26.7893C107.757 26.8063 107.819 26.8176 107.881 26.8401C107.892 26.8458 107.903 26.8458 107.915 26.8458C108.14 26.9191 108.36 27.0207 108.558 27.1504C108.569 27.1617 108.586 27.1673 108.597 27.1786C108.659 27.2181 108.721 27.2632 108.778 27.314C108.789 27.3253 108.806 27.3366 108.817 27.3479C108.924 27.4381 109.02 27.534 109.111 27.6412L109.15 27.6864C109.195 27.7428 109.246 27.8048 109.286 27.8669C109.291 27.8782 109.297 27.8894 109.308 27.9007C109.342 27.9515 109.376 28.0079 109.41 28.0587C109.421 28.0813 109.432 28.0982 109.443 28.1208C109.472 28.1715 109.494 28.2223 109.517 28.2731C109.522 28.2956 109.534 28.3126 109.545 28.3295C109.551 28.3408 109.551 28.3521 109.556 28.3577C109.562 28.3633 109.562 28.369 109.562 28.369C109.573 28.4028 109.585 28.431 109.596 28.4649C109.607 28.4987 109.618 28.5269 109.63 28.5608C109.641 28.6059 109.652 28.6567 109.663 28.7018C109.669 28.7357 109.68 28.7695 109.686 28.8034C109.697 28.8542 109.703 28.9106 109.709 28.9613C109.714 28.9895 109.72 29.0178 109.726 29.046C109.731 29.1306 109.737 29.2152 109.737 29.2998V29.7004C109.726 29.706 109.788 29.7004 109.844 29.7004ZM135.524 29.3393V32.1432H130.379V29.3393C130.379 28.1715 131.13 27.1786 132.179 26.8514C132.506 26.7499 132.845 26.716 133.183 26.7442C133.206 26.7442 133.228 26.7499 133.251 26.7499C133.307 26.7555 133.364 26.7668 133.42 26.7781C133.443 26.7837 133.465 26.7893 133.493 26.7893C133.561 26.8063 133.629 26.8232 133.691 26.8401C133.696 26.8401 133.702 26.8458 133.713 26.8458C133.86 26.8909 134.001 26.953 134.136 27.0263L134.199 27.0601C134.255 27.094 134.306 27.1222 134.357 27.1617C134.368 27.1673 134.379 27.173 134.385 27.1843C134.447 27.2237 134.509 27.2745 134.565 27.3197C134.582 27.3309 134.593 27.3479 134.61 27.3591C134.65 27.393 134.695 27.4325 134.734 27.472C134.751 27.4889 134.768 27.5058 134.785 27.5227C134.825 27.5679 134.864 27.6074 134.904 27.6525C134.915 27.6638 134.926 27.6751 134.938 27.692C135 27.7653 135.05 27.8443 135.101 27.9233C135.129 27.9684 135.158 28.0192 135.186 28.0643C135.197 28.0869 135.208 28.1095 135.225 28.132C135.254 28.1828 135.276 28.2336 135.299 28.2844C135.304 28.3013 135.316 28.3238 135.321 28.3408L135.327 28.3577C135.327 28.3633 135.327 28.369 135.332 28.369C135.344 28.4028 135.355 28.431 135.366 28.4649C135.378 28.5044 135.395 28.5382 135.406 28.5777C135.417 28.6228 135.428 28.668 135.44 28.7131C135.451 28.747 135.462 28.7865 135.468 28.8203C135.479 28.8767 135.485 28.9331 135.49 28.9895C135.496 29.0178 135.502 29.046 135.502 29.0742C135.519 29.1644 135.524 29.2491 135.524 29.3393ZM138.159 29.0685V29.0403C138.153 28.9613 138.148 28.888 138.142 28.8147V28.809C138.142 28.7977 138.136 28.7865 138.136 28.7752C138.131 28.73 138.125 28.6905 138.119 28.6454C138.114 28.6172 138.114 28.589 138.108 28.5664C138.102 28.5439 138.102 28.5157 138.097 28.4931C138.086 28.4367 138.074 28.3746 138.063 28.3182C138.057 28.29 138.052 28.2674 138.046 28.2392C138.035 28.1941 138.023 28.149 138.012 28.1038C138.012 28.0982 138.007 28.0869 138.007 28.0813C138.001 28.0531 137.995 28.0305 137.99 28.0023C137.984 27.9684 137.973 27.9346 137.961 27.9064C137.956 27.8838 137.95 27.8556 137.939 27.833C137.933 27.8105 137.928 27.7935 137.922 27.771C137.916 27.7597 137.916 27.7541 137.916 27.7428C137.894 27.6751 137.871 27.6074 137.849 27.5453C137.843 27.5284 137.837 27.5115 137.832 27.5002C137.809 27.4438 137.787 27.3817 137.764 27.3253C137.753 27.2971 137.741 27.2689 137.73 27.2463C137.719 27.2181 137.702 27.1843 137.691 27.156C137.685 27.1448 137.685 27.1335 137.679 27.1222C137.634 27.0263 137.589 26.9304 137.533 26.8345C137.527 26.8232 137.516 26.8063 137.51 26.795C137.465 26.7104 137.42 26.6314 137.369 26.5468C137.352 26.5186 137.335 26.496 137.318 26.4678C137.273 26.3944 137.222 26.3267 137.172 26.259C137.16 26.2365 137.143 26.2196 137.132 26.197C137.07 26.1124 137.002 26.0277 136.935 25.9431C136.918 25.9206 136.895 25.898 136.878 25.8754C136.816 25.8021 136.754 25.7287 136.686 25.661C136.681 25.6554 136.681 25.6498 136.675 25.6498C136.67 25.6441 136.664 25.6385 136.658 25.6328C136.591 25.5651 136.517 25.4974 136.444 25.4297L136.421 25.4072C136.404 25.3902 136.387 25.3733 136.365 25.362L136.359 25.3564C136.292 25.2943 136.218 25.2379 136.145 25.1815C136.128 25.1702 136.117 25.1589 136.1 25.1477C136.015 25.08 135.925 25.0179 135.835 24.9615C135.818 24.9502 135.795 24.9389 135.778 24.922L135.773 24.9164C135.694 24.8656 135.62 24.8205 135.541 24.7753C135.53 24.764 135.513 24.7584 135.502 24.7528C135.496 24.7471 135.49 24.7471 135.479 24.7415C135.383 24.6907 135.287 24.6399 135.191 24.5891L135.169 24.5779C135.09 24.544 135.017 24.5102 134.938 24.4763C134.921 24.4707 134.898 24.4594 134.881 24.4538C134.859 24.4425 134.83 24.4312 134.808 24.4255C134.706 24.3861 134.599 24.3466 134.498 24.3184C134.481 24.3127 134.458 24.3071 134.441 24.3014C134.351 24.2732 134.261 24.2507 134.17 24.2281C134.142 24.2224 134.114 24.2168 134.086 24.2055C133.979 24.183 133.866 24.1604 133.758 24.1435C133.747 24.1435 133.736 24.1378 133.719 24.1378C133.617 24.1209 133.516 24.1096 133.414 24.104L133.324 24.0983H133.307C133.206 24.0927 133.104 24.0871 132.997 24.0871H132.974C132.901 24.0871 132.833 24.0871 132.76 24.0927C132.709 24.0927 132.658 24.0983 132.613 24.104C132.557 24.1096 132.5 24.1096 132.444 24.1153C132.41 24.1209 132.382 24.1209 132.348 24.1265C132.309 24.1322 132.269 24.1378 132.23 24.1435C132.213 24.1435 132.196 24.1491 132.185 24.1491C132.151 24.1548 132.117 24.1604 132.077 24.166C132.043 24.1717 132.004 24.1773 131.97 24.183L131.931 24.1886L131.823 24.2112C131.778 24.2224 131.728 24.2337 131.682 24.245C131.643 24.2563 131.609 24.2676 131.57 24.2732C131.524 24.2845 131.479 24.2958 131.434 24.3127C131.4 24.324 131.361 24.3353 131.327 24.3466H131.321C131.31 24.3522 131.299 24.3578 131.282 24.3578C131.248 24.3691 131.22 24.3804 131.192 24.3917C131.158 24.403 131.118 24.4199 131.084 24.4312C131.039 24.4481 131 24.465 130.955 24.482C130.921 24.4989 130.881 24.5158 130.847 24.5271L130.757 24.5666C130.746 24.5722 130.735 24.5779 130.723 24.5835L130.622 24.6343C130.582 24.6568 130.537 24.6738 130.498 24.6963C130.464 24.7133 130.43 24.7302 130.396 24.7528C130.357 24.7753 130.317 24.7979 130.278 24.8205C130.244 24.8374 130.21 24.8599 130.182 24.8825C130.142 24.9051 130.108 24.9333 130.069 24.9558C130.035 24.9784 130.007 24.9953 129.973 25.0179L129.962 25.0292L129.866 25.0969C129.838 25.1195 129.809 25.142 129.776 25.1646C129.742 25.1928 129.702 25.221 129.668 25.2492L129.584 25.3225C129.55 25.3508 129.516 25.379 129.482 25.4128C129.454 25.4354 129.426 25.4636 129.403 25.4862C129.369 25.52 129.336 25.5482 129.302 25.5821C129.273 25.6046 129.251 25.6328 129.223 25.661L129.2 25.6836C129.172 25.7062 129.149 25.7344 129.127 25.7626C129.104 25.7908 129.082 25.8134 129.053 25.8416C129.02 25.8754 128.991 25.9149 128.963 25.9488C128.941 25.977 128.918 25.9995 128.895 26.0277L128.862 26.0729C128.845 26.0954 128.828 26.118 128.811 26.1349C128.811 26.1349 128.805 26.1349 128.805 26.1406C128.783 26.1688 128.766 26.197 128.743 26.2252C128.738 26.2365 128.726 26.2478 128.721 26.259C128.704 26.2873 128.681 26.3098 128.664 26.338C128.664 26.338 128.664 26.3437 128.659 26.3437C128.642 26.3719 128.619 26.4001 128.602 26.4283L128.574 26.4734C128.557 26.496 128.54 26.5242 128.529 26.5468L128.523 26.5524L128.472 26.637C128.455 26.6652 128.444 26.6878 128.427 26.716C128.422 26.7329 128.41 26.7442 128.399 26.7611C128.399 26.7668 128.393 26.7668 128.393 26.7724C128.376 26.8006 128.365 26.8288 128.348 26.8514C128.337 26.874 128.331 26.8909 128.32 26.9078L128.286 26.9755C128.281 26.9812 128.281 26.9868 128.281 26.9924L128.241 27.0714C128.224 27.1109 128.202 27.156 128.185 27.1955C128.185 27.2012 128.179 27.2012 128.179 27.2012V27.2068C128.173 27.2125 128.173 27.2181 128.173 27.2237C128.162 27.2463 128.151 27.2689 128.14 27.2971V27.3027C128.123 27.3479 128.1 27.3986 128.083 27.4438C128.072 27.4776 128.061 27.5058 128.049 27.5397C128.032 27.5904 128.015 27.6469 127.998 27.6976C127.987 27.7258 127.982 27.7541 127.97 27.7823C127.942 27.8725 127.92 27.9684 127.897 28.0587V28.0756C127.88 28.1433 127.863 28.211 127.852 28.2787C127.846 28.3126 127.841 28.3464 127.829 28.3803V28.3859C127.818 28.4367 127.812 28.4818 127.801 28.5326C127.795 28.5721 127.79 28.6116 127.784 28.6511V28.6567C127.778 28.7018 127.773 28.747 127.767 28.7865C127.762 28.8316 127.762 28.8711 127.756 28.9162C127.75 28.9557 127.75 28.9952 127.75 29.0347V29.0516C127.745 29.1475 127.739 29.2491 127.739 29.345V37.6324C127.739 37.7678 127.745 37.9032 127.756 38.0386C127.762 38.1288 127.773 38.2191 127.784 38.3094C127.784 38.3263 127.79 38.3432 127.79 38.3601C127.801 38.4617 127.818 38.5689 127.841 38.6704L127.857 38.7551C127.874 38.8397 127.891 38.9243 127.914 39.0033C127.92 39.0258 127.925 39.0484 127.931 39.071C127.959 39.1725 127.987 39.2741 128.021 39.37C128.027 39.3925 128.038 39.4151 128.044 39.4433C128.077 39.5505 128.117 39.6521 128.156 39.7536C128.202 39.8664 128.247 39.9793 128.303 40.0865C128.343 40.1654 128.382 40.2444 128.422 40.3234C128.427 40.3347 128.433 40.3403 128.439 40.3516L128.461 40.3967C128.495 40.4588 128.534 40.5209 128.568 40.5829C128.63 40.6845 128.692 40.7804 128.76 40.8763C128.771 40.8932 128.783 40.9101 128.8 40.927C128.839 40.9835 128.884 41.0455 128.929 41.1019L128.986 41.1753C129.025 41.226 129.07 41.2768 129.116 41.3276L129.172 41.3896C129.228 41.4517 129.29 41.5138 129.347 41.5758C129.352 41.5815 129.358 41.5871 129.358 41.5927C129.426 41.6604 129.493 41.7225 129.567 41.7846C129.584 41.8015 129.601 41.8128 129.623 41.8297C129.674 41.8748 129.73 41.92 129.787 41.9651C129.809 41.982 129.832 41.9989 129.855 42.0159C129.911 42.061 129.973 42.1005 130.035 42.14C130.052 42.1513 130.069 42.1625 130.086 42.1738C130.165 42.2246 130.249 42.2754 130.328 42.3205L130.34 42.3261C130.436 42.3826 130.537 42.4333 130.639 42.4785C130.706 42.5123 130.774 42.5349 130.842 42.5687L130.91 42.5913C130.994 42.6251 131.079 42.6534 131.163 42.6816L131.186 42.6872C131.293 42.7211 131.406 42.7493 131.519 42.7718C131.626 42.7944 131.733 42.817 131.84 42.8282C131.919 42.8395 132.004 42.8508 132.089 42.8564L132.145 42.8621C132.247 42.8677 132.354 42.8734 132.461 42.8734C132.732 42.8734 133.008 42.8508 133.296 42.8L136.5 42.2979C136.495 42.2302 136.483 42.1625 136.478 42.0948C136.472 42.0553 136.472 42.0159 136.466 41.9764C136.466 41.9482 136.461 41.92 136.461 41.8917C136.455 41.8466 136.455 41.8015 136.45 41.7563C136.444 41.683 136.438 41.6097 136.433 41.5363L136.427 41.4686C136.421 41.4122 136.421 41.3614 136.416 41.305C136.416 41.2881 136.416 41.2712 136.41 41.2543C136.399 41.0342 136.387 40.8086 136.376 40.5886V40.5829C136.371 40.4926 136.371 40.408 136.365 40.3178C136.365 40.2952 136.365 40.2783 136.359 40.2501V40.2275H132.986C132.89 40.2275 132.794 40.2218 132.698 40.2106C132.619 40.2049 132.54 40.1936 132.461 40.1767C132.388 40.1598 132.314 40.1429 132.241 40.1203H132.235C132.224 40.1147 132.213 40.1147 132.201 40.109C132.128 40.0865 132.055 40.0582 131.987 40.03C131.981 40.03 131.976 40.0244 131.976 40.0244C131.908 39.9962 131.846 39.968 131.778 39.9285C131.767 39.9228 131.756 39.9172 131.744 39.9116C131.671 39.8721 131.598 39.8269 131.53 39.7818C131.474 39.7423 131.417 39.6972 131.366 39.6521L131.338 39.6295C131.282 39.5787 131.225 39.5279 131.175 39.4772C131.169 39.4715 131.158 39.4602 131.152 39.4546C131.107 39.4038 131.062 39.3531 131.017 39.3023C131.011 39.291 131 39.2854 130.994 39.2741C130.949 39.2177 130.904 39.1556 130.864 39.0935C130.853 39.0823 130.847 39.071 130.842 39.0541C130.825 39.0315 130.808 39.0089 130.797 38.9807C130.78 38.9525 130.763 38.9243 130.746 38.8904C130.701 38.8115 130.661 38.7325 130.627 38.6479C130.622 38.6366 130.616 38.6197 130.611 38.6027C130.588 38.5463 130.565 38.4843 130.548 38.4278C130.543 38.4109 130.537 38.394 130.532 38.3771C130.509 38.3037 130.492 38.2304 130.475 38.157C130.475 38.1458 130.469 38.1345 130.469 38.1232C130.458 38.0555 130.447 37.9878 130.441 37.9201C130.43 37.8186 130.424 37.7226 130.424 37.6211V34.7834H136.873C137.222 34.7834 137.567 34.648 137.815 34.3998C138.057 34.1628 138.21 33.83 138.21 33.4464V29.345C138.165 29.2491 138.165 29.1588 138.159 29.0685ZM149.053 24.4707C148.867 24.3917 148.675 24.324 148.477 24.2619C148.421 24.245 148.364 24.2281 148.308 24.2168H148.297C148.246 24.2055 148.201 24.1886 148.15 24.1773L148.133 24.1717C148.088 24.1604 148.043 24.1491 147.998 24.1435C147.614 24.0701 147.225 24.0306 146.83 24.0306H146.824C146.728 24.0306 146.638 24.0363 146.542 24.0363C146.514 24.0363 146.491 24.0419 146.463 24.0419C146.396 24.0476 146.333 24.0476 146.266 24.0588C146.232 24.0588 146.198 24.0645 146.164 24.0701C146.108 24.0758 146.051 24.0814 145.995 24.0927C145.961 24.0983 145.927 24.104 145.893 24.1096C145.837 24.1209 145.781 24.1322 145.724 24.1378C145.702 24.1435 145.679 24.1435 145.657 24.1491C145.645 24.1491 145.64 24.1548 145.628 24.1548C145.566 24.166 145.499 24.183 145.436 24.1999C145.414 24.2055 145.391 24.2112 145.369 24.2168C145.284 24.2394 145.205 24.2619 145.121 24.2901L145.109 24.2958C145.104 24.2958 145.092 24.3014 145.087 24.3071C144.974 24.3466 144.861 24.3861 144.748 24.4312C144.737 24.4368 144.726 24.4425 144.709 24.4481C144.596 24.4932 144.489 24.544 144.382 24.6004C144.37 24.6061 144.359 24.6117 144.348 24.6174C144.336 24.623 144.331 24.6286 144.32 24.6343C144.246 24.6738 144.173 24.7133 144.099 24.7528H144.094L144.066 24.7697C143.992 24.8092 143.925 24.8543 143.851 24.8994C143.834 24.9107 143.817 24.922 143.8 24.9333C143.795 24.9389 143.784 24.9446 143.778 24.9502C143.727 24.9841 143.676 25.0235 143.626 25.0574C143.614 25.0687 143.603 25.0743 143.592 25.0856C143.58 25.0912 143.569 25.1025 143.552 25.1138C143.485 25.1646 143.422 25.2154 143.36 25.2661C143.349 25.2774 143.338 25.2831 143.327 25.2943C143.265 25.3451 143.202 25.4015 143.146 25.4523C143.124 25.4749 143.101 25.4974 143.078 25.5144C143.033 25.5539 142.994 25.599 142.949 25.6441L142.92 25.678L142.887 25.7118C142.87 25.7287 142.847 25.7513 142.83 25.7682C142.791 25.8077 142.757 25.8472 142.723 25.8867C142.712 25.898 142.706 25.9093 142.695 25.9206C142.644 25.9826 142.593 26.0447 142.542 26.1067L142.486 26.1801C142.458 26.2196 142.43 26.2534 142.401 26.2929C142.39 26.3042 142.384 26.3155 142.379 26.3267C142.368 26.338 142.362 26.3493 142.351 26.3662C142.345 26.3775 142.334 26.3888 142.328 26.4057C142.283 26.4734 142.238 26.5411 142.193 26.6088C142.187 26.6201 142.181 26.6314 142.176 26.6427C142.148 26.6878 142.125 26.7329 142.102 26.7724C142.085 26.8006 142.068 26.8232 142.057 26.8514C142.052 26.857 142.052 26.8627 142.046 26.8683C142.035 26.8909 142.023 26.9078 142.012 26.9304L141.927 27.094C141.922 27.1109 141.911 27.1278 141.905 27.1448C141.899 27.156 141.894 27.1673 141.894 27.173C141.871 27.2125 141.854 27.2576 141.837 27.3027C141.82 27.3366 141.803 27.3704 141.792 27.4043C141.792 27.4099 141.792 27.4099 141.786 27.4156C141.786 27.4212 141.781 27.4268 141.781 27.4325C141.77 27.4551 141.764 27.4776 141.758 27.5002C141.736 27.5566 141.713 27.6074 141.696 27.6638C141.685 27.692 141.679 27.7202 141.668 27.7428C141.645 27.8048 141.628 27.8612 141.606 27.9233C141.6 27.9346 141.6 27.9515 141.595 27.9628L141.583 28.0023C141.561 28.0869 141.538 28.1715 141.516 28.2618V28.2674C141.482 28.3972 141.459 28.5326 141.437 28.668C141.437 28.6736 141.437 28.6736 141.431 28.6793C141.425 28.73 141.414 28.7808 141.408 28.8316L141.397 28.9162C141.397 28.9275 141.397 28.9444 141.391 28.9557C141.38 29.046 141.375 29.1362 141.369 29.2209V29.2378V29.2491C141.363 29.328 141.363 29.4127 141.363 29.4973V29.5876V42.6195H144.037V29.5876C144.037 28.8372 144.376 28.0531 144.912 27.4945C144.957 27.4494 145.002 27.3986 145.053 27.3535C145.098 27.314 145.143 27.2745 145.188 27.2407C145.499 26.9868 145.86 26.8063 146.255 26.7442C146.362 26.7273 146.469 26.716 146.582 26.716L149.487 26.7837C149.51 26.3493 149.532 25.8811 149.56 25.3564C149.56 25.3169 149.566 25.2831 149.566 25.2436V25.2154C149.572 25.1364 149.572 25.063 149.577 24.9784V24.9615V24.9446C149.583 24.8656 149.583 24.7922 149.589 24.7133C149.386 24.6117 149.222 24.5384 149.053 24.4707Z" fill="#C1C1C1"/>
<path fill-rule="evenodd" clip-rule="evenodd" d="M43.4149 23.8275V42.6026H47.5558V24.0588L43.4149 23.8275ZM47.8492 20.2564V20.2508C47.8492 20.2282 47.8435 20.2057 47.8379 20.1887V20.1831C47.8323 20.1323 47.8266 20.0759 47.8153 20.0251V20.0195C47.8097 19.9913 47.804 19.9631 47.7928 19.9349C47.7871 19.9123 47.7815 19.8954 47.7758 19.8728C47.7702 19.8503 47.7646 19.8277 47.7589 19.8051C47.7476 19.7769 47.7364 19.7431 47.7307 19.7149C47.7194 19.6867 47.7081 19.6528 47.6969 19.6246L47.6856 19.5907L47.663 19.5343C47.6461 19.4892 47.6235 19.4441 47.601 19.4046C47.5897 19.3876 47.5784 19.3651 47.5671 19.3482C47.5502 19.32 47.5333 19.2917 47.5163 19.2635C47.505 19.241 47.4938 19.224 47.4768 19.2071C47.4712 19.1958 47.4656 19.1902 47.4599 19.1789C47.4204 19.1225 47.3809 19.0661 47.3358 19.0153C47.3245 18.9984 47.3132 18.9871 47.302 18.9702C47.2681 18.9307 47.2343 18.8912 47.2004 18.8573C47.1948 18.8517 47.1891 18.8461 47.1835 18.8404L47.1553 18.8122C47.1496 18.8066 47.1383 18.8009 47.1327 18.7896C47.1045 18.7614 47.0706 18.7332 47.0368 18.705C47.0255 18.6937 47.0142 18.6825 47.003 18.6712C46.9747 18.6486 46.9465 18.6317 46.9183 18.6091C46.8901 18.5866 46.8619 18.564 46.8337 18.5471C46.8224 18.5358 46.8111 18.5301 46.7942 18.5245C46.7604 18.5019 46.7265 18.485 46.6927 18.4624C46.6645 18.4399 46.6306 18.4229 46.5968 18.406C46.5516 18.3835 46.5065 18.3609 46.4557 18.3383C46.4388 18.3327 46.4219 18.3214 46.4049 18.3158C46.3598 18.2932 46.309 18.2819 46.2583 18.2593C46.2413 18.2537 46.2244 18.2481 46.2075 18.2424C46.1962 18.2368 46.1849 18.2368 46.1793 18.2368C46.1229 18.2199 46.0608 18.2029 46.0044 18.1916C45.9818 18.186 45.9593 18.1804 45.9423 18.1804C45.9141 18.1747 45.8859 18.1747 45.8577 18.1691C45.8352 18.1634 45.8126 18.1634 45.7844 18.1578C45.7618 18.1578 45.7392 18.1522 45.7223 18.1522H45.7167C45.649 18.1465 45.5756 18.1409 45.5079 18.1409C45.429 18.1409 45.35 18.1465 45.2766 18.1522C45.2484 18.1522 45.2259 18.1578 45.1977 18.1634C45.1469 18.1691 45.0961 18.1747 45.0453 18.186C45.0171 18.1916 44.9833 18.2029 44.9551 18.2086C44.9156 18.2199 44.8704 18.2255 44.831 18.2424H44.8253C44.7915 18.2537 44.7633 18.265 44.7294 18.2763C44.6899 18.2932 44.6504 18.3045 44.6109 18.3214C44.5771 18.3327 44.5489 18.3496 44.5207 18.3665L44.4643 18.3947C44.4135 18.4173 44.3684 18.4455 44.3176 18.4737C44.2837 18.4906 44.2555 18.5132 44.2217 18.5301L44.216 18.5358C44.1878 18.5527 44.1596 18.5753 44.1314 18.5978C44.0976 18.6204 44.0694 18.643 44.0355 18.6655C44.0073 18.6881 43.9847 18.7107 43.9565 18.7332L43.934 18.7558C43.9114 18.7727 43.8888 18.7953 43.8719 18.8122L43.7986 18.8856C43.7703 18.9138 43.7421 18.942 43.7196 18.9758C43.7027 18.9927 43.6857 19.0153 43.6688 19.0322L43.6519 19.0548C43.6406 19.0717 43.6293 19.0886 43.618 19.1056C43.6067 19.1225 43.5955 19.1394 43.5842 19.1507C43.5729 19.1676 43.5616 19.1789 43.556 19.1958C43.5503 19.2071 43.539 19.224 43.5278 19.2353C43.5108 19.2635 43.4939 19.2917 43.477 19.32C43.4713 19.3256 43.4713 19.3312 43.4657 19.3369C43.4488 19.3651 43.4319 19.3989 43.4149 19.4271C43.4093 19.4384 43.4036 19.4553 43.398 19.4666C43.3867 19.4892 43.3754 19.5118 43.3642 19.5343C43.3472 19.5625 43.336 19.5964 43.3247 19.6246C43.3077 19.6641 43.2965 19.7036 43.2795 19.7374C43.2683 19.7713 43.257 19.7995 43.2513 19.8333C43.2457 19.8559 43.24 19.8785 43.2344 19.8954C43.2288 19.9123 43.2231 19.9349 43.2175 19.9518C43.2118 19.9687 43.2062 19.9913 43.2006 20.0082C43.1949 20.0195 43.1949 20.0364 43.1949 20.0477C43.1949 20.059 43.1893 20.0703 43.1893 20.0816C43.1836 20.1154 43.178 20.1436 43.1723 20.1775V20.1831C43.1667 20.217 43.1611 20.2452 43.1611 20.279V20.3072C43.1554 20.3693 43.1498 20.4313 43.1498 20.4934C43.1498 20.5667 43.1554 20.6401 43.1611 20.7078C43.1611 20.7247 43.1667 20.7416 43.1667 20.7585C43.1723 20.8206 43.1836 20.8883 43.1949 20.9504L43.2006 20.9729C43.2118 21.0406 43.2344 21.1083 43.2513 21.176L43.2683 21.2268C43.2852 21.2832 43.3077 21.334 43.3303 21.3904C43.336 21.4017 43.3416 21.413 43.3472 21.4299C43.3811 21.5089 43.4206 21.5822 43.4601 21.6555C43.4713 21.6781 43.4883 21.7007 43.4996 21.7232C43.5165 21.7458 43.5278 21.774 43.5447 21.7966C43.5503 21.8079 43.5616 21.8192 43.5673 21.8304C43.6124 21.8981 43.6632 21.9602 43.7139 22.0222C43.7534 22.0674 43.7873 22.1069 43.8324 22.152C43.838 22.1576 43.8493 22.1689 43.8606 22.1802C43.917 22.2366 43.9791 22.293 44.0411 22.3438C44.0863 22.3833 44.137 22.4172 44.1822 22.451L44.2047 22.4679C44.3289 22.5469 44.453 22.6202 44.5884 22.6767L44.6053 22.6823C44.6674 22.7105 44.7351 22.7331 44.8028 22.7556C44.814 22.7613 44.831 22.7613 44.8422 22.7669C44.9099 22.7895 44.9776 22.8064 45.0453 22.8177C45.113 22.8346 45.1864 22.8403 45.2597 22.8516C45.271 22.8516 45.2879 22.8572 45.2992 22.8572C45.4515 22.8741 45.6038 22.8741 45.7562 22.8572C45.7675 22.8572 45.7787 22.8516 45.79 22.8516C45.8577 22.8459 45.9198 22.8346 45.9875 22.8233C46.01 22.8177 46.027 22.8121 46.0495 22.8064C46.1003 22.7951 46.1567 22.7839 46.2075 22.7669C46.2301 22.7613 46.2583 22.75 46.2808 22.7387C46.326 22.7218 46.3767 22.7049 46.4219 22.6879C46.4501 22.6767 46.4726 22.6654 46.5009 22.6541C46.5403 22.6372 46.5855 22.6146 46.625 22.592C46.6532 22.5808 46.6757 22.5638 46.7039 22.5469C46.7434 22.5243 46.7829 22.5018 46.8168 22.4792C46.845 22.4623 46.8676 22.4454 46.8958 22.4228C46.9296 22.4002 46.9635 22.372 46.9973 22.3438C47.0199 22.3212 47.0481 22.3043 47.0706 22.2818C47.1045 22.2536 47.1327 22.2253 47.1666 22.1971L47.2343 22.1294C47.285 22.073 47.3358 22.0166 47.3809 21.9602C47.4543 21.8699 47.5163 21.774 47.5727 21.6725C47.5897 21.6443 47.6066 21.6104 47.6235 21.5822C47.6574 21.5145 47.6912 21.4468 47.7194 21.3791C47.7364 21.3396 47.7476 21.3058 47.7589 21.2663C47.7702 21.2324 47.7815 21.1986 47.7928 21.1647C47.804 21.1252 47.8153 21.0858 47.821 21.0463C47.8266 21.0124 47.8379 20.9729 47.8435 20.9391C47.8492 20.8996 47.8548 20.8601 47.8605 20.8206C47.8661 20.7868 47.8717 20.7473 47.8717 20.7078V20.6626C47.8774 20.6062 47.8774 20.5554 47.8774 20.499C47.8605 20.4088 47.8548 20.3354 47.8492 20.2564Z" fill="#C1C1C1"/>
</g>
</svg>
