<svg width="100" height="100" viewBox="0 0 100 100" fill="none" xmlns="http://www.w3.org/2000/svg">
<circle cx="50" cy="50" r="50" fill="#E9E9E9"/>
<path fill-rule="evenodd" clip-rule="evenodd" d="M57.526 94.1411C57.2534 95.2464 62.6156 97.8565 66.8501 96.6019C71.0174 95.3696 73.4968 93.9021 70.588 92.6026C67.7127 91.3218 64.7179 91.6318 62.9069 92.0948C61.0772 92.5615 57.7538 93.2113 57.526 94.1411Z" fill="#B37F3E"/>
<path fill-rule="evenodd" clip-rule="evenodd" d="M64.6767 98.9394C63.7431 98.3494 64.0195 97.8677 64.8335 97.6586C65.6475 97.4495 66.5773 97.737 67.5146 98.327C68.4593 98.917 68.6535 99.563 67.8357 99.7758C67.018 99.9887 65.6139 99.5331 64.6767 98.9394Z" fill="#B37F3E"/>
<path fill-rule="evenodd" clip-rule="evenodd" d="M68.4929 98.2523C67.3615 97.6772 67.4921 97.1507 68.2576 96.8819C69.0194 96.6168 70.05 96.8707 71.1815 97.442C72.3204 98.017 72.7162 98.6892 71.9544 98.9618C71.1927 99.2344 69.6318 98.8311 68.4929 98.2523Z" fill="#B37F3E"/>
<path fill-rule="evenodd" clip-rule="evenodd" d="M71.5323 96.9043C70.3896 96.389 70.427 95.8849 71.0916 95.6123C71.7526 95.3397 72.7533 95.5525 73.8959 96.0641C75.0423 96.5757 75.5203 97.203 74.8594 97.4831C74.1947 97.7594 72.6824 97.4233 71.5323 96.9043Z" fill="#B37F3E"/>
<path fill-rule="evenodd" clip-rule="evenodd" d="M73.2166 95.3136C72.2046 94.8618 72.2345 94.4249 72.817 94.1859C73.3995 93.9469 74.2808 94.1336 75.2927 94.5817C76.3084 95.0298 76.7304 95.5787 76.1516 95.8214C75.5653 96.0604 74.2322 95.7654 73.2166 95.3136Z" fill="#B37F3E"/>
<path fill-rule="evenodd" clip-rule="evenodd" d="M59.8037 98.5735C58.971 97.9872 59.3071 97.5316 60.136 97.3524C60.9613 97.1694 61.8313 97.4682 62.6678 98.0507C63.5079 98.6369 63.6125 99.2568 62.7798 99.4435C61.9471 99.6265 60.6401 99.1634 59.8037 98.5735Z" fill="#B37F3E"/>
<path fill-rule="evenodd" clip-rule="evenodd" d="M34.6731 87.2516C34.2698 88.1777 38.6462 90.3771 42.5931 89.339C46.4766 88.3196 48.8963 87.0985 46.5027 86.0045C44.1353 84.9216 41.4318 85.1717 39.7515 85.5564C38.0599 85.9447 35.0091 86.4787 34.6731 87.2516Z" fill="#B37F3E"/>
<path fill-rule="evenodd" clip-rule="evenodd" d="M40.319 91.2882C39.5759 90.7915 39.8933 90.3883 40.6476 90.2165C41.4019 90.0447 42.1824 90.2912 42.9292 90.7841C43.6797 91.2807 43.7582 91.8184 43.0001 91.9939C42.2421 92.1732 41.0659 91.7886 40.319 91.2882Z" fill="#B37F3E"/>
<path fill-rule="evenodd" clip-rule="evenodd" d="M43.8104 90.728C42.8918 90.2426 43.0859 89.802 43.8029 89.5817C44.5161 89.3614 45.3974 89.5779 46.3197 90.0596C47.2457 90.5451 47.4997 91.1089 46.7827 91.333C46.0583 91.557 44.7327 91.2172 43.8104 90.728Z" fill="#B37F3E"/>
<path fill-rule="evenodd" clip-rule="evenodd" d="M46.7044 89.6116C45.7671 89.1784 45.8717 88.7565 46.5028 88.5287C47.1301 88.3009 47.9889 88.4839 48.9262 88.9133C49.8709 89.3465 50.1995 89.873 49.5722 90.1008C48.9411 90.336 47.6491 90.0485 46.7044 89.6116Z" fill="#B37F3E"/>
<path fill-rule="evenodd" clip-rule="evenodd" d="M48.4407 88.286C47.608 87.9051 47.6976 87.5392 48.254 87.3412C48.8066 87.1433 49.5609 87.3039 50.3936 87.6811C51.2301 88.0582 51.5251 88.5175 50.9724 88.7191C50.416 88.917 49.2734 88.6669 48.4407 88.286Z" fill="#B37F3E"/>
<path fill-rule="evenodd" clip-rule="evenodd" d="M36.0511 90.9671C35.3976 90.4742 35.7635 90.097 36.5216 89.9477C37.2796 89.7983 38.0077 90.0485 38.6649 90.5376C39.3259 91.0305 39.3259 91.5496 38.5604 91.7027C37.7986 91.8558 36.7045 91.46 36.0511 90.9671Z" fill="#B37F3E"/>
<path fill-rule="evenodd" clip-rule="evenodd" d="M37.0106 71.7699C36.7268 72.4383 40.1884 74.044 43.2242 73.3159C46.2152 72.5989 48.0711 71.7289 46.1779 70.9223C44.3071 70.1269 42.2085 70.295 40.9091 70.5638C39.6058 70.8364 37.2534 71.2098 37.0106 71.7699Z" fill="#B37F3E"/>
<path fill-rule="evenodd" clip-rule="evenodd" d="M41.5142 74.7087C40.9242 74.3465 41.1594 74.0589 41.7382 73.9395C42.317 73.82 42.9332 73.9992 43.5269 74.3577C44.1243 74.7199 44.199 75.1082 43.6165 75.2315C43.034 75.3547 42.1079 75.0709 41.5142 74.7087Z" fill="#B37F3E"/>
<path fill-rule="evenodd" clip-rule="evenodd" d="M44.2099 74.3204C43.4818 73.9656 43.6237 73.6482 44.1726 73.4951C44.7215 73.3383 45.4123 73.4989 46.1405 73.8536C46.8724 74.2083 47.0815 74.6153 46.5326 74.7722C45.9799 74.929 44.9418 74.6751 44.2099 74.3204Z" fill="#B37F3E"/>
<path fill-rule="evenodd" clip-rule="evenodd" d="M46.4319 73.5287C45.6925 73.2113 45.7635 72.9088 46.2489 72.7482C46.7306 72.5877 47.4028 72.7221 48.1421 73.0395C48.8852 73.3569 49.1541 73.7378 48.6724 73.9021C48.1869 74.0626 47.175 73.8498 46.4319 73.5287Z" fill="#B37F3E"/>
<path fill-rule="evenodd" clip-rule="evenodd" d="M47.7462 72.5803C47.089 72.3002 47.1488 72.0351 47.5782 71.8932C48.0039 71.7513 48.5976 71.8708 49.2511 72.1471C49.9083 72.4234 50.151 72.7595 49.7253 72.9014C49.2959 73.047 48.4034 72.8603 47.7462 72.5803Z" fill="#B37F3E"/>
<path fill-rule="evenodd" clip-rule="evenodd" d="M38.1945 74.4548C37.6717 74.0963 37.9443 73.8274 38.5306 73.7229C39.1168 73.6183 39.6882 73.8013 40.2147 74.1598C40.7412 74.5183 40.7561 74.8917 40.1661 74.9962C39.5761 75.1045 38.7173 74.817 38.1945 74.4548Z" fill="#B37F3E"/>
<path fill-rule="evenodd" clip-rule="evenodd" d="M27.7985 63.7229C27.4064 64.0851 28.8179 65.2091 30.8007 64.9738C32.7499 64.7423 34.1054 64.354 33.3063 63.7827C32.5184 63.2188 31.2637 63.1889 30.4348 63.2673C29.5983 63.342 28.1308 63.4167 27.7985 63.7229Z" fill="#B37F3E"/>
<path fill-rule="evenodd" clip-rule="evenodd" d="M29.3444 65.6684C29.1353 65.4256 29.3668 65.2763 29.7403 65.2427C30.1137 65.2091 30.4012 65.3472 30.614 65.5899C30.8269 65.8327 30.7373 66.0604 30.3601 66.094C29.983 66.1277 29.5536 65.9111 29.3444 65.6684Z" fill="#B37F3E"/>
<path fill-rule="evenodd" clip-rule="evenodd" d="M31.0137 65.6049C30.7224 65.3584 30.9129 65.1867 31.2788 65.1307C31.6447 65.0746 31.9808 65.2053 32.2758 65.4518C32.5708 65.6982 32.5484 65.9447 32.1825 66.0007C31.8128 66.0567 31.3087 65.8513 31.0137 65.6049Z" fill="#B37F3E"/>
<path fill-rule="evenodd" clip-rule="evenodd" d="M32.552 65.2838C32.2384 65.0597 32.384 64.8879 32.7163 64.8245C33.0487 64.761 33.381 64.8767 33.6947 65.1008C34.0084 65.3248 34.0308 65.5601 33.6984 65.6236C33.3698 65.6908 32.8657 65.5115 32.552 65.2838Z" fill="#B37F3E"/>
<path fill-rule="evenodd" clip-rule="evenodd" d="M33.6274 64.8171C33.3511 64.6192 33.4743 64.4698 33.7656 64.4175C34.0568 64.3615 34.3518 64.4661 34.6281 64.6602C34.9082 64.8581 34.9306 65.0635 34.6393 65.1195C34.3518 65.1755 33.9074 65.0187 33.6274 64.8171Z" fill="#B37F3E"/>
<path fill-rule="evenodd" clip-rule="evenodd" d="M27.5373 65.3286C27.3655 65.0934 27.6157 64.9552 27.9854 64.9291C28.355 64.9029 28.6164 65.0448 28.7919 65.2763C28.9674 65.5116 28.8479 65.7282 28.4745 65.7543C28.1011 65.7804 27.709 65.5639 27.5373 65.3286Z" fill="#B37F3E"/>
<path fill-rule="evenodd" clip-rule="evenodd" d="M4.02166 17H95.9677L96.0002 20.8154H4.05879L4.02166 17Z" fill="#9E9D9E"/>
<path fill-rule="evenodd" clip-rule="evenodd" d="M4.01855 80.152H95.9646L95.8485 84H4.05569L4.01855 80.152Z" fill="#9E9D9E"/>
<path d="M6.87317 20.834H4V80.1242H6.87317V20.834Z" fill="#9E9D9E"/>
<path fill-rule="evenodd" clip-rule="evenodd" d="M14.0489 20.8201H16.9128C16.9128 20.8201 15.4785 32.2199 15.4785 48.992C15.4785 65.1971 16.9128 80.1521 16.9128 80.1521H14.0489C14.0489 80.1521 12.6146 65.1831 12.6146 48.9687C12.6193 32.2013 14.0489 20.8201 14.0489 20.8201Z" fill="#9E9D9E"/>
<path fill-rule="evenodd" clip-rule="evenodd" d="M24.6181 20.8201H27.482C27.482 20.8201 21.5128 47.291 21.7496 53.6392C21.912 57.9705 27.482 80.1474 27.482 80.1474H24.6181C24.6181 80.1474 18.9924 58.491 18.8857 53.7368C18.7279 46.6683 24.6181 20.8201 24.6181 20.8201Z" fill="#9E9D9E"/>
<path fill-rule="evenodd" clip-rule="evenodd" d="M34.1102 20.8201H36.974C36.974 20.8201 25.7181 44.3307 25.5092 53.2071C25.3793 58.8024 36.974 80.1474 36.974 80.1474H33.8409C33.8409 80.1474 23.0724 61.4002 22.6453 52.8213C22.3343 46.5289 34.1102 20.8201 34.1102 20.8201Z" fill="#9E9D9E"/>
<path fill-rule="evenodd" clip-rule="evenodd" d="M44.1409 20.8201H47.0048C47.0048 20.8201 57.1838 50.5256 57.0353 55.9722C56.8589 62.5016 47.0048 80.1474 47.0048 80.1474H44.1409C44.1409 80.1474 54.2178 63.2917 54.1714 56.4648C54.1343 50.7533 44.1409 20.8201 44.1409 20.8201Z" fill="#9E9D9E"/>
<path fill-rule="evenodd" clip-rule="evenodd" d="M54.1713 20.8201H57.0352C57.0352 20.8201 59.8433 52.0685 59.899 56.6368C59.9826 63.0454 57.0352 80.1521 57.0352 80.1521H54.1713C54.1713 80.1521 57.3183 62.3669 57.0352 56.9202C56.195 40.7337 54.1713 20.8201 54.1713 20.8201Z" fill="#9E9D9E"/>
<path d="M67.0936 20.8293H64.2205V80.1102H67.0936V20.8293Z" fill="#9E9D9E"/>
<path d="M77.1333 20.8293H74.2601V80.1102H77.1333V20.8293Z" fill="#9E9D9E"/>
<path d="M86.7001 20.8293H83.8594V80.1102H86.7001V20.8293Z" fill="#9E9D9E"/>
<path d="M95.9271 20.8293H93.1143V81.5323H95.9271V20.8293Z" fill="#9E9D9E"/>
</svg>
