<svg width="320" height="320" viewBox="0 0 320 320" fill="none" xmlns="http://www.w3.org/2000/svg">
<g opacity="0.6">
<circle cx="222" cy="183" r="1" fill="white"/>
<circle cx="255" cy="157" r="1" fill="white" fill-opacity="0.5"/>
<circle cx="257" cy="220" r="1" fill="white" fill-opacity="0.5"/>
<circle cx="190" cy="271" r="1" fill="white" fill-opacity="0.5"/>
<circle cx="179" cy="274" r="1" fill="white" fill-opacity="0.5"/>
<circle cx="106" cy="227" r="1" fill="white" fill-opacity="0.5"/>
<circle cx="81" cy="134" r="1" fill="white" fill-opacity="0.5"/>
<circle cx="98" cy="142" r="1" fill="white" fill-opacity="0.5"/>
<circle cx="153" cy="52" r="1" fill="white" fill-opacity="0.5"/>
<circle cx="187" cy="36" r="1" fill="white" fill-opacity="0.5"/>
<circle cx="267" cy="144" r="1" fill="white" fill-opacity="0.5"/>
<circle cx="289" cy="156" r="1" fill="white" fill-opacity="0.5"/>
<circle cx="312" cy="167" r="1" fill="white" fill-opacity="0.5"/>
<circle cx="255" cy="241" r="1" fill="white" fill-opacity="0.5"/>
<circle cx="245" cy="225" r="1" fill="white" fill-opacity="0.5"/>
<circle cx="21" cy="178" r="1" fill="white" fill-opacity="0.5"/>
<circle cx="79" cy="47" r="1" fill="white" fill-opacity="0.5"/>
<circle cx="83" cy="62" r="1" fill="white" fill-opacity="0.5"/>
<circle cx="153" cy="30" r="1" fill="white" fill-opacity="0.5"/>
<circle cx="263" cy="25" r="1" fill="white" fill-opacity="0.5"/>
<circle cx="279" cy="10" r="1" fill="white" fill-opacity="0.5"/>
<circle cx="277" cy="30" r="1" fill="white" fill-opacity="0.5"/>
<circle cx="314" cy="16" r="1" fill="white" fill-opacity="0.5"/>
<circle cx="314" cy="63" r="1" fill="white" fill-opacity="0.5"/>
<circle cx="194" cy="146" r="1" fill="white" fill-opacity="0.5"/>
<circle cx="54" cy="281" r="1" fill="white" fill-opacity="0.5"/>
<circle cx="27" cy="245" r="1" fill="white" fill-opacity="0.5"/>
<circle cx="13" cy="288" r="1" fill="white" fill-opacity="0.5"/>
<circle cx="177" cy="227" r="1" fill="white" fill-opacity="0.5"/>
<circle cx="167" cy="232" r="1" fill="white" fill-opacity="0.5"/>
<circle cx="178" cy="211" r="1" fill="white" fill-opacity="0.5"/>
<circle cx="214" cy="209" r="1" fill="white" fill-opacity="0.5"/>
<circle cx="183" cy="303" r="1" fill="white" fill-opacity="0.5"/>
<circle cx="279" cy="288" r="1" fill="white" fill-opacity="0.5"/>
<circle cx="281" cy="169" r="1" fill="white" fill-opacity="0.5"/>
<circle cx="204" cy="107" r="1" fill="white" fill-opacity="0.5"/>
<circle cx="193" cy="57" r="1" fill="white" fill-opacity="0.5"/>
<circle cx="232" cy="23" r="1" fill="white" fill-opacity="0.5"/>
<circle cx="222" cy="25" r="1" fill="white" fill-opacity="0.2"/>
<circle cx="232" cy="65" r="1" fill="white" fill-opacity="0.2"/>
<circle cx="224" cy="64" r="1" fill="white" fill-opacity="0.2"/>
<circle cx="304" cy="46" r="1" fill="white" fill-opacity="0.2"/>
<circle cx="145" cy="134" r="1" fill="white" fill-opacity="0.2"/>
<circle cx="165" cy="111" r="1" fill="white" fill-opacity="0.1"/>
<circle cx="232" cy="163" r="1" fill="white" fill-opacity="0.1"/>
<circle cx="139" cy="254" r="1" fill="white" fill-opacity="0.1"/>
<circle cx="32" cy="232" r="1" fill="white" fill-opacity="0.1"/>
<circle cx="79" cy="173" r="1" fill="white" fill-opacity="0.2"/>
<circle cx="93" cy="161" r="1" fill="white" fill-opacity="0.2"/>
<circle cx="82" cy="152" r="1" fill="white" fill-opacity="0.2"/>
<circle cx="114" cy="88" r="1" fill="white" fill-opacity="0.2"/>
<circle cx="5" cy="108" r="1" fill="white" fill-opacity="0.2"/>
<circle cx="62" cy="21" r="1" fill="white" fill-opacity="0.2"/>
<circle cx="238" cy="141" r="1" fill="white" fill-opacity="0.2"/>
<circle cx="291" cy="211" r="1" fill="white" fill-opacity="0.2"/>
<circle cx="275" cy="243" r="1" fill="white" fill-opacity="0.2"/>
<circle cx="12" cy="202" r="1" fill="white" fill-opacity="0.2"/>
<circle cx="60" cy="224" r="1" fill="white" fill-opacity="0.2"/>
<circle cx="46" cy="203" r="1" fill="white" fill-opacity="0.2"/>
<circle cx="87" cy="155" r="1" fill="white" fill-opacity="0.2"/>
<circle cx="7" cy="63" r="1" fill="white" fill-opacity="0.2"/>
<circle cx="28" cy="8" r="1" fill="white" fill-opacity="0.2"/>
<circle cx="33" cy="11" r="1" fill="white" fill-opacity="0.2"/>
<circle cx="119" cy="177" r="1" fill="white" fill-opacity="0.2"/>
<circle cx="143" cy="211" r="1" fill="white" fill-opacity="0.2"/>
<circle cx="141" cy="3" r="1" fill="white"/>
<circle cx="255" cy="104" r="1" fill="white" fill-opacity="0.7"/>
<circle cx="277" cy="51" r="1" fill="white" fill-opacity="0.7"/>
<circle cx="181" cy="70" r="1" fill="white"/>
<circle cx="141" cy="124" r="1" fill="white" fill-opacity="0.8"/>
<circle cx="155" cy="185" r="1" fill="white"/>
<circle cx="111" cy="195" r="1" fill="white" fill-opacity="0.8"/>
<circle cx="82" cy="113" r="1" fill="white" fill-opacity="0.8"/>
<circle cx="64" cy="152" r="1" fill="white"/>
<circle cx="15" cy="156" r="1" fill="white" fill-opacity="0.8"/>
<circle cx="115" cy="279" r="1" fill="white"/>
<circle cx="188" cy="253" r="1" fill="white"/>
<circle cx="308" cy="220" r="1" fill="white"/>
<circle cx="298" cy="269" r="1" fill="white" fill-opacity="0.8"/>
<circle cx="247" cy="275" r="1" fill="white" fill-opacity="0.8"/>
<circle cx="246" cy="310" r="1" fill="white" fill-opacity="0.8"/>
<circle cx="135" cy="261" r="1" fill="white"/>
<circle cx="89" cy="268" r="1" fill="white"/>
<circle cx="15" cy="77" r="1" fill="white"/>
<circle cx="13" cy="41" r="1" fill="white"/>
<circle cx="143" cy="58" r="1" fill="white" fill-opacity="0.6"/>
<circle cx="310" cy="106" r="1" fill="white" fill-opacity="0.7"/>
</g>
</svg>
