<svg width="100" height="100" viewBox="0 0 100 100" fill="none" xmlns="http://www.w3.org/2000/svg">
<mask id="mask0" mask-type="alpha" maskUnits="userSpaceOnUse" x="0" y="0" width="100" height="100">
<circle cx="50" cy="50" r="50" fill="white"/>
</mask>
<g mask="url(#mask0)">
<circle cx="50" cy="50" r="50" fill="#E9E9E9"/>
<path fill-rule="evenodd" clip-rule="evenodd" d="M50.8198 29.9444C50.8198 29.9444 53.814 25.5087 56.7799 25.4441C59.7468 25.3804 54.7767 21.9438 51.2289 24.1702C48.3146 26.0007 45.5669 28.4514 47.8226 31.1496C49.3833 33.0144 50.8198 29.9444 50.8198 29.9444Z" fill="#1A1A1A"/>
<path fill-rule="evenodd" clip-rule="evenodd" d="M46.8291 24.7703C46.8291 24.7703 49.7869 20.3103 52.7528 20.2204C55.7197 20.1305 50.7193 16.7373 47.1887 18.9941C44.2885 20.8498 41.561 23.3247 43.841 26.0007C45.4189 27.8523 46.8291 24.7703 46.8291 24.7703Z" fill="#1A1A1A"/>
<path fill-rule="evenodd" clip-rule="evenodd" d="M41.9421 21.4891C41.9421 21.4891 44.3443 16.7119 47.29 16.2503C50.2356 15.7886 44.8372 13.0642 41.5956 15.7381C38.9327 17.9342 36.5154 20.7213 39.1146 23.0801C40.9117 24.7105 41.9421 21.4891 41.9421 21.4891Z" fill="#1A1A1A"/>
<path fill-rule="evenodd" clip-rule="evenodd" d="M36.4126 20.2313C36.4126 20.2313 37.8046 15.0683 40.5968 14.0248C43.3899 12.9813 37.5541 11.3953 34.9175 14.6652C32.7487 17.3533 30.9425 20.5687 33.9629 22.3567C36.053 23.5942 36.4126 20.2313 36.4126 20.2313Z" fill="#1A1A1A"/>
<path fill-rule="evenodd" clip-rule="evenodd" d="M30.1376 21.7234C30.1376 21.7234 30.0982 16.3765 32.5115 14.6259C34.9218 12.8752 28.8749 12.9055 27.2081 16.7594C25.8373 19.9283 24.9564 23.5084 28.3455 24.4256C30.6892 25.06 30.1376 21.7234 30.1376 21.7234Z" fill="#1A1A1A"/>
<path fill-rule="evenodd" clip-rule="evenodd" d="M77.0341 57.8368L36.7835 50.2463C35.6359 49.8736 32.9165 49.7281 30.783 51.8848L2.66064 74.3674C3.05461 76.115 6.70338 78.1656 7.85196 78.5384L46.264 87.3946C47.4126 87.7664 50.3421 88.2856 51.6816 86.735L78.8474 63.4494C79.6939 61.431 80.4818 58.4833 77.0341 57.8368Z" fill="#CCCCCC"/>
<path fill-rule="evenodd" clip-rule="evenodd" d="M43.3616 69.4481C42.205 59.7231 45.1617 53.1367 46.8073 47.8201C48.4266 42.5884 52.7654 38.4679 49.7742 28.0317C47.3912 19.7179 33.7336 12.2173 22.2489 24.2102C12.9289 33.9423 9.37311 44.5764 9.13268 51.3386C8.84276 59.4877 8.65184 56.6804 9.0751 66.7347C9.44079 75.4445 44.297 77.3224 43.3616 69.4481Z" fill="#B37F3E"/>
<path fill-rule="evenodd" clip-rule="evenodd" d="M19.3243 61.3843L64.3894 69.2334L52.4572 79.2241L7.39206 71.375L19.3243 61.3843Z" fill="#666666"/>
<path fill-rule="evenodd" clip-rule="evenodd" d="M61.0761 21.7767L59.4376 27.1316C67.9676 29.7106 74.4065 37.3617 74.9883 46.7685C75.0681 48.0383 75.0297 49.2879 74.8974 50.5122L80.4675 51.1567C80.6373 49.6102 80.6857 48.0312 80.5867 46.4261C79.8554 34.6211 71.779 25.0183 61.0761 21.7767Z" fill="#AFE5F4"/>
<path fill-rule="evenodd" clip-rule="evenodd" d="M69.1432 49.8461C69.2392 48.9521 69.2796 48.0429 69.222 47.1146C68.7917 40.1807 64.0357 34.5581 57.7464 32.662L56.1604 37.8442C60.3456 39.0978 63.5125 42.8355 63.7973 47.4459C63.8347 48.049 63.8095 48.64 63.7489 49.2218L69.1432 49.8461Z" fill="#AFE5F4"/>
<path fill-rule="evenodd" clip-rule="evenodd" d="M57.8195 47.8061C57.6923 45.7575 56.275 44.1099 54.4102 43.5644L53.0575 47.9849L57.7912 48.5325C57.8125 48.293 57.8347 48.0536 57.8195 47.8061Z" fill="#AFE5F4"/>
<mask id="mask1" mask-type="alpha" maskUnits="userSpaceOnUse" x="62" y="11" width="30" height="42">
<path fill-rule="evenodd" clip-rule="evenodd" d="M62.8983 11.1111H91.8138V52.4411H62.8983V11.1111Z" fill="white"/>
</mask>
<g mask="url(#mask1)">
<path fill-rule="evenodd" clip-rule="evenodd" d="M64.3398 11.1107L62.8983 15.8242C76.0195 19.8023 85.9213 31.578 86.8173 46.0529C86.9396 48.0288 86.879 49.9724 86.6699 51.8745L91.5702 52.4412C91.8127 50.2552 91.8824 48.0207 91.742 45.7498C90.7146 29.1657 79.3723 15.6737 64.3398 11.1107Z" fill="#AFE5F4"/>
</g>
<mask id="mask2" mask-type="alpha" maskUnits="userSpaceOnUse" x="-15" y="30" width="66" height="59">
<path fill-rule="evenodd" clip-rule="evenodd" d="M-14.4444 30.0552H50.6262V88.8889H-14.4444V30.0552Z" fill="white"/>
</mask>
<g mask="url(#mask2)">
<path fill-rule="evenodd" clip-rule="evenodd" d="M35.0251 38.8387L-13.0069 30.0987C-14.1242 29.8118 -14.7141 30.9745 -14.3242 32.6928L-1.13025 73.9819C-0.722134 75.7628 0.53857 77.5175 1.68613 77.9014L49.1615 88.8144C50.3081 89.1982 50.9071 88.0648 50.497 86.2849L37.7576 42.4673C37.3657 40.749 36.1423 39.1246 35.0251 38.8387Z" fill="#B3B3B3"/>
</g>
</g>
</svg>
